<svg width="70.104mm" height="68.58mm" viewBox="0 0 27600000 27000000"  version="1.1" xmlns="http://www.w3.org/2000/svg" xmlns:xlink="http://www.w3.org/1999/xlink">
<desc>
Origin 16000000 13000000 Bound 17000000 13500000 27600000 27000000
</desc>
<g fill-rule="evenodd" fill="rgb(0, 0, 255)" stroke="black" stroke-width="1" transform="translate(0, 27000000) scale(1, -1) translate(-17000000, -13500000)">
<path id="N" d="M 33749992.67 37999987.81 m -302603.18 0 a 302603.18 302603.18 0 1 1 605206.36 0a 302603.18 302603.18 0 1 1 -605206.36 0M 33749998.90 38000001.70 m -203916.30 0 a 203916.30 203916.30 0 1 1 407832.60 0a 203916.30 203916.30 0 1 1 -407832.60 0"/>
<path id="N" d="M 33085153.00 35685153.00 L 33105887.74 35654120.00 L 35600000.00 35654121.00 L 35638269.00 35638269.00 L 35738269.00 35538269.00 L 35754120.00 35500000.00 L 35754120.00 34305887.74 L 35785153.00 34285153.00 A 120431.73 120431.73 0 1 0 35614847.00 34285153.00 L 35645880.00 34305887.74 L 35645880.00 35477582.84 L 35577582.16 35545880.00 L 33105887.74 35545880.00 L 33085153.00 35514847.00 A 120431.73 120431.73 0 1 0 33085153.00 35685153.00  z"/>
<path id="N" d="M 35946084.00 28588743.00 L 35928056.00 28585156.88 L 35928056.00 28455824.00 L 35912203.29 28417554.29 L 35854120.00 28359470.21 L 35854120.00 28303986.84 L 35938269.00 28219838.00 L 35954120.00 28181569.00 L 35954120.00 27900000.00 L 35938269.00 27861731.00 L 35413142.63 27336604.63 L 35420424.00 27300000.00 A 120431.73 120431.73 0 1 0 35300000.00 27420424.00 L 35336604.63 27413142.63 L 35845880.00 27922418.00 L 35845880.00 28159151.84 L 35761731.00 28243300.00 L 35745880.00 28281571.41 L 35745879.00 28381888.00 L 35761731.00 28420157.00 L 35819816.00 28478241.21 L 35819816.00 28611526.96 L 35814847.00 28614847.00 A 120431.73 120431.73 0 1 0 35946084.00 28588743.00  z"/>
<path id="N" d="M 34749992.67 37999987.81 m -302603.18 0 a 302603.18 302603.18 0 1 1 605206.36 0a 302603.18 302603.18 0 1 1 -605206.36 0M 34749998.90 38000001.70 m -203916.30 0 a 203916.30 203916.30 0 1 1 407832.60 0a 203916.30 203916.30 0 1 1 -407832.60 0"/>
<path id="N" d="M 40614847.00 34014847.00 L 40594112.26 34045880.00 L 36622418.00 34045880.00 L 36388842.41 33812304.41 L 36391290.00 33800000.00 A 120431.73 120431.73 0 1 0 36316950.00 33911257.00 L 36327601.91 33904139.91 L 36561731.00 34138269.00 L 36600000.00 34154120.00 L 40594112.26 34154120.00 L 40614847.00 34185153.00 A 120431.73 120431.73 0 1 0 40614847.00 34014847.00  z"/>
<path id="N" d="M 38785153.00 31414847.00 L 38754120.00 31394112.26 L 38754121.00 29300000.00 L 38738269.00 29261731.00 L 38013142.63 28536604.63 L 38020424.00 28500000.00 A 120431.73 120431.73 0 1 0 37900000.00 28620424.00 L 37936604.63 28613142.63 L 38645880.00 29322418.00 L 38645880.00 31394112.26 L 38614847.00 31414847.00 A 120431.73 120431.73 0 1 0 38785153.00 31414847.00  z"/>
<path id="N" d="M 35670315.00 28979576.00 L 35646090.69 28984394.69 L 34709864.34 28048168.34 A 117653.24 117653.24 0 1 0 34600000.00 28120424.00 L 34624225.15 28115605.15 L 35560451.06 29051831.06 A 117652.56 117652.56 0 1 0 35670315.00 28979576.00  z"/>
<path id="N" d="M 40814847.00 37514847.00 L 40794112.26 37545880.00 L 40222417.04 37545880.00 L 39854120.00 37177582.04 L 39854120.00 35305887.74 L 39885153.00 35285153.00 A 120431.73 120431.73 0 1 0 39714847.00 35285153.00 L 39745880.00 35305887.74 L 39745879.00 37200000.00 L 39761731.00 37238269.00 L 40161731.00 37638269.00 L 40200000.00 37654120.00 L 40794112.26 37654120.00 L 40814847.00 37685153.00 A 120431.73 120431.73 0 1 0 40814847.00 37514847.00  z"/>
<path id="N" d="M 36900000.00 36379576.00 L 36863395.37 36386857.37 L 36198269.00 35721731.00 L 36159997.59 35705880.00 L 33384644.00 35705880.00 L 33346375.00 35721731.00 L 33294116.00 35773990.00 L 32927932.00 35773990.00 L 32826010.00 35672068.00 L 32826010.00 35473123.98 L 33738269.00 34560865.00 L 33754120.00 34522593.59 L 33754120.00 31805887.74 L 33785153.00 31785153.00 A 120431.73 120431.73 0 1 0 33614847.00 31785153.00 L 33645880.00 31805887.74 L 33645880.00 34500178.98 L 32733621.00 35412437.00 L 32717770.00 35450708.41 L 32717769.00 35694486.00 L 32733621.00 35732755.00 L 32867245.00 35866379.00 L 32905516.41 35882230.00 L 33316534.00 35882231.00 L 33354803.00 35866379.00 L 33407062.00 35814120.00 L 36137582.00 35814120.00 L 36786857.37 36463395.37 L 36779576.00 36500000.00 A 120431.73 120431.73 0 1 0 36900000.00 36379576.00  z"/>
<path id="N" d="M 34285153.00 25080429.00 L 34305887.74 25049396.00 L 38300000.00 25049397.00 L 38338269.00 25033545.00 L 38613394.71 24758418.50 L 38650000.00 24765700.00 A 120431.73 120431.73 0 1 0 38529576.00 24645276.00 L 38536857.50 24681881.29 L 38277582.05 24941156.00 L 34305887.74 24941156.00 L 34285153.00 24910123.00 A 120431.73 120431.73 0 1 0 34285153.00 25080429.00  z"/>
<path id="N" d="M 37790120.00 37190120.00 L 38890120.00 36090120.00 L 38917748.00 36048773.00 L 38927449.00 36000000.00 L 38927449.00 34400000.00 A 127441.40 127441.40 0 0 0 38672551.00 34400000.00 L 38672551.00 35947209.00 L 37647209.00 36972551.00 L 32852791.00 36972551.00 L 31299339.00 35419099.00 L 31299339.00 33371890.00 L 31289638.00 33323117.00 L 31262010.00 33281770.00 L 30627449.00 32647209.00 L 30627449.00 32400000.00 A 127441.40 127441.40 0 1 0 30372551.00 32400000.00 L 30372551.00 32700000.00 L 30382252.00 32748773.00 L 30409880.00 32790120.00 L 31044441.00 33424681.00 L 31044441.00 35471890.00 L 31054142.00 35520663.00 L 31081770.00 35562010.00 L 32709880.00 37190120.00 L 32751227.00 37217748.00 L 32800000.00 37227449.00 L 37700000.00 37227449.00 L 37748773.00 37217748.00 L 37790120.00 37190120.00  z"/>
<path id="N" d="M 32749992.67 37999987.81 m -302603.18 0 a 302603.18 302603.18 0 1 1 605206.36 0a 302603.18 302603.18 0 1 1 -605206.36 0M 32749998.90 38000001.70 m -203916.30 0 a 203916.30 203916.30 0 1 1 407832.60 0a 203916.30 203916.30 0 1 1 -407832.60 0"/>
<path id="N" d="M 40314847.00 33114847.00 L 40294112.26 33145880.00 L 39022417.03 33145880.00 L 38613142.61 32736604.76 L 38620424.00 32700000.00 A 120431.73 120431.73 0 1 0 38500000.00 32820424.00 L 38536604.76 32813142.61 L 38961731.00 33238269.00 L 39000002.41 33254120.00 L 40294112.26 33254120.00 L 40314847.00 33285153.00 A 120431.73 120431.73 0 1 0 40314847.00 33114847.00  z"/>
<path id="N" d="M 43103480.57 39949999.57 L 43025204.00 39871723.00 A 743581.15 743581.15 0 0 1 42860000.00 39472884.00 L 42860000.00 39450000.00 L 42961827.60 39450000.00 L 42956903.00 39400000.00 L 42961827.60 39350000.00 L 42860000.00 39350000.00 L 42860000.00 39327116.00 A 743562.17 743562.17 0 0 1 43527116.00 38660000.00 L 43550000.00 38660000.00 L 43550000.00 38761827.60 L 43600000.00 38756903.00 L 43650000.00 38761827.60 L 43650000.00 38660000.00 L 43672884.00 38660000.00 L 43815850.00 38688437.00 L 43950522.00 38744220.00 L 43955903.45 38747815.77 L 44000000.00 38724245.69 L 44000000.00 15275754.31 L 43955903.45 15252184.23 L 43950522.00 15255780.00 L 43815850.00 15311563.00 L 43672884.00 15340000.00 L 43650000.00 15340000.00 L 43650000.00 15238172.40 L 43600000.00 15243097.00 L 43550000.00 15238172.40 L 43550000.00 15340000.00 L 43527116.00 15340000.00 A 743562.17 743562.17 0 0 1 42860000.00 14672884.00 L 42860000.00 14650000.00 L 42961827.60 14650000.00 L 42956903.00 14600000.00 L 42961827.60 14550000.00 L 42860000.00 14550000.00 L 42860000.00 14527116.00 A 743562.17 743562.17 0 0 1 43527116.00 13860000.00 L 43550000.00 13860000.00 L 43550000.00 13961827.60 L 43600000.00 13956903.00 L 43650000.00 13961827.60 L 43650000.00 13860000.00 L 43672884.00 13860000.00 L 43815850.00 13888437.00 L 43950522.00 13944220.00 L 43955903.45 13947815.77 L 44000000.00 13924245.69 L 44000000.00 13802584.00 L 18500000.00 13802584.00 L 18500000.00 13953481.00 L 18574796.00 14028277.00 A 743581.15 743581.15 0 0 1 18740000.00 14427116.00 L 18740000.00 14450000.00 L 18638172.40 14450000.00 L 18643097.00 14500000.00 L 18638172.40 14550000.00 L 18740000.00 14550000.00 L 18740000.00 14572884.00 A 743562.17 743562.17 0 0 1 18574796.00 14971723.00 L 18500000.00 15046519.00 L 18500000.00 33197416.00 L 28999995.00 33197416.00 A 302581.34 302581.34 0 0 1 29302584.00 33500005.00 L 29302584.00 36874665.00 L 32427919.00 40000000.00 L 43082769.72 40000000.00 L 43103480.57 39949999.57  zM 35749006.00 28599109.00 L 35761781.00 28586334.00 L 35761781.00 28502280.44 L 35720694.00 28461194.00 L 35696382.00 28424808.00 L 35687845.00 28381882.97 L 35687844.00 28281569.00 L 35696382.00 28238649.00 L 35720694.00 28202263.00 L 35787845.00 28135112.67 L 35787845.00 27946456.05 L 35319498.16 27478110.00 L 35264572.00 27478110.00 A 181601.37 181601.37 0 1 1 35478110.00 27264572.00 L 35478110.00 27319498.16 L 35979306.00 27820694.00 L 36003618.00 27857080.00 L 36012155.00 27900005.03 L 36012155.00 28181569.00 L 36003618.00 28224489.00 L 35979302.99 28260877.01 L 35912155.00 28328025.67 L 35912155.00 28335431.44 L 35953242.00 28376518.00 L 35977554.00 28412904.00 L 35986091.00 28455824.00 L 35986091.00 28542875.56 L 36000891.00 28549006.00 A 181601.37 181601.37 0 1 1 35749006.00 28599109.00  zM 34300891.00 24844282.00 L 34339730.00 24883121.00 L 38253543.09 24883121.00 L 38471890.00 24664774.72 L 38471890.00 24609848.00 A 181601.37 181601.37 0 1 1 38685428.00 24823386.00 L 38630501.28 24823386.00 L 38379306.00 25074582.00 L 38342920.00 25098894.00 L 38299994.97 25107431.00 L 34339730.00 25107431.00 L 34300891.00 25146270.00 A 181596.91 181596.91 0 1 1 34300891.00 24844282.00  zM 35492205.00 29065659.00 L 34604656.00 28178110.00 L 34564572.00 28178110.00 A 181601.37 181601.37 0 1 1 34778110.00 28034340.00 L 35665660.00 28921890.00 L 35705743.00 28921890.00 A 181601.37 181601.37 0 1 1 35492205.00 29065659.00  zM 38549006.00 31399109.00 L 38587845.00 31360270.00 L 38587845.00 29346456.04 L 37919498.12 28678110.00 L 37864572.00 28678110.00 A 181601.37 181601.37 0 1 1 38078110.00 28464572.00 L 38078110.00 28519498.12 L 38779306.00 29220694.00 L 38803618.00 29257080.00 L 38812155.00 29300005.03 L 38812155.00 31360270.00 L 38850994.00 31399109.00 A 181596.91 181596.91 0 1 1 38549006.00 31399109.00  zM 40299109.00 33350994.00 L 40260270.00 33312155.00 L 39000000.00 33312156.00 L 38957080.00 33303618.00 L 38920691.99 33279302.99 L 38519498.20 32878110.00 L 38464572.00 32878110.00 A 181601.37 181601.37 0 1 1 38678110.00 32664572.00 L 38678110.00 32719498.20 L 39046456.07 33087845.00 L 40260270.00 33087845.00 L 40299109.00 33049006.00 A 181596.91 181596.91 0 1 1 40299109.00 33350994.00  zM 36721890.00 36535428.00 L 36721890.00 36480502.00 L 36113543.00 35872155.00 L 34685486.39 35872155.00 L 34663020.00 35867686.00 L 34640553.61 35872155.00 L 33431101.00 35872155.00 L 33395840.00 35907416.00 L 33359454.00 35931728.00 L 33316528.97 35940265.00 L 32905514.00 35940266.00 L 32862594.00 35931728.00 L 32826205.99 35907412.99 L 32692584.00 35773792.00 L 32668272.00 35737406.00 L 32659735.00 35694480.97 L 32659734.00 35450706.00 L 32668272.00 35407786.00 L 32692584.00 35371400.00 L 33587845.00 34476139.96 L 33587845.00 31839730.00 L 33549006.00 31800891.00 A 181596.91 181596.91 0 1 1 33850994.00 31800891.00 L 33812155.00 31839730.00 L 33812156.00 34522596.00 L 33803618.00 34565516.00 L 33779302.99 34601904.01 L 33009318.25 35371889.57 L 33030029.12 35421890.00 L 33035428.00 35421890.00 L 33100891.00 35449006.00 L 33139730.00 35487845.00 L 35553543.33 35487845.00 L 35587845.00 35453543.67 L 35587845.00 34339730.00 L 35549006.00 34300891.00 A 181596.91 181596.91 0 1 1 35850994.00 34300891.00 L 35812155.00 34339730.00 L 35812155.00 35500000.00 L 35803618.00 35542920.00 L 35779302.99 35579308.01 L 35756960.58 35601650.65 L 35776095.04 35647845.00 L 36160000.00 35647844.00 L 36202920.00 35656382.00 L 36239306.00 35680694.00 L 36880502.00 36321890.00 L 36935428.00 36321890.00 A 181601.37 181601.37 0 1 1 36721890.00 36535428.00  zM 37700000.00 37288624.00 L 32800000.00 37288624.00 L 32727816.00 37274266.00 L 32666623.00 37233377.00 L 31038513.00 35605267.00 L 30997624.00 35544074.00 L 30983266.00 35471890.00 L 30983266.00 33450020.00 L 30366623.00 32833377.00 L 30325734.00 32772184.00 L 30311376.00 32700000.00 L 30311376.00 32400000.00 A 188620.78 188620.78 0 1 1 30688624.00 32400000.00 L 30688624.00 32621870.00 L 31305267.00 33238513.00 L 31346156.00 33299706.00 L 31360514.00 33371890.00 L 31360514.00 35393760.00 L 32878130.00 36911376.00 L 37621870.00 36911376.00 L 38611376.00 35921870.00 L 38611376.00 34400000.00 L 38625734.00 34327817.00 L 38666623.00 34266623.00 L 38673309.24 34262155.35 L 38658141.65 34212155.00 L 36600000.00 34212156.00 L 36557080.00 34203618.00 L 36520694.00 34179306.00 L 36315630.60 33974242.60 L 36306294.00 33978110.00 A 181596.91 181596.91 0 1 1 36448976.00 33764572.00 L 36448976.00 33790364.00 L 36646457.00 33987845.00 L 40560270.00 33987845.00 L 40599109.00 33949006.00 A 181596.91 181596.91 0 1 1 40599109.00 34250994.00 L 40560270.00 34212155.00 L 38941858.35 34212155.00 L 38926690.76 34262155.35 L 38933377.00 34266623.00 L 38974266.00 34327817.00 L 38988624.00 34400000.00 L 38988624.00 36000000.00 L 38974266.00 36072184.00 L 38933377.00 36133377.00 L 37833377.00 37233377.00 L 37772184.00 37274266.00 L 37700000.00 37288624.00  zM 37400000.00 35200004.94 m -241806.48 0 a 241806.48 241806.48 0 1 1 483612.96 0a 241806.48 241806.48 0 1 1 -483612.96 0M 37400000.00 36000004.94 m -241806.48 0 a 241806.48 241806.48 0 1 1 483612.96 0a 241806.48 241806.48 0 1 1 -483612.96 0M 39400000.00 35600004.94 m -241806.48 0 a 241806.48 241806.48 0 1 1 483612.96 0a 241806.48 241806.48 0 1 1 -483612.96 0M 40799109.00 37750994.00 L 40760270.00 37712155.00 L 40200000.00 37712155.00 L 40157080.00 37703618.00 L 40120691.99 37679302.99 L 39720694.00 37279306.00 L 39696382.00 37242920.00 L 39687845.00 37199994.97 L 39687845.00 35339730.00 L 39649006.00 35300891.00 A 181596.91 181596.91 0 1 1 39950994.00 35300891.00 L 39912155.00 35339730.00 L 39912155.00 37153543.08 L 40246456.08 37487845.00 L 40760270.00 37487845.00 L 40799109.00 37449006.00 A 181596.91 181596.91 0 1 1 40799109.00 37750994.00  zM 32750000.00 38000007.27 m -363099.23 0 a 363099.23 363099.23 0 1 1 726198.46 0a 363099.23 363099.23 0 1 1 -726198.46 0M 33750000.00 38000007.27 m -363099.23 0 a 363099.23 363099.23 0 1 1 726198.46 0a 363099.23 363099.23 0 1 1 -726198.46 0M 34750000.00 38000007.27 m -363099.23 0 a 363099.23 363099.23 0 1 1 726198.46 0a 363099.23 363099.23 0 1 1 -726198.46 0M 35450000.00 37950000.00 L 35350000.00 37950000.00 L 35350000.00 37600000.00 L 35700000.00 37600000.00 L 35700000.00 37700000.00 L 35450000.00 37700000.00 L 35450000.00 37950000.00  zM 35700000.00 38400000.00 L 35350000.00 38400000.00 L 35350000.00 38050000.00 L 35450000.00 38050000.00 L 35450000.00 38300000.00 L 35700000.00 38300000.00 L 35700000.00 38400000.00  zM 35749998.90 38000001.70 m -203916.30 0 a 203916.30 203916.30 0 1 1 407832.60 0a 203916.30 203916.30 0 1 1 -407832.60 0M 36150000.00 37950000.00 L 36050000.00 37950000.00 L 36050000.00 37700000.00 L 35800000.00 37700000.00 L 35800000.00 37600000.00 L 36150000.00 37600000.00 L 36150000.00 37950000.00  zM 36150000.00 38400000.00 L 35800000.00 38400000.00 L 35800000.00 38300000.00 L 36050000.00 38300000.00 L 36050000.00 38050000.00 L 36150000.00 38050000.00 L 36150000.00 38400000.00  zM 37100000.00 38499995.22 m -231781.14 0 a 231781.14 231781.14 0 1 1 463562.29 0a 231781.14 231781.14 0 1 1 -463562.29 0M 42100000.00 37499995.22 m -231781.14 0 a 231781.14 231781.14 0 1 1 463562.29 0a 231781.14 231781.14 0 1 1 -463562.29 0"/>
</g>
</svg>
