<svg width="70.104mm" height="68.58mm" viewBox="0 0 27600000 27000000"  version="1.1" xmlns="http://www.w3.org/2000/svg" xmlns:xlink="http://www.w3.org/1999/xlink">
<desc>
Origin 16000000 13000000 Bound 17000000 13500000 27600000 27000000
</desc>
<g fill-rule="evenodd" fill="rgb(255, 0, 255)" stroke="black" stroke-width="1" transform="translate(0, 27000000) scale(1, -1) translate(-17000000, -13500000)">
<path id="N" d="M 44600000.00 13500000.00 L 17000000.00 13500000.00 L 17000000.00 33500000.00 L 29000000.00 33500000.00 L 29000000.00 37000000.00 L 32500000.00 40500000.00 L 44600000.00 40500000.00 L 44600000.00 13500000.00  zM 18000000.77 14499995.85 m -643101.15 0 a 643101.15 643101.15 0 1 1 1286202.30 0a 643101.15 643101.15 0 1 1 -1286202.30 0M 19499997.73 18000006.78 m -161201.22 0 a 161201.22 161201.22 0 1 1 322402.43 0a 161201.22 161201.22 0 1 1 -322402.43 0M 21499997.73 18000006.78 m -161201.22 0 a 161201.22 161201.22 0 1 1 322402.43 0a 161201.22 161201.22 0 1 1 -322402.43 0M 18999997.73 19000006.78 m -161201.22 0 a 161201.22 161201.22 0 1 1 322402.43 0a 161201.22 161201.22 0 1 1 -322402.43 0M 19999997.73 19000006.78 m -161201.22 0 a 161201.22 161201.22 0 1 1 322402.43 0a 161201.22 161201.22 0 1 1 -322402.43 0M 21499997.73 18500006.78 m -161201.22 0 a 161201.22 161201.22 0 1 1 322402.43 0a 161201.22 161201.22 0 1 1 -322402.43 0M 21999997.73 19000006.78 m -161201.22 0 a 161201.22 161201.22 0 1 1 322402.43 0a 161201.22 161201.22 0 1 1 -322402.43 0M 21999997.73 19400006.78 m -161201.22 0 a 161201.22 161201.22 0 1 1 322402.43 0a 161201.22 161201.22 0 1 1 -322402.43 0M 22999997.73 19000006.78 m -161201.22 0 a 161201.22 161201.22 0 1 1 322402.43 0a 161201.22 161201.22 0 1 1 -322402.43 0M 23999997.73 19000006.78 m -161201.22 0 a 161201.22 161201.22 0 1 1 322402.43 0a 161201.22 161201.22 0 1 1 -322402.43 0M 25066929.43 18093701.13 m -201348.87 0 a 201348.87 201348.87 0 1 1 402697.73 0a 201348.87 201348.87 0 1 1 -402697.73 0M 19499997.73 20000006.78 m -161201.22 0 a 161201.22 161201.22 0 1 1 322402.43 0a 161201.22 161201.22 0 1 1 -322402.43 0M 18999997.73 21000006.78 m -161201.22 0 a 161201.22 161201.22 0 1 1 322402.43 0a 161201.22 161201.22 0 1 1 -322402.43 0M 19999997.73 21000006.78 m -161201.22 0 a 161201.22 161201.22 0 1 1 322402.43 0a 161201.22 161201.22 0 1 1 -322402.43 0M 20499997.73 20000006.78 m -161201.22 0 a 161201.22 161201.22 0 1 1 322402.43 0a 161201.22 161201.22 0 1 1 -322402.43 0M 20999997.73 21000006.78 m -161201.22 0 a 161201.22 161201.22 0 1 1 322402.43 0a 161201.22 161201.22 0 1 1 -322402.43 0M 21499997.73 20000006.78 m -161201.22 0 a 161201.22 161201.22 0 1 1 322402.43 0a 161201.22 161201.22 0 1 1 -322402.43 0M 21999997.73 19800006.78 m -161201.22 0 a 161201.22 161201.22 0 1 1 322402.43 0a 161201.22 161201.22 0 1 1 -322402.43 0M 22499997.73 20000006.78 m -161201.22 0 a 161201.22 161201.22 0 1 1 322402.43 0a 161201.22 161201.22 0 1 1 -322402.43 0M 23499997.73 22000006.78 m -161201.22 0 a 161201.22 161201.22 0 1 1 322402.43 0a 161201.22 161201.22 0 1 1 -322402.43 0M 24499997.73 22000006.78 m -161201.22 0 a 161201.22 161201.22 0 1 1 322402.43 0a 161201.22 161201.22 0 1 1 -322402.43 0M 26999997.73 15500006.78 m -161201.22 0 a 161201.22 161201.22 0 1 1 322402.43 0a 161201.22 161201.22 0 1 1 -322402.43 0M 25933071.43 17660630.13 m -201348.87 0 a 201348.87 201348.87 0 1 1 402697.73 0a 201348.87 201348.87 0 1 1 -402697.73 0M 25066929.43 17660630.13 m -201348.87 0 a 201348.87 201348.87 0 1 1 402697.73 0a 201348.87 201348.87 0 1 1 -402697.73 0M 25500000.43 17660630.13 m -201348.87 0 a 201348.87 201348.87 0 1 1 402697.73 0a 201348.87 201348.87 0 1 1 -402697.73 0M 25933071.43 18093701.13 m -201348.87 0 a 201348.87 201348.87 0 1 1 402697.73 0a 201348.87 201348.87 0 1 1 -402697.73 0M 25500000.43 18093701.13 m -201348.87 0 a 201348.87 201348.87 0 1 1 402697.73 0a 201348.87 201348.87 0 1 1 -402697.73 0M 25499997.73 20000006.78 m -161201.22 0 a 161201.22 161201.22 0 1 1 322402.43 0a 161201.22 161201.22 0 1 1 -322402.43 0M 26499997.73 20000006.78 m -161201.22 0 a 161201.22 161201.22 0 1 1 322402.43 0a 161201.22 161201.22 0 1 1 -322402.43 0M 25499997.73 22000006.78 m -161201.22 0 a 161201.22 161201.22 0 1 1 322402.43 0a 161201.22 161201.22 0 1 1 -322402.43 0M 27499997.73 22000006.78 m -161201.22 0 a 161201.22 161201.22 0 1 1 322402.43 0a 161201.22 161201.22 0 1 1 -322402.43 0M 28999997.73 16500006.78 m -161201.22 0 a 161201.22 161201.22 0 1 1 322402.43 0a 161201.22 161201.22 0 1 1 -322402.43 0M 31999997.73 15000006.78 m -161201.22 0 a 161201.22 161201.22 0 1 1 322402.43 0a 161201.22 161201.22 0 1 1 -322402.43 0M 32499997.73 16000006.78 m -161201.22 0 a 161201.22 161201.22 0 1 1 322402.43 0a 161201.22 161201.22 0 1 1 -322402.43 0M 32999997.73 15000006.78 m -161201.22 0 a 161201.22 161201.22 0 1 1 322402.43 0a 161201.22 161201.22 0 1 1 -322402.43 0M 33499997.73 16000006.78 m -161201.22 0 a 161201.22 161201.22 0 1 1 322402.43 0a 161201.22 161201.22 0 1 1 -322402.43 0M 27999997.73 19000006.78 m -161201.22 0 a 161201.22 161201.22 0 1 1 322402.43 0a 161201.22 161201.22 0 1 1 -322402.43 0M 28999997.73 19000006.78 m -161201.22 0 a 161201.22 161201.22 0 1 1 322402.43 0a 161201.22 161201.22 0 1 1 -322402.43 0M 32999997.73 17000006.78 m -161201.22 0 a 161201.22 161201.22 0 1 1 322402.43 0a 161201.22 161201.22 0 1 1 -322402.43 0M 28499997.73 22000006.78 m -161201.22 0 a 161201.22 161201.22 0 1 1 322402.43 0a 161201.22 161201.22 0 1 1 -322402.43 0M 31600000.00 22538792.00 L 31632926.98 22545341.42 L 31586009.00 22513991.00 A 161201.22 161201.22 0 0 1 31638308.00 22251063.00 L 31643652.19 22250000.00 L 31638308.00 22248937.00 A 161217.26 161217.26 0 1 1 31761692.00 22248937.00 L 31756347.81 22250000.00 L 31761692.00 22251063.00 A 161217.26 161217.26 0 0 1 31700000.00 22561208.00 L 31667073.02 22554658.58 L 31713991.00 22586009.00 A 161201.22 161201.22 0 1 1 31600000.00 22538792.00  zM 18999997.73 23000006.78 m -161201.22 0 a 161201.22 161201.22 0 1 1 322402.43 0a 161201.22 161201.22 0 1 1 -322402.43 0M 20499997.73 24000006.78 m -161201.22 0 a 161201.22 161201.22 0 1 1 322402.43 0a 161201.22 161201.22 0 1 1 -322402.43 0M 18999997.73 25000006.78 m -161201.22 0 a 161201.22 161201.22 0 1 1 322402.43 0a 161201.22 161201.22 0 1 1 -322402.43 0M 18999997.73 27000006.78 m -161201.22 0 a 161201.22 161201.22 0 1 1 322402.43 0a 161201.22 161201.22 0 1 1 -322402.43 0M 20499997.73 26000006.78 m -161201.22 0 a 161201.22 161201.22 0 1 1 322402.43 0a 161201.22 161201.22 0 1 1 -322402.43 0M 20999997.73 27000006.78 m -161201.22 0 a 161201.22 161201.22 0 1 1 322402.43 0a 161201.22 161201.22 0 1 1 -322402.43 0M 21499997.73 26000006.78 m -161201.22 0 a 161201.22 161201.22 0 1 1 322402.43 0a 161201.22 161201.22 0 1 1 -322402.43 0M 21999997.73 27000006.78 m -161201.22 0 a 161201.22 161201.22 0 1 1 322402.43 0a 161201.22 161201.22 0 1 1 -322402.43 0M 22499997.73 26000006.78 m -161201.22 0 a 161201.22 161201.22 0 1 1 322402.43 0a 161201.22 161201.22 0 1 1 -322402.43 0M 23499997.73 26000006.78 m -161201.22 0 a 161201.22 161201.22 0 1 1 322402.43 0a 161201.22 161201.22 0 1 1 -322402.43 0M 22999997.73 27000006.78 m -161201.22 0 a 161201.22 161201.22 0 1 1 322402.43 0a 161201.22 161201.22 0 1 1 -322402.43 0M 18999997.73 29000006.78 m -161201.22 0 a 161201.22 161201.22 0 1 1 322402.43 0a 161201.22 161201.22 0 1 1 -322402.43 0M 20499997.73 28000006.78 m -161201.22 0 a 161201.22 161201.22 0 1 1 322402.43 0a 161201.22 161201.22 0 1 1 -322402.43 0M 20499997.73 30000006.78 m -161201.22 0 a 161201.22 161201.22 0 1 1 322402.43 0a 161201.22 161201.22 0 1 1 -322402.43 0M 21499997.73 28000006.78 m -161201.22 0 a 161201.22 161201.22 0 1 1 322402.43 0a 161201.22 161201.22 0 1 1 -322402.43 0M 20999997.73 29000006.78 m -161201.22 0 a 161201.22 161201.22 0 1 1 322402.43 0a 161201.22 161201.22 0 1 1 -322402.43 0M 21999997.73 29000006.78 m -161201.22 0 a 161201.22 161201.22 0 1 1 322402.43 0a 161201.22 161201.22 0 1 1 -322402.43 0M 21499997.73 30000006.78 m -161201.22 0 a 161201.22 161201.22 0 1 1 322402.43 0a 161201.22 161201.22 0 1 1 -322402.43 0M 22499997.73 30000006.78 m -161201.22 0 a 161201.22 161201.22 0 1 1 322402.43 0a 161201.22 161201.22 0 1 1 -322402.43 0M 22999997.73 29000006.78 m -161201.22 0 a 161201.22 161201.22 0 1 1 322402.43 0a 161201.22 161201.22 0 1 1 -322402.43 0M 23499997.73 30000006.78 m -161201.22 0 a 161201.22 161201.22 0 1 1 322402.43 0a 161201.22 161201.22 0 1 1 -322402.43 0M 23999997.73 27000006.78 m -161201.22 0 a 161201.22 161201.22 0 1 1 322402.43 0a 161201.22 161201.22 0 1 1 -322402.43 0M 23999997.73 29000006.78 m -161201.22 0 a 161201.22 161201.22 0 1 1 322402.43 0a 161201.22 161201.22 0 1 1 -322402.43 0M 27499997.73 30000006.78 m -161201.22 0 a 161201.22 161201.22 0 1 1 322402.43 0a 161201.22 161201.22 0 1 1 -322402.43 0M 28499997.73 26000006.78 m -161201.22 0 a 161201.22 161201.22 0 1 1 322402.43 0a 161201.22 161201.22 0 1 1 -322402.43 0M 28499997.73 28000006.78 m -161201.22 0 a 161201.22 161201.22 0 1 1 322402.43 0a 161201.22 161201.22 0 1 1 -322402.43 0M 28999997.73 23000006.78 m -161201.22 0 a 161201.22 161201.22 0 1 1 322402.43 0a 161201.22 161201.22 0 1 1 -322402.43 0M 28499997.73 24000006.78 m -161201.22 0 a 161201.22 161201.22 0 1 1 322402.43 0a 161201.22 161201.22 0 1 1 -322402.43 0M 32199997.73 25000006.78 m -161201.22 0 a 161201.22 161201.22 0 1 1 322402.43 0a 161201.22 161201.22 0 1 1 -322402.43 0M 28999997.73 27000006.78 m -161201.22 0 a 161201.22 161201.22 0 1 1 322402.43 0a 161201.22 161201.22 0 1 1 -322402.43 0M 28999997.73 29000006.78 m -161201.22 0 a 161201.22 161201.22 0 1 1 322402.43 0a 161201.22 161201.22 0 1 1 -322402.43 0M 24499997.73 30000006.78 m -161201.22 0 a 161201.22 161201.22 0 1 1 322402.43 0a 161201.22 161201.22 0 1 1 -322402.43 0M 25499997.73 30000006.78 m -161201.22 0 a 161201.22 161201.22 0 1 1 322402.43 0a 161201.22 161201.22 0 1 1 -322402.43 0M 26499997.73 30000006.78 m -161201.22 0 a 161201.22 161201.22 0 1 1 322402.43 0a 161201.22 161201.22 0 1 1 -322402.43 0M 30499997.73 32400006.78 m -161201.22 0 a 161201.22 161201.22 0 1 1 322402.43 0a 161201.22 161201.22 0 1 1 -322402.43 0M 31399997.73 33000006.78 m -161201.22 0 a 161201.22 161201.22 0 1 1 322402.43 0a 161201.22 161201.22 0 1 1 -322402.43 0M 32099997.73 30900006.78 m -161201.22 0 a 161201.22 161201.22 0 1 1 322402.43 0a 161201.22 161201.22 0 1 1 -322402.43 0M 33699997.73 31700006.78 m -161201.22 0 a 161201.22 161201.22 0 1 1 322402.43 0a 161201.22 161201.22 0 1 1 -322402.43 0M 31799997.73 33300006.78 m -161201.22 0 a 161201.22 161201.22 0 1 1 322402.43 0a 161201.22 161201.22 0 1 1 -322402.43 0M 32999997.73 35600006.78 m -161201.22 0 a 161201.22 161201.22 0 1 1 322402.43 0a 161201.22 161201.22 0 1 1 -322402.43 0M 32749999.04 38000000.73 m -342933.27 0 a 342933.27 342933.27 0 1 1 685866.54 0a 342933.27 342933.27 0 1 1 -685866.54 0M 33999997.73 15000006.78 m -161201.22 0 a 161201.22 161201.22 0 1 1 322402.43 0a 161201.22 161201.22 0 1 1 -322402.43 0M 34499997.73 16000006.78 m -161201.22 0 a 161201.22 161201.22 0 1 1 322402.43 0a 161201.22 161201.22 0 1 1 -322402.43 0M 34999997.73 15000006.78 m -161201.22 0 a 161201.22 161201.22 0 1 1 322402.43 0a 161201.22 161201.22 0 1 1 -322402.43 0M 35999997.73 15000006.78 m -161201.22 0 a 161201.22 161201.22 0 1 1 322402.43 0a 161201.22 161201.22 0 1 1 -322402.43 0M 35499997.73 16000006.78 m -161201.22 0 a 161201.22 161201.22 0 1 1 322402.43 0a 161201.22 161201.22 0 1 1 -322402.43 0M 34999997.73 17000006.78 m -161201.22 0 a 161201.22 161201.22 0 1 1 322402.43 0a 161201.22 161201.22 0 1 1 -322402.43 0M 36999997.73 15000006.78 m -161201.22 0 a 161201.22 161201.22 0 1 1 322402.43 0a 161201.22 161201.22 0 1 1 -322402.43 0M 36499997.73 16000006.78 m -161201.22 0 a 161201.22 161201.22 0 1 1 322402.43 0a 161201.22 161201.22 0 1 1 -322402.43 0M 35999997.73 17000006.78 m -161201.22 0 a 161201.22 161201.22 0 1 1 322402.43 0a 161201.22 161201.22 0 1 1 -322402.43 0M 37999997.73 15000006.78 m -161201.22 0 a 161201.22 161201.22 0 1 1 322402.43 0a 161201.22 161201.22 0 1 1 -322402.43 0M 37499997.73 16000006.78 m -161201.22 0 a 161201.22 161201.22 0 1 1 322402.43 0a 161201.22 161201.22 0 1 1 -322402.43 0M 38999997.73 15000006.78 m -161201.22 0 a 161201.22 161201.22 0 1 1 322402.43 0a 161201.22 161201.22 0 1 1 -322402.43 0M 39499997.73 16000006.78 m -161201.22 0 a 161201.22 161201.22 0 1 1 322402.43 0a 161201.22 161201.22 0 1 1 -322402.43 0M 39999997.73 15000006.78 m -161201.22 0 a 161201.22 161201.22 0 1 1 322402.43 0a 161201.22 161201.22 0 1 1 -322402.43 0M 38499997.73 16000006.78 m -161201.22 0 a 161201.22 161201.22 0 1 1 322402.43 0a 161201.22 161201.22 0 1 1 -322402.43 0M 39999997.73 17000006.78 m -161201.22 0 a 161201.22 161201.22 0 1 1 322402.43 0a 161201.22 161201.22 0 1 1 -322402.43 0M 40999997.73 15000006.78 m -161201.22 0 a 161201.22 161201.22 0 1 1 322402.43 0a 161201.22 161201.22 0 1 1 -322402.43 0M 41499997.73 16000006.78 m -161201.22 0 a 161201.22 161201.22 0 1 1 322402.43 0a 161201.22 161201.22 0 1 1 -322402.43 0M 41999997.73 15000006.78 m -161201.22 0 a 161201.22 161201.22 0 1 1 322402.43 0a 161201.22 161201.22 0 1 1 -322402.43 0M 43600000.77 14599995.85 m -643101.15 0 a 643101.15 643101.15 0 1 1 1286202.30 0a 643101.15 643101.15 0 1 1 -1286202.30 0M 42499997.73 16000006.78 m -161201.22 0 a 161201.22 161201.22 0 1 1 322402.43 0a 161201.22 161201.22 0 1 1 -322402.43 0M 36999997.73 17000006.78 m -161201.22 0 a 161201.22 161201.22 0 1 1 322402.43 0a 161201.22 161201.22 0 1 1 -322402.43 0M 36475585.73 21754731.78 m -161201.22 0 a 161201.22 161201.22 0 1 1 322402.43 0a 161201.22 161201.22 0 1 1 -322402.43 0M 35723462.73 21754731.78 m -161201.22 0 a 161201.22 161201.22 0 1 1 322402.43 0a 161201.22 161201.22 0 1 1 -322402.43 0M 36266536.78 22888187.48 m -163137.52 0 a 163137.52 163137.52 0 1 1 326275.05 0a 163137.52 163137.52 0 1 1 -326275.05 0M 37499997.73 22000006.78 m -161201.22 0 a 161201.22 161201.22 0 1 1 322402.43 0a 161201.22 161201.22 0 1 1 -322402.43 0M 38999997.73 17000006.78 m -161201.22 0 a 161201.22 161201.22 0 1 1 322402.43 0a 161201.22 161201.22 0 1 1 -322402.43 0M 41999997.73 17000006.78 m -161201.22 0 a 161201.22 161201.22 0 1 1 322402.43 0a 161201.22 161201.22 0 1 1 -322402.43 0M 41799997.73 21200006.78 m -161201.22 0 a 161201.22 161201.22 0 1 1 322402.43 0a 161201.22 161201.22 0 1 1 -322402.43 0M 39699997.73 22600006.78 m -161201.22 0 a 161201.22 161201.22 0 1 1 322402.43 0a 161201.22 161201.22 0 1 1 -322402.43 0M 41433109.73 21209370.78 m -161201.22 0 a 161201.22 161201.22 0 1 1 322402.43 0a 161201.22 161201.22 0 1 1 -322402.43 0M 35400394.78 22888187.48 m -163137.52 0 a 163137.52 163137.52 0 1 1 326275.05 0a 163137.52 163137.52 0 1 1 -326275.05 0M 35400394.78 23321258.48 m -163137.52 0 a 163137.52 163137.52 0 1 1 326275.05 0a 163137.52 163137.52 0 1 1 -326275.05 0M 35833465.78 22888187.48 m -163137.52 0 a 163137.52 163137.52 0 1 1 326275.05 0a 163137.52 163137.52 0 1 1 -326275.05 0M 35833465.78 23321258.48 m -163137.52 0 a 163137.52 163137.52 0 1 1 326275.05 0a 163137.52 163137.52 0 1 1 -326275.05 0M 34199997.73 24995282.78 m -161201.22 0 a 161201.22 161201.22 0 1 1 322402.43 0a 161201.22 161201.22 0 1 1 -322402.43 0M 36699606.78 22888187.48 m -163137.52 0 a 163137.52 163137.52 0 1 1 326275.05 0a 163137.52 163137.52 0 1 1 -326275.05 0M 36266536.78 23321258.48 m -163137.52 0 a 163137.52 163137.52 0 1 1 326275.05 0a 163137.52 163137.52 0 1 1 -326275.05 0M 36699606.78 23321258.48 m -163137.52 0 a 163137.52 163137.52 0 1 1 326275.05 0a 163137.52 163137.52 0 1 1 -326275.05 0M 38649997.73 24645282.78 m -161201.22 0 a 161201.22 161201.22 0 1 1 322402.43 0a 161201.22 161201.22 0 1 1 -322402.43 0M 39799997.73 24400006.78 m -161201.22 0 a 161201.22 161201.22 0 1 1 322402.43 0a 161201.22 161201.22 0 1 1 -322402.43 0M 34599997.73 28000006.78 m -161201.22 0 a 161201.22 161201.22 0 1 1 322402.43 0a 161201.22 161201.22 0 1 1 -322402.43 0M 35299997.73 27300006.78 m -161201.22 0 a 161201.22 161201.22 0 1 1 322402.43 0a 161201.22 161201.22 0 1 1 -322402.43 0M 35670312.73 29100006.78 m -161201.22 0 a 161201.22 161201.22 0 1 1 322402.43 0a 161201.22 161201.22 0 1 1 -322402.43 0M 35899997.73 28700006.78 m -161201.22 0 a 161201.22 161201.22 0 1 1 322402.43 0a 161201.22 161201.22 0 1 1 -322402.43 0M 36699997.73 28600006.78 m -161201.22 0 a 161201.22 161201.22 0 1 1 322402.43 0a 161201.22 161201.22 0 1 1 -322402.43 0M 36799997.73 29200006.78 m -161201.22 0 a 161201.22 161201.22 0 1 1 322402.43 0a 161201.22 161201.22 0 1 1 -322402.43 0M 37999997.73 27200006.78 m -161201.22 0 a 161201.22 161201.22 0 1 1 322402.43 0a 161201.22 161201.22 0 1 1 -322402.43 0M 37199997.73 28200006.78 m -161201.22 0 a 161201.22 161201.22 0 1 1 322402.43 0a 161201.22 161201.22 0 1 1 -322402.43 0M 37899997.73 28500006.78 m -161201.22 0 a 161201.22 161201.22 0 1 1 322402.43 0a 161201.22 161201.22 0 1 1 -322402.43 0M 38199997.73 26800006.78 m -161201.22 0 a 161201.22 161201.22 0 1 1 322402.43 0a 161201.22 161201.22 0 1 1 -322402.43 0M 40399997.73 29600006.78 m -161201.22 0 a 161201.22 161201.22 0 1 1 322402.43 0a 161201.22 161201.22 0 1 1 -322402.43 0M 35800001.63 31799994.96 m -292507.04 0 a 292507.04 292507.04 0 1 1 585014.09 0a 292507.04 292507.04 0 1 1 -585014.09 0M 34928107.73 33800006.78 m -161201.22 0 a 161201.22 161201.22 0 1 1 322402.43 0a 161201.22 161201.22 0 1 1 -322402.43 0M 36270863.73 33800006.78 m -161201.22 0 a 161201.22 161201.22 0 1 1 322402.43 0a 161201.22 161201.22 0 1 1 -322402.43 0M 37799997.73 32800006.78 m -161201.22 0 a 161201.22 161201.22 0 1 1 322402.43 0a 161201.22 161201.22 0 1 1 -322402.43 0M 38499997.73 32700006.78 m -161201.22 0 a 161201.22 161201.22 0 1 1 322402.43 0a 161201.22 161201.22 0 1 1 -322402.43 0M 38699997.73 31500006.78 m -161201.22 0 a 161201.22 161201.22 0 1 1 322402.43 0a 161201.22 161201.22 0 1 1 -322402.43 0M 40399997.73 33200006.78 m -161201.22 0 a 161201.22 161201.22 0 1 1 322402.43 0a 161201.22 161201.22 0 1 1 -322402.43 0M 40599997.73 32300006.78 m -161201.22 0 a 161201.22 161201.22 0 1 1 322402.43 0a 161201.22 161201.22 0 1 1 -322402.43 0M 39099997.73 33700006.78 m -161201.22 0 a 161201.22 161201.22 0 1 1 322402.43 0a 161201.22 161201.22 0 1 1 -322402.43 0M 40699997.73 34100006.78 m -161201.22 0 a 161201.22 161201.22 0 1 1 322402.43 0a 161201.22 161201.22 0 1 1 -322402.43 0M 33899997.73 36148116.78 m -161201.22 0 a 161201.22 161201.22 0 1 1 322402.43 0a 161201.22 161201.22 0 1 1 -322402.43 0M 34663017.73 35988116.78 m -161201.22 0 a 161201.22 161201.22 0 1 1 322402.43 0a 161201.22 161201.22 0 1 1 -322402.43 0M 35674432.73 36074441.78 m -161201.22 0 a 161201.22 161201.22 0 1 1 322402.43 0a 161201.22 161201.22 0 1 1 -322402.43 0M 35699997.73 34200006.78 m -161201.22 0 a 161201.22 161201.22 0 1 1 322402.43 0a 161201.22 161201.22 0 1 1 -322402.43 0M 36799997.73 35600006.78 m -161201.22 0 a 161201.22 161201.22 0 1 1 322402.43 0a 161201.22 161201.22 0 1 1 -322402.43 0M 33749999.04 38000000.73 m -342933.27 0 a 342933.27 342933.27 0 1 1 685866.54 0a 342933.27 342933.27 0 1 1 -685866.54 0M 34749999.04 38000000.73 m -342933.27 0 a 342933.27 342933.27 0 1 1 685866.54 0a 342933.27 342933.27 0 1 1 -685866.54 0M 36090000.00 38340000.00 L 35410000.00 38340000.00 L 35410000.00 37660000.00 L 36090000.00 37660000.00 L 36090000.00 38340000.00  zM 36899997.73 36500006.78 m -161201.22 0 a 161201.22 161201.22 0 1 1 322402.43 0a 161201.22 161201.22 0 1 1 -322402.43 0M 37099999.05 38500002.89 m -170598.11 0 a 170598.11 170598.11 0 1 1 341196.22 0a 170598.11 170598.11 0 1 1 -341196.22 0M 37400000.44 35199998.65 m -180637.35 0 a 180637.35 180637.35 0 1 1 361274.69 0a 180637.35 180637.35 0 1 1 -361274.69 0M 38799997.73 34400006.78 m -161201.22 0 a 161201.22 161201.22 0 1 1 322402.43 0a 161201.22 161201.22 0 1 1 -322402.43 0M 39400000.44 35599998.65 m -180637.35 0 a 180637.35 180637.35 0 1 1 361274.69 0a 180637.35 180637.35 0 1 1 -361274.69 0M 37400000.44 35999998.65 m -180637.35 0 a 180637.35 180637.35 0 1 1 361274.69 0a 180637.35 180637.35 0 1 1 -361274.69 0M 39199997.73 38500006.78 m -161201.22 0 a 161201.22 161201.22 0 1 1 322402.43 0a 161201.22 161201.22 0 1 1 -322402.43 0M 39799997.73 35200006.78 m -161201.22 0 a 161201.22 161201.22 0 1 1 322402.43 0a 161201.22 161201.22 0 1 1 -322402.43 0M 42099999.05 37500002.89 m -170598.11 0 a 170598.11 170598.11 0 1 1 341196.22 0a 170598.11 170598.11 0 1 1 -341196.22 0M 40899997.73 37600006.78 m -161201.22 0 a 161201.22 161201.22 0 1 1 322402.43 0a 161201.22 161201.22 0 1 1 -322402.43 0M 39799997.73 38100006.78 m -161201.22 0 a 161201.22 161201.22 0 1 1 322402.43 0a 161201.22 161201.22 0 1 1 -322402.43 0M 43600000.77 39399995.85 m -643101.15 0 a 643101.15 643101.15 0 1 1 1286202.30 0a 643101.15 643101.15 0 1 1 -1286202.30 0"/>
</g>
</svg>
