<svg width="70.104mm" height="68.58mm" viewBox="0 0 27600000 27000000"  version="1.1" xmlns="http://www.w3.org/2000/svg" xmlns:xlink="http://www.w3.org/1999/xlink">
<desc>
Origin 16000000 13000000 Bound 17000000 13500000 27600000 27000000
</desc>
<g fill-rule="evenodd" fill="rgb(128, 0, 128)" stroke="black" stroke-width="1" transform="translate(0, 27000000) scale(1, -1) translate(-17000000, -13500000)">
<path id="N" d="M 44600000.00 13500000.00 L 17000000.00 13500000.00 L 17000000.00 33500000.00 L 29000000.00 33500000.00 L 29000000.00 37000000.00 L 32500000.00 40500000.00 L 44600000.00 40500000.00 L 44600000.00 13500000.00  zM 18000000.77 14499995.85 m -643101.15 0 a 643101.15 643101.15 0 1 1 1286202.30 0a 643101.15 643101.15 0 1 1 -1286202.30 0M 19832283.00 17385039.00 L 19300787.00 17385039.00 L 19300787.00 16243307.00 L 19832283.00 16243307.00 L 19832283.00 17385039.00  zM 19499997.73 18000006.78 m -161201.22 0 a 161201.22 161201.22 0 1 1 322402.43 0a 161201.22 161201.22 0 1 1 -322402.43 0M 18999997.73 19000006.78 m -161201.22 0 a 161201.22 161201.22 0 1 1 322402.43 0a 161201.22 161201.22 0 1 1 -322402.43 0M 19999997.73 19000006.78 m -161201.22 0 a 161201.22 161201.22 0 1 1 322402.43 0a 161201.22 161201.22 0 1 1 -322402.43 0M 21499997.73 18500006.78 m -161201.22 0 a 161201.22 161201.22 0 1 1 322402.43 0a 161201.22 161201.22 0 1 1 -322402.43 0M 19499997.73 20000006.78 m -161201.22 0 a 161201.22 161201.22 0 1 1 322402.43 0a 161201.22 161201.22 0 1 1 -322402.43 0M 20499997.73 20000006.78 m -161201.22 0 a 161201.22 161201.22 0 1 1 322402.43 0a 161201.22 161201.22 0 1 1 -322402.43 0M 20922834.00 19451968.00 L 20489764.00 19451968.00 L 20489764.00 18881102.00 L 20922834.00 18881102.00 L 20922834.00 19451968.00  zM 21710236.00 19451968.00 L 21277166.00 19451968.00 L 21277166.00 18881102.00 L 21710236.00 18881102.00 L 21710236.00 19451968.00  zM 21499997.73 20000006.78 m -161201.22 0 a 161201.22 161201.22 0 1 1 322402.43 0a 161201.22 161201.22 0 1 1 -322402.43 0M 22899213.00 17385039.00 L 22367717.00 17385039.00 L 22367717.00 16243307.00 L 22899213.00 16243307.00 L 22899213.00 17385039.00  zM 21499997.73 18000006.78 m -161201.22 0 a 161201.22 161201.22 0 1 1 322402.43 0a 161201.22 161201.22 0 1 1 -322402.43 0M 23779553.00 19102392.00 L 23420447.00 19102392.00 L 23420447.00 18725172.00 L 23779553.00 18725172.00 L 23779553.00 19102392.00  zM 21999997.73 19000006.78 m -161201.22 0 a 161201.22 161201.22 0 1 1 322402.43 0a 161201.22 161201.22 0 1 1 -322402.43 0M 22999997.73 19000006.78 m -161201.22 0 a 161201.22 161201.22 0 1 1 322402.43 0a 161201.22 161201.22 0 1 1 -322402.43 0M 21999997.73 19400006.78 m -161201.22 0 a 161201.22 161201.22 0 1 1 322402.43 0a 161201.22 161201.22 0 1 1 -322402.43 0M 21999997.73 19800006.78 m -161201.22 0 a 161201.22 161201.22 0 1 1 322402.43 0a 161201.22 161201.22 0 1 1 -322402.43 0M 22499997.73 20000006.78 m -161201.22 0 a 161201.22 161201.22 0 1 1 322402.43 0a 161201.22 161201.22 0 1 1 -322402.43 0M 23999997.73 19000006.78 m -161201.22 0 a 161201.22 161201.22 0 1 1 322402.43 0a 161201.22 161201.22 0 1 1 -322402.43 0M 23779553.00 19674828.00 L 23420447.00 19674828.00 L 23420447.00 19297608.00 L 23779553.00 19297608.00 L 23779553.00 19674828.00  zM 18999997.73 21000006.78 m -161201.22 0 a 161201.22 161201.22 0 1 1 322402.43 0a 161201.22 161201.22 0 1 1 -322402.43 0M 19999997.73 21000006.78 m -161201.22 0 a 161201.22 161201.22 0 1 1 322402.43 0a 161201.22 161201.22 0 1 1 -322402.43 0M 20999997.73 21000006.78 m -161201.22 0 a 161201.22 161201.22 0 1 1 322402.43 0a 161201.22 161201.22 0 1 1 -322402.43 0M 20195000.00 23000000.00 L 19245000.00 23000000.00 L 19245000.00 21500000.00 L 20195000.00 21500000.00 L 20195000.00 23000000.00  zM 18999997.73 23000006.78 m -161201.22 0 a 161201.22 161201.22 0 1 1 322402.43 0a 161201.22 161201.22 0 1 1 -322402.43 0M 20499997.73 24000006.78 m -161201.22 0 a 161201.22 161201.22 0 1 1 322402.43 0a 161201.22 161201.22 0 1 1 -322402.43 0M 22650000.00 21620000.00 L 21690000.00 21620000.00 L 21690000.00 21060000.00 L 22650000.00 21060000.00 L 22650000.00 21620000.00  zM 22650000.00 22530000.00 L 21690000.00 22530000.00 L 21690000.00 21970000.00 L 22650000.00 21970000.00 L 22650000.00 22530000.00  zM 22650000.00 23440000.00 L 21690000.00 23440000.00 L 21690000.00 22880000.00 L 22650000.00 22880000.00 L 22650000.00 23440000.00  zM 23499997.73 22000006.78 m -161201.22 0 a 161201.22 161201.22 0 1 1 322402.43 0a 161201.22 161201.22 0 1 1 -322402.43 0M 24499997.73 22000006.78 m -161201.22 0 a 161201.22 161201.22 0 1 1 322402.43 0a 161201.22 161201.22 0 1 1 -322402.43 0M 20396299.00 25652598.00 L 19154883.00 25652598.00 L 19154883.00 25031798.70 L 19148937.00 25061692.00 A 161217.26 161217.26 0 1 1 19148937.00 24938308.00 L 19154883.00 24968201.30 L 19154883.00 24647402.00 L 20396299.00 24647402.00 L 20396299.00 25652598.00  zM 20499997.73 26000006.78 m -161201.22 0 a 161201.22 161201.22 0 1 1 322402.43 0a 161201.22 161201.22 0 1 1 -322402.43 0M 18999997.73 27000006.78 m -161201.22 0 a 161201.22 161201.22 0 1 1 322402.43 0a 161201.22 161201.22 0 1 1 -322402.43 0M 21499997.73 26000006.78 m -161201.22 0 a 161201.22 161201.22 0 1 1 322402.43 0a 161201.22 161201.22 0 1 1 -322402.43 0M 20999997.73 27000006.78 m -161201.22 0 a 161201.22 161201.22 0 1 1 322402.43 0a 161201.22 161201.22 0 1 1 -322402.43 0M 22345118.00 25652598.00 L 21103702.00 25652598.00 L 21103702.00 24647402.00 L 22345118.00 24647402.00 L 22345118.00 25652598.00  zM 22499997.73 26000006.78 m -161201.22 0 a 161201.22 161201.22 0 1 1 322402.43 0a 161201.22 161201.22 0 1 1 -322402.43 0M 22999997.73 27000006.78 m -161201.22 0 a 161201.22 161201.22 0 1 1 322402.43 0a 161201.22 161201.22 0 1 1 -322402.43 0M 24396298.00 25652598.00 L 23154882.00 25652598.00 L 23154882.00 24647402.00 L 24396298.00 24647402.00 L 24396298.00 25652598.00  zM 23499997.73 26000006.78 m -161201.22 0 a 161201.22 161201.22 0 1 1 322402.43 0a 161201.22 161201.22 0 1 1 -322402.43 0M 25544724.00 16171496.00 L 24952914.00 16171496.00 L 24952914.00 15028504.00 L 25544724.00 15028504.00 L 25544724.00 16171496.00  zM 25088792.00 16971654.00 L 25088792.00 16637008.00 A 161201.22 161201.22 0 1 1 25411208.00 16637008.00 L 25411208.00 16971654.00 A 161201.22 161201.22 0 1 1 25088792.00 16971654.00  zM 24588792.00 16971654.00 L 24588792.00 16637008.00 A 161201.22 161201.22 0 1 1 24911208.00 16637008.00 L 24911208.00 16971654.00 A 161201.22 161201.22 0 1 1 24588792.00 16971654.00  zM 25588792.00 16971654.00 L 25588792.00 16637008.00 A 161201.22 161201.22 0 0 1 25911208.00 16637008.00 L 25911208.00 16971654.00 A 161201.22 161201.22 0 1 1 25588792.00 16971654.00  zM 26088792.00 16971654.00 L 26088792.00 16637008.00 A 161201.22 161201.22 0 1 1 26411208.00 16637008.00 L 26411208.00 16971654.00 A 161201.22 161201.22 0 1 1 26088792.00 16971654.00  zM 26199449.00 18450630.00 L 24800551.00 18450630.00 L 24800551.00 17303702.00 L 26199449.00 17303702.00 L 26199449.00 18450630.00  zM 24588792.00 19117323.00 L 24588792.00 18782677.00 A 161201.22 161201.22 0 1 1 24911208.00 18782677.00 L 24911208.00 19117323.00 A 161201.22 161201.22 0 1 1 24588792.00 19117323.00  zM 25088792.00 19117323.00 L 25088792.00 18782677.00 A 161201.22 161201.22 0 1 1 25411208.00 18782677.00 L 25411208.00 19117323.00 A 161201.22 161201.22 0 1 1 25088792.00 19117323.00  zM 25499997.73 20000006.78 m -161201.22 0 a 161201.22 161201.22 0 1 1 322402.43 0a 161201.22 161201.22 0 1 1 -322402.43 0M 25588792.00 19117323.00 L 25588792.00 18782677.00 A 161201.22 161201.22 0 0 1 25911208.00 18782677.00 L 25911208.00 19117323.00 A 161201.22 161201.22 0 0 1 25588792.00 19117323.00  zM 26088792.00 19117323.00 L 26088792.00 18782677.00 A 161201.22 161201.22 0 1 1 26411208.00 18782677.00 L 26411208.00 19117323.00 A 161201.22 161201.22 0 0 1 26088792.00 19117323.00  zM 26999997.73 15500006.78 m -161201.22 0 a 161201.22 161201.22 0 1 1 322402.43 0a 161201.22 161201.22 0 1 1 -322402.43 0M 26647086.00 16171496.00 L 26055276.00 16171496.00 L 26055276.00 15028504.00 L 26647086.00 15028504.00 L 26647086.00 16171496.00  zM 27802392.00 16999238.00 L 27346432.00 16999238.00 L 27346432.00 16600762.00 L 27802392.00 16600762.00 L 27802392.00 16999238.00  zM 26499997.73 20000006.78 m -161201.22 0 a 161201.22 161201.22 0 1 1 322402.43 0a 161201.22 161201.22 0 1 1 -322402.43 0M 27999997.73 19000006.78 m -161201.22 0 a 161201.22 161201.22 0 1 1 322402.43 0a 161201.22 161201.22 0 1 1 -322402.43 0M 28453568.00 16999238.00 L 27997608.00 16999238.00 L 27997608.00 16600762.00 L 28453568.00 16600762.00 L 28453568.00 16999238.00  zM 28999997.73 16500006.78 m -161201.22 0 a 161201.22 161201.22 0 1 1 322402.43 0a 161201.22 161201.22 0 1 1 -322402.43 0M 32099446.00 16886851.00 L 31251730.00 16886851.00 L 31251730.00 15428899.00 L 32099446.00 15428899.00 L 32099446.00 16886851.00  zM 28999997.73 19000006.78 m -161201.22 0 a 161201.22 161201.22 0 1 1 322402.43 0a 161201.22 161201.22 0 1 1 -322402.43 0M 28652205.00 20347480.00 L 28335985.00 20347480.00 L 28335985.00 19952520.00 L 28652205.00 19952520.00 L 28652205.00 20347480.00  zM 25830315.00 21573177.00 L 23369685.00 21573177.00 A 288514.96 288514.96 0 0 1 23081154.00 21284646.00 L 23081154.00 20792520.00 A 288522.30 288522.30 0 0 1 23369685.00 20503989.00 L 25830315.00 20503989.00 A 288514.96 288514.96 0 0 1 26118846.00 20792520.00 L 26118846.00 21284646.00 A 288522.30 288522.30 0 0 1 25830315.00 21573177.00  zM 25499997.73 22000006.78 m -161201.22 0 a 161201.22 161201.22 0 1 1 322402.43 0a 161201.22 161201.22 0 1 1 -322402.43 0M 27086850.00 21252205.00 L 26613150.00 21252205.00 L 26613150.00 20857245.00 L 27086850.00 20857245.00 L 27086850.00 21252205.00  zM 27086850.00 21842756.00 L 26613150.00 21842756.00 L 26613150.00 21447796.00 L 27086850.00 21447796.00 L 27086850.00 21842756.00  zM 27499997.73 22000006.78 m -161201.22 0 a 161201.22 161201.22 0 1 1 322402.43 0a 161201.22 161201.22 0 1 1 -322402.43 0M 25830315.00 23896011.00 L 23369685.00 23896011.00 A 288514.96 288514.96 0 0 1 23081154.00 23607480.00 L 23081154.00 23115354.00 A 288522.30 288522.30 0 0 1 23369685.00 22826823.00 L 25830315.00 22826823.00 A 288514.96 288514.96 0 0 1 26118846.00 23115354.00 L 26118846.00 23607480.00 A 288522.30 288522.30 0 0 1 25830315.00 23896011.00  zM 26345117.00 25652598.00 L 25103701.00 25652598.00 L 25103701.00 24647402.00 L 26345117.00 24647402.00 L 26345117.00 25652598.00  zM 26952392.00 22559868.00 L 26653912.00 22559868.00 L 26653912.00 22240132.00 L 26952392.00 22240132.00 L 26952392.00 22559868.00  zM 27446088.00 22559868.00 L 27147608.00 22559868.00 L 27147608.00 22240132.00 L 27446088.00 22240132.00 L 27446088.00 22559868.00  zM 27744724.00 25721496.00 L 27152914.00 25721496.00 L 27152914.00 24578504.00 L 27744724.00 24578504.00 L 27744724.00 25721496.00  zM 29164016.00 20347480.00 L 28847796.00 20347480.00 L 28847796.00 19952520.00 L 29164016.00 19952520.00 L 29164016.00 20347480.00  zM 28652205.00 20947480.00 L 28335985.00 20947480.00 L 28335985.00 20552520.00 L 28652205.00 20552520.00 L 28652205.00 20947480.00  zM 28499997.73 22000006.78 m -161201.22 0 a 161201.22 161201.22 0 1 1 322402.43 0a 161201.22 161201.22 0 1 1 -322402.43 0M 29164016.00 20947480.00 L 28847796.00 20947480.00 L 28847796.00 20552520.00 L 29164016.00 20552520.00 L 29164016.00 20947480.00  zM 31981927.00 21605552.00 L 31369249.00 21605552.00 L 31369249.00 21013176.00 L 31981927.00 21013176.00 L 31981927.00 21605552.00  zM 28999997.73 23000006.78 m -161201.22 0 a 161201.22 161201.22 0 1 1 322402.43 0a 161201.22 161201.22 0 1 1 -322402.43 0M 28499997.73 24000006.78 m -161201.22 0 a 161201.22 161201.22 0 1 1 322402.43 0a 161201.22 161201.22 0 1 1 -322402.43 0M 31600000.00 22538792.00 L 31632926.98 22545341.42 L 31586009.00 22513991.00 A 161201.22 161201.22 0 0 1 31638308.00 22251063.00 L 31643652.19 22250000.00 L 31638308.00 22248937.00 A 161217.26 161217.26 0 1 1 31761692.00 22248937.00 L 31756347.81 22250000.00 L 31761692.00 22251063.00 A 161217.26 161217.26 0 0 1 31700000.00 22561208.00 L 31667073.02 22554658.58 L 31713991.00 22586009.00 A 161201.22 161201.22 0 1 1 31600000.00 22538792.00  zM 28847086.00 25721496.00 L 28255276.00 25721496.00 L 28255276.00 24578504.00 L 28847086.00 24578504.00 L 28847086.00 25721496.00  zM 28499997.73 26000006.78 m -161201.22 0 a 161201.22 161201.22 0 1 1 322402.43 0a 161201.22 161201.22 0 1 1 -322402.43 0M 31999997.73 15000006.78 m -161201.22 0 a 161201.22 161201.22 0 1 1 322402.43 0a 161201.22 161201.22 0 1 1 -322402.43 0M 32499997.73 16000006.78 m -161201.22 0 a 161201.22 161201.22 0 1 1 322402.43 0a 161201.22 161201.22 0 1 1 -322402.43 0M 32999997.73 15000006.78 m -161201.22 0 a 161201.22 161201.22 0 1 1 322402.43 0a 161201.22 161201.22 0 1 1 -322402.43 0M 33999997.73 15000006.78 m -161201.22 0 a 161201.22 161201.22 0 1 1 322402.43 0a 161201.22 161201.22 0 1 1 -322402.43 0M 33499997.73 16000006.78 m -161201.22 0 a 161201.22 161201.22 0 1 1 322402.43 0a 161201.22 161201.22 0 1 1 -322402.43 0M 34499997.73 16000006.78 m -161201.22 0 a 161201.22 161201.22 0 1 1 322402.43 0a 161201.22 161201.22 0 1 1 -322402.43 0M 34999997.73 15000006.78 m -161201.22 0 a 161201.22 161201.22 0 1 1 322402.43 0a 161201.22 161201.22 0 1 1 -322402.43 0M 35499997.73 16000006.78 m -161201.22 0 a 161201.22 161201.22 0 1 1 322402.43 0a 161201.22 161201.22 0 1 1 -322402.43 0M 35999997.73 15000006.78 m -161201.22 0 a 161201.22 161201.22 0 1 1 322402.43 0a 161201.22 161201.22 0 1 1 -322402.43 0M 36999997.73 15000006.78 m -161201.22 0 a 161201.22 161201.22 0 1 1 322402.43 0a 161201.22 161201.22 0 1 1 -322402.43 0M 36499997.73 16000006.78 m -161201.22 0 a 161201.22 161201.22 0 1 1 322402.43 0a 161201.22 161201.22 0 1 1 -322402.43 0M 32999997.73 17000006.78 m -161201.22 0 a 161201.22 161201.22 0 1 1 322402.43 0a 161201.22 161201.22 0 1 1 -322402.43 0M 32099446.00 19583701.00 L 31251730.00 19583701.00 L 31251730.00 18125749.00 L 32099446.00 18125749.00 L 32099446.00 19583701.00  zM 34554407.00 17095748.00 L 34002281.00 17095748.00 L 34002281.00 16327088.00 L 34554407.00 16327088.00 L 34554407.00 17095748.00  zM 31981927.00 20896274.00 L 31369249.00 20896274.00 L 31369249.00 20303898.00 L 31981927.00 20303898.00 L 31981927.00 20896274.00  zM 33865748.00 21296457.00 L 33334252.00 21296457.00 L 33334252.00 20922441.00 L 33865748.00 20922441.00 L 33865748.00 21296457.00  zM 34999997.73 17000006.78 m -161201.22 0 a 161201.22 161201.22 0 1 1 322402.43 0a 161201.22 161201.22 0 1 1 -322402.43 0M 35999997.73 17000006.78 m -161201.22 0 a 161201.22 161201.22 0 1 1 322402.43 0a 161201.22 161201.22 0 1 1 -322402.43 0M 36042595.00 18981575.00 L 35746375.00 18981575.00 L 35746375.00 18527875.00 L 36042595.00 18527875.00 L 36042595.00 18981575.00  zM 35452044.00 18981575.00 L 35155824.00 18981575.00 L 35155824.00 18527875.00 L 35452044.00 18527875.00 L 35452044.00 18981575.00  zM 36633147.00 18981575.00 L 36336927.00 18981575.00 L 36336927.00 18527875.00 L 36633147.00 18527875.00 L 36633147.00 18981575.00  zM 37999997.73 15000006.78 m -161201.22 0 a 161201.22 161201.22 0 1 1 322402.43 0a 161201.22 161201.22 0 1 1 -322402.43 0M 37499997.73 16000006.78 m -161201.22 0 a 161201.22 161201.22 0 1 1 322402.43 0a 161201.22 161201.22 0 1 1 -322402.43 0M 38499997.73 16000006.78 m -161201.22 0 a 161201.22 161201.22 0 1 1 322402.43 0a 161201.22 161201.22 0 1 1 -322402.43 0M 38999997.73 15000006.78 m -161201.22 0 a 161201.22 161201.22 0 1 1 322402.43 0a 161201.22 161201.22 0 1 1 -322402.43 0M 39499997.73 16000006.78 m -161201.22 0 a 161201.22 161201.22 0 1 1 322402.43 0a 161201.22 161201.22 0 1 1 -322402.43 0M 39999997.73 15000006.78 m -161201.22 0 a 161201.22 161201.22 0 1 1 322402.43 0a 161201.22 161201.22 0 1 1 -322402.43 0M 36999997.73 17000006.78 m -161201.22 0 a 161201.22 161201.22 0 1 1 322402.43 0a 161201.22 161201.22 0 1 1 -322402.43 0M 38377241.00 17095748.00 L 37825115.00 17095748.00 L 37825115.00 16327088.00 L 38377241.00 16327088.00 L 38377241.00 17095748.00  zM 37223698.00 18981575.00 L 36927478.00 18981575.00 L 36927478.00 18527875.00 L 37223698.00 18527875.00 L 37223698.00 18981575.00  zM 38999997.73 17000006.78 m -161201.22 0 a 161201.22 161201.22 0 1 1 322402.43 0a 161201.22 161201.22 0 1 1 -322402.43 0M 39999997.73 17000006.78 m -161201.22 0 a 161201.22 161201.22 0 1 1 322402.43 0a 161201.22 161201.22 0 1 1 -322402.43 0M 40999997.73 15000006.78 m -161201.22 0 a 161201.22 161201.22 0 1 1 322402.43 0a 161201.22 161201.22 0 1 1 -322402.43 0M 41499997.73 16000006.78 m -161201.22 0 a 161201.22 161201.22 0 1 1 322402.43 0a 161201.22 161201.22 0 1 1 -322402.43 0M 41999997.73 15000006.78 m -161201.22 0 a 161201.22 161201.22 0 1 1 322402.43 0a 161201.22 161201.22 0 1 1 -322402.43 0M 43600000.77 14599995.85 m -643101.15 0 a 643101.15 643101.15 0 1 1 1286202.30 0a 643101.15 643101.15 0 1 1 -1286202.30 0M 42499997.73 16000006.78 m -161201.22 0 a 161201.22 161201.22 0 1 1 322402.43 0a 161201.22 161201.22 0 1 1 -322402.43 0M 41099446.00 16835276.00 L 40251730.00 16835276.00 L 40251730.00 15377324.00 L 41099446.00 15377324.00 L 41099446.00 16835276.00  zM 41999997.73 17000006.78 m -161201.22 0 a 161201.22 161201.22 0 1 1 322402.43 0a 161201.22 161201.22 0 1 1 -322402.43 0M 41099446.00 19532126.00 L 40251730.00 19532126.00 L 40251730.00 18074174.00 L 41099446.00 18074174.00 L 41099446.00 19532126.00  zM 40981927.00 20796274.00 L 40369249.00 20796274.00 L 40369249.00 20203898.00 L 40981927.00 20203898.00 L 40981927.00 20796274.00  zM 41799997.73 21200006.78 m -161201.22 0 a 161201.22 161201.22 0 1 1 322402.43 0a 161201.22 161201.22 0 1 1 -322402.43 0M 33865748.00 21887009.00 L 33334252.00 21887009.00 L 33334252.00 21512993.00 L 33865748.00 21512993.00 L 33865748.00 21887009.00  zM 33865748.00 22796457.00 L 33334252.00 22796457.00 L 33334252.00 22422441.00 L 33865748.00 22422441.00 L 33865748.00 22796457.00  zM 33865748.00 23387009.00 L 33334252.00 23387009.00 L 33334252.00 23012993.00 L 33865748.00 23012993.00 L 33865748.00 23387009.00  zM 32936850.00 24647481.00 L 32463150.00 24647481.00 L 32463150.00 24252521.00 L 32936850.00 24252521.00 L 32936850.00 24647481.00  zM 33786850.00 24656929.00 L 33313150.00 24656929.00 L 33313150.00 24261969.00 L 33786850.00 24261969.00 L 33786850.00 24656929.00  zM 34199997.73 24995282.78 m -161201.22 0 a 161201.22 161201.22 0 1 1 322402.43 0a 161201.22 161201.22 0 1 1 -322402.43 0M 32199997.73 25000006.78 m -161201.22 0 a 161201.22 161201.22 0 1 1 322402.43 0a 161201.22 161201.22 0 1 1 -322402.43 0M 32936850.00 25238032.00 L 32463150.00 25238032.00 L 32463150.00 24843072.00 L 32936850.00 24843072.00 L 32936850.00 25238032.00  zM 33786850.00 25247480.00 L 33313150.00 25247480.00 L 33313150.00 24852520.00 L 33786850.00 24852520.00 L 33786850.00 25247480.00  zM 34636850.00 25997481.00 L 34163150.00 25997481.00 L 34163150.00 25602521.00 L 34636850.00 25602521.00 L 34636850.00 25997481.00  zM 34636850.00 26588032.00 L 34163150.00 26588032.00 L 34163150.00 26193072.00 L 34636850.00 26193072.00 L 34636850.00 26588032.00  zM 35723462.73 21754731.78 m -161201.22 0 a 161201.22 161201.22 0 1 1 322402.43 0a 161201.22 161201.22 0 1 1 -322402.43 0M 35073213.00 22583072.00 L 35073213.00 22327166.00 A 90956.37 90956.37 0 1 1 35255133.00 22327166.00 L 35255133.00 22583072.00 A 90956.37 90956.37 0 1 1 35073213.00 22583072.00  zM 36648016.00 23882285.00 L 36648016.00 23626379.00 A 90956.37 90956.37 0 0 1 36704167.00 23542343.00 L 36723858.92 23538426.00 L 36557243.08 23538426.00 L 36576935.00 23542343.00 A 90967.01 90967.01 0 0 1 36633086.00 23626379.00 L 36633086.00 23882285.00 A 90956.37 90956.37 0 0 1 36451166.00 23882285.00 L 36451166.00 23626379.00 A 90956.37 90956.37 0 0 1 36507317.00 23542343.00 L 36527008.92 23538426.00 L 36360393.08 23538426.00 L 36380085.00 23542343.00 A 90967.01 90967.01 0 0 1 36436236.00 23626379.00 L 36436236.00 23882285.00 A 90956.37 90956.37 0 0 1 36254316.00 23882285.00 L 36254316.00 23626379.00 A 90956.37 90956.37 0 0 1 36310467.00 23542343.00 L 36330158.92 23538426.00 L 36163542.08 23538426.00 L 36183234.00 23542343.00 A 90967.01 90967.01 0 0 1 36239385.00 23626379.00 L 36239385.00 23882285.00 A 90956.37 90956.37 0 0 1 36057465.00 23882285.00 L 36057465.00 23626379.00 A 90956.37 90956.37 0 0 1 36113616.00 23542343.00 L 36133307.92 23538426.00 L 35966692.08 23538426.00 L 35986384.00 23542343.00 A 90967.01 90967.01 0 0 1 36042535.00 23626379.00 L 36042535.00 23882285.00 A 90956.37 90956.37 0 0 1 35860615.00 23882285.00 L 35860615.00 23626379.00 A 90956.37 90956.37 0 0 1 35916766.00 23542343.00 L 35936457.92 23538426.00 L 35769841.08 23538426.00 L 35789533.00 23542343.00 A 90967.01 90967.01 0 0 1 35845684.00 23626379.00 L 35845684.00 23882285.00 A 90956.37 90956.37 0 0 1 35663764.00 23882285.00 L 35663764.00 23626379.00 A 90956.37 90956.37 0 0 1 35719915.00 23542343.00 L 35739606.92 23538426.00 L 35572991.08 23538426.00 L 35592683.00 23542343.00 A 90967.01 90967.01 0 0 1 35648834.00 23626379.00 L 35648834.00 23882285.00 A 90956.37 90956.37 0 0 1 35466914.00 23882285.00 L 35466914.00 23626379.00 A 90956.37 90956.37 0 0 1 35523065.00 23542343.00 L 35542756.92 23538426.00 L 35376141.08 23538426.00 L 35395833.00 23542343.00 A 90967.01 90967.01 0 0 1 35451984.00 23626379.00 L 35451984.00 23882285.00 A 90956.37 90956.37 0 0 1 35270064.00 23882285.00 L 35270064.00 23626379.00 A 90956.37 90956.37 0 0 1 35326215.00 23542343.00 L 35345906.92 23538426.00 L 35222599.00 23538426.00 L 35222599.00 23415118.08 L 35218682.00 23434810.00 A 90967.01 90967.01 0 0 1 35134646.00 23490961.00 L 34878740.00 23490961.00 A 90956.37 90956.37 0 0 1 34878740.00 23309041.00 L 35134646.00 23309041.00 A 90956.37 90956.37 0 0 1 35218682.00 23365192.00 L 35222599.00 23384883.92 L 35222599.00 23218267.08 L 35218682.00 23237959.00 A 90967.01 90967.01 0 0 1 35134646.00 23294110.00 L 34878740.00 23294110.00 A 90956.37 90956.37 0 1 1 34878740.00 23112190.00 L 35134646.00 23112190.00 A 90956.37 90956.37 0 0 1 35218682.00 23168341.00 L 35222599.00 23188032.92 L 35222599.00 23021417.08 L 35218682.00 23041109.00 A 90967.01 90967.01 0 0 1 35134646.00 23097260.00 L 34878740.00 23097260.00 A 90956.37 90956.37 0 0 1 34878740.00 22915340.00 L 35134646.00 22915340.00 A 90956.37 90956.37 0 0 1 35218682.00 22971491.00 L 35222599.00 22991182.92 L 35222599.00 22824567.08 L 35218682.00 22844259.00 A 90967.01 90967.01 0 0 1 35134646.00 22900410.00 L 34878740.00 22900410.00 A 90956.37 90956.37 0 1 1 34878740.00 22718490.00 L 35134646.00 22718490.00 A 90956.37 90956.37 0 0 1 35218682.00 22774641.00 L 35222599.00 22794332.92 L 35222599.00 22671024.00 L 35345901.89 22671024.00 L 35326215.00 22667108.00 A 90967.01 90967.01 0 0 1 35270064.00 22583072.00 L 35270064.00 22327166.00 A 90956.37 90956.37 0 0 1 35451984.00 22327166.00 L 35451984.00 22583072.00 A 90956.37 90956.37 0 0 1 35395833.00 22667108.00 L 35376146.11 22671024.00 L 35542751.89 22671024.00 L 35523065.00 22667108.00 A 90967.01 90967.01 0 0 1 35466914.00 22583072.00 L 35466914.00 22327166.00 A 90956.37 90956.37 0 1 1 35648834.00 22327166.00 L 35648834.00 22583072.00 A 90956.37 90956.37 0 0 1 35592683.00 22667108.00 L 35572996.11 22671024.00 L 35739601.89 22671024.00 L 35719915.00 22667108.00 A 90967.01 90967.01 0 0 1 35663764.00 22583072.00 L 35663764.00 22327166.00 A 90956.37 90956.37 0 0 1 35845684.00 22327166.00 L 35845684.00 22583072.00 A 90956.37 90956.37 0 0 1 35789533.00 22667108.00 L 35769846.11 22671024.00 L 35936452.89 22671024.00 L 35916766.00 22667108.00 A 90967.01 90967.01 0 0 1 35860615.00 22583072.00 L 35860615.00 22327166.00 A 90956.37 90956.37 0 0 1 36042535.00 22327166.00 L 36042535.00 22583072.00 A 90956.37 90956.37 0 0 1 35986384.00 22667108.00 L 35966697.11 22671024.00 L 36133302.89 22671024.00 L 36113616.00 22667108.00 A 90967.01 90967.01 0 0 1 36057465.00 22583072.00 L 36057465.00 22327166.00 A 90956.37 90956.37 0 0 1 36239385.00 22327166.00 L 36239385.00 22583072.00 A 90956.37 90956.37 0 0 1 36183234.00 22667108.00 L 36163547.11 22671024.00 L 36330153.89 22671024.00 L 36310467.00 22667108.00 A 90967.01 90967.01 0 0 1 36254316.00 22583072.00 L 36254316.00 22327166.00 A 90956.37 90956.37 0 0 1 36436236.00 22327166.00 L 36436236.00 22583072.00 A 90956.37 90956.37 0 0 1 36380085.00 22667108.00 L 36360398.11 22671024.00 L 36527003.89 22671024.00 L 36507317.00 22667108.00 A 90967.01 90967.01 0 0 1 36451166.00 22583072.00 L 36451166.00 22327166.00 A 90956.37 90956.37 0 0 1 36633086.00 22327166.00 L 36633086.00 22583072.00 A 90956.37 90956.37 0 0 1 36576935.00 22667108.00 L 36557248.11 22671024.00 L 36723853.89 22671024.00 L 36704167.00 22667108.00 A 90967.01 90967.01 0 0 1 36648016.00 22583072.00 L 36648016.00 22327166.00 A 90956.37 90956.37 0 0 1 36829936.00 22327166.00 L 36829936.00 22583072.00 A 90956.37 90956.37 0 0 1 36773785.00 22667108.00 L 36754098.11 22671024.00 L 36877401.00 22671024.00 L 36877401.00 22794332.92 L 36881318.00 22774641.00 A 90967.01 90967.01 0 0 1 36965354.00 22718490.00 L 37221260.00 22718490.00 A 90956.37 90956.37 0 1 1 37221260.00 22900410.00 L 36965354.00 22900410.00 A 90956.37 90956.37 0 0 1 36881318.00 22844259.00 L 36877401.00 22824567.08 L 36877401.00 22991182.92 L 36881318.00 22971491.00 A 90967.01 90967.01 0 0 1 36965354.00 22915340.00 L 37221260.00 22915340.00 A 90956.37 90956.37 0 0 1 37221260.00 23097260.00 L 36965354.00 23097260.00 A 90956.37 90956.37 0 0 1 36881318.00 23041109.00 L 36877401.00 23021417.08 L 36877401.00 23188032.92 L 36881318.00 23168341.00 A 90967.01 90967.01 0 0 1 36965354.00 23112190.00 L 37221260.00 23112190.00 A 90956.37 90956.37 0 1 1 37221260.00 23294110.00 L 36965354.00 23294110.00 A 90956.37 90956.37 0 0 1 36881318.00 23237959.00 L 36877401.00 23218267.08 L 36877401.00 23384883.92 L 36881318.00 23365192.00 A 90967.01 90967.01 0 0 1 36965354.00 23309041.00 L 37221260.00 23309041.00 A 90956.37 90956.37 0 0 1 37221260.00 23490961.00 L 36965354.00 23490961.00 A 90956.37 90956.37 0 0 1 36881318.00 23434810.00 L 36877401.00 23415118.08 L 36877401.00 23538426.00 L 36754093.08 23538426.00 L 36773785.00 23542343.00 A 90967.01 90967.01 0 0 1 36829936.00 23626379.00 L 36829936.00 23882285.00 A 90956.37 90956.37 0 0 1 36648016.00 23882285.00  zM 35073213.00 23882285.00 L 35073213.00 23626379.00 A 90956.37 90956.37 0 1 1 35255133.00 23626379.00 L 35255133.00 23882285.00 A 90956.37 90956.37 0 0 1 35073213.00 23882285.00  zM 35836850.00 25997481.00 L 35363150.00 25997481.00 L 35363150.00 25602521.00 L 35836850.00 25602521.00 L 35836850.00 25997481.00  zM 35236850.00 25997481.00 L 34763150.00 25997481.00 L 34763150.00 25602521.00 L 35236850.00 25602521.00 L 35236850.00 25997481.00  zM 35236850.00 26588032.00 L 34763150.00 26588032.00 L 34763150.00 26193072.00 L 35236850.00 26193072.00 L 35236850.00 26588032.00  zM 35836850.00 26588032.00 L 35363150.00 26588032.00 L 35363150.00 26193072.00 L 35836850.00 26193072.00 L 35836850.00 26588032.00  zM 36436850.00 25997481.00 L 35963150.00 25997481.00 L 35963150.00 25602521.00 L 36436850.00 25602521.00 L 36436850.00 25997481.00  zM 36436850.00 26588032.00 L 35963150.00 26588032.00 L 35963150.00 26193072.00 L 36436850.00 26193072.00 L 36436850.00 26588032.00  zM 36475585.73 21754731.78 m -161201.22 0 a 161201.22 161201.22 0 1 1 322402.43 0a 161201.22 161201.22 0 1 1 -322402.43 0M 36844867.00 22583072.00 L 36844867.00 22327166.00 A 90956.37 90956.37 0 0 1 37026787.00 22327166.00 L 37026787.00 22583072.00 A 90956.37 90956.37 0 0 1 36844867.00 22583072.00  zM 36844867.00 23882285.00 L 36844867.00 23626379.00 A 90956.37 90956.37 0 0 1 37026787.00 23626379.00 L 37026787.00 23882285.00 A 90956.37 90956.37 0 0 1 36844867.00 23882285.00  zM 37499997.73 22000006.78 m -161201.22 0 a 161201.22 161201.22 0 1 1 322402.43 0a 161201.22 161201.22 0 1 1 -322402.43 0M 38927980.00 23253963.00 L 38472020.00 23253963.00 L 38472020.00 22855487.00 L 38927980.00 22855487.00 L 38927980.00 23253963.00  zM 40981927.00 21505552.00 L 40369249.00 21505552.00 L 40369249.00 20913176.00 L 40981927.00 20913176.00 L 40981927.00 21505552.00  zM 39699997.73 22600006.78 m -161201.22 0 a 161201.22 161201.22 0 1 1 322402.43 0a 161201.22 161201.22 0 1 1 -322402.43 0M 41433109.73 21209370.78 m -161201.22 0 a 161201.22 161201.22 0 1 1 322402.43 0a 161201.22 161201.22 0 1 1 -322402.43 0M 39579156.00 23253963.00 L 39123196.00 23253963.00 L 39123196.00 22855487.00 L 39579156.00 22855487.00 L 39579156.00 23253963.00  zM 38927980.00 24203963.00 L 38472020.00 24203963.00 L 38472020.00 23805487.00 L 38927980.00 23805487.00 L 38927980.00 24203963.00  zM 37036850.00 25997481.00 L 36563150.00 25997481.00 L 36563150.00 25602521.00 L 37036850.00 25602521.00 L 37036850.00 25997481.00  zM 37036850.00 26588032.00 L 36563150.00 26588032.00 L 36563150.00 26193072.00 L 37036850.00 26193072.00 L 37036850.00 26588032.00  zM 37836850.00 26588032.00 L 37363150.00 26588032.00 L 37363150.00 26193072.00 L 37836850.00 26193072.00 L 37836850.00 26588032.00  zM 37836850.00 25997481.00 L 37363150.00 25997481.00 L 37363150.00 25602521.00 L 37836850.00 25602521.00 L 37836850.00 25997481.00  zM 38199997.73 26800006.78 m -161201.22 0 a 161201.22 161201.22 0 1 1 322402.43 0a 161201.22 161201.22 0 1 1 -322402.43 0M 38649997.73 24645282.78 m -161201.22 0 a 161201.22 161201.22 0 1 1 322402.43 0a 161201.22 161201.22 0 1 1 -322402.43 0M 39579156.00 24203963.00 L 39123196.00 24203963.00 L 39123196.00 23805487.00 L 39579156.00 23805487.00 L 39579156.00 24203963.00  zM 39799997.73 24400006.78 m -161201.22 0 a 161201.22 161201.22 0 1 1 322402.43 0a 161201.22 161201.22 0 1 1 -322402.43 0M 38436850.00 25997480.00 L 37963150.00 25997480.00 L 37963150.00 25602520.00 L 38436850.00 25602520.00 L 38436850.00 25997480.00  zM 38436850.00 26588031.00 L 37963150.00 26588031.00 L 37963150.00 26193071.00 L 38436850.00 26193071.00 L 38436850.00 26588031.00  zM 18999997.73 29000006.78 m -161201.22 0 a 161201.22 161201.22 0 1 1 322402.43 0a 161201.22 161201.22 0 1 1 -322402.43 0M 20499997.73 28000006.78 m -161201.22 0 a 161201.22 161201.22 0 1 1 322402.43 0a 161201.22 161201.22 0 1 1 -322402.43 0M 20499997.73 30000006.78 m -161201.22 0 a 161201.22 161201.22 0 1 1 322402.43 0a 161201.22 161201.22 0 1 1 -322402.43 0M 21499997.73 28000006.78 m -161201.22 0 a 161201.22 161201.22 0 1 1 322402.43 0a 161201.22 161201.22 0 1 1 -322402.43 0M 20999997.73 29000006.78 m -161201.22 0 a 161201.22 161201.22 0 1 1 322402.43 0a 161201.22 161201.22 0 1 1 -322402.43 0M 21499997.73 30000006.78 m -161201.22 0 a 161201.22 161201.22 0 1 1 322402.43 0a 161201.22 161201.22 0 1 1 -322402.43 0M 21999997.73 27000006.78 m -161201.22 0 a 161201.22 161201.22 0 1 1 322402.43 0a 161201.22 161201.22 0 1 1 -322402.43 0M 21999997.73 29000006.78 m -161201.22 0 a 161201.22 161201.22 0 1 1 322402.43 0a 161201.22 161201.22 0 1 1 -322402.43 0M 22999997.73 29000006.78 m -161201.22 0 a 161201.22 161201.22 0 1 1 322402.43 0a 161201.22 161201.22 0 1 1 -322402.43 0M 22499997.73 30000006.78 m -161201.22 0 a 161201.22 161201.22 0 1 1 322402.43 0a 161201.22 161201.22 0 1 1 -322402.43 0M 23499997.73 30000006.78 m -161201.22 0 a 161201.22 161201.22 0 1 1 322402.43 0a 161201.22 161201.22 0 1 1 -322402.43 0M 23999997.73 27000006.78 m -161201.22 0 a 161201.22 161201.22 0 1 1 322402.43 0a 161201.22 161201.22 0 1 1 -322402.43 0M 23999997.73 29000006.78 m -161201.22 0 a 161201.22 161201.22 0 1 1 322402.43 0a 161201.22 161201.22 0 1 1 -322402.43 0M 24499997.73 30000006.78 m -161201.22 0 a 161201.22 161201.22 0 1 1 322402.43 0a 161201.22 161201.22 0 1 1 -322402.43 0M 25499997.73 30000006.78 m -161201.22 0 a 161201.22 161201.22 0 1 1 322402.43 0a 161201.22 161201.22 0 1 1 -322402.43 0M 26499997.73 30000006.78 m -161201.22 0 a 161201.22 161201.22 0 1 1 322402.43 0a 161201.22 161201.22 0 1 1 -322402.43 0M 28999997.73 27000006.78 m -161201.22 0 a 161201.22 161201.22 0 1 1 322402.43 0a 161201.22 161201.22 0 1 1 -322402.43 0M 28499997.73 28000006.78 m -161201.22 0 a 161201.22 161201.22 0 1 1 322402.43 0a 161201.22 161201.22 0 1 1 -322402.43 0M 28999997.73 29000006.78 m -161201.22 0 a 161201.22 161201.22 0 1 1 322402.43 0a 161201.22 161201.22 0 1 1 -322402.43 0M 27499997.73 30000006.78 m -161201.22 0 a 161201.22 161201.22 0 1 1 322402.43 0a 161201.22 161201.22 0 1 1 -322402.43 0M 30499997.73 32400006.78 m -161201.22 0 a 161201.22 161201.22 0 1 1 322402.43 0a 161201.22 161201.22 0 1 1 -322402.43 0M 32099997.73 30900006.78 m -161201.22 0 a 161201.22 161201.22 0 1 1 322402.43 0a 161201.22 161201.22 0 1 1 -322402.43 0M 32455905.00 32028347.00 L 31944095.00 32028347.00 L 31944095.00 31614961.00 L 32455905.00 31614961.00 L 32455905.00 32028347.00  zM 31679553.00 32102392.00 L 31320447.00 32102392.00 L 31320447.00 31725172.00 L 31679553.00 31725172.00 L 31679553.00 32102392.00  zM 31679553.00 32674828.00 L 31320447.00 32674828.00 L 31320447.00 32297608.00 L 31679553.00 32297608.00 L 31679553.00 32674828.00  zM 31399997.73 33000006.78 m -161201.22 0 a 161201.22 161201.22 0 1 1 322402.43 0a 161201.22 161201.22 0 1 1 -322402.43 0M 32455905.00 32756693.00 L 31944095.00 32756693.00 L 31944095.00 32343307.00 L 32455905.00 32343307.00 L 32455905.00 32756693.00  zM 32902392.00 31099238.00 L 32446432.00 31099238.00 L 32446432.00 30700762.00 L 32902392.00 30700762.00 L 32902392.00 31099238.00  zM 33553568.00 31099238.00 L 33097608.00 31099238.00 L 33097608.00 30700762.00 L 33553568.00 30700762.00 L 33553568.00 31099238.00  zM 33699997.73 31700006.78 m -161201.22 0 a 161201.22 161201.22 0 1 1 322402.43 0a 161201.22 161201.22 0 1 1 -322402.43 0M 33361417.00 32028347.00 L 32849607.00 32028347.00 L 32849607.00 31614961.00 L 33361417.00 31614961.00 L 33361417.00 32028347.00  zM 33361417.00 32756693.00 L 32849607.00 32756693.00 L 32849607.00 32343307.00 L 33361417.00 32343307.00 L 33361417.00 32756693.00  zM 31799997.73 33300006.78 m -161201.22 0 a 161201.22 161201.22 0 1 1 322402.43 0a 161201.22 161201.22 0 1 1 -322402.43 0M 32502392.00 33379553.00 L 32125172.00 33379553.00 L 32125172.00 33020447.00 L 32502392.00 33020447.00 L 32502392.00 33379553.00  zM 33074828.00 33379553.00 L 32697608.00 33379553.00 L 32697608.00 33020447.00 L 33074828.00 33020447.00 L 33074828.00 33379553.00  zM 32999997.73 35600006.78 m -161201.22 0 a 161201.22 161201.22 0 1 1 322402.43 0a 161201.22 161201.22 0 1 1 -322402.43 0M 33414016.00 36297480.00 L 33097796.00 36297480.00 L 33097796.00 35902520.00 L 33414016.00 35902520.00 L 33414016.00 36297480.00  zM 32902205.00 36297480.00 L 32585985.00 36297480.00 L 32585985.00 35902520.00 L 32902205.00 35902520.00 L 32902205.00 36297480.00  zM 32902205.00 36797480.00 L 32585985.00 36797480.00 L 32585985.00 36402520.00 L 32902205.00 36402520.00 L 32902205.00 36797480.00  zM 33414016.00 36797480.00 L 33097796.00 36797480.00 L 33097796.00 36402520.00 L 33414016.00 36402520.00 L 33414016.00 36797480.00  zM 32749999.04 38000000.73 m -342933.27 0 a 342933.27 342933.27 0 1 1 685866.54 0a 342933.27 342933.27 0 1 1 -685866.54 0M 33749999.04 38000000.73 m -342933.27 0 a 342933.27 342933.27 0 1 1 685866.54 0a 342933.27 342933.27 0 1 1 -685866.54 0M 34599997.73 28000006.78 m -161201.22 0 a 161201.22 161201.22 0 1 1 322402.43 0a 161201.22 161201.22 0 1 1 -322402.43 0M 35299997.73 27300006.78 m -161201.22 0 a 161201.22 161201.22 0 1 1 322402.43 0a 161201.22 161201.22 0 1 1 -322402.43 0M 35670312.73 29100006.78 m -161201.22 0 a 161201.22 161201.22 0 1 1 322402.43 0a 161201.22 161201.22 0 1 1 -322402.43 0M 34777323.00 30600000.00 L 34657323.00 30600000.00 L 34657323.00 30280000.00 L 34777323.00 30280000.00 L 34777323.00 30600000.00  zM 35171024.00 30600000.00 L 35051024.00 30600000.00 L 35051024.00 30280000.00 L 35171024.00 30280000.00 L 35171024.00 30600000.00  zM 35367874.00 30600000.00 L 35247874.00 30600000.00 L 35247874.00 30280000.00 L 35367874.00 30280000.00 L 35367874.00 30600000.00  zM 34600000.00 30974173.00 L 34280000.00 30974173.00 L 34280000.00 30854173.00 L 34600000.00 30854173.00 L 34600000.00 30974173.00  zM 34600000.00 30777323.00 L 34280000.00 30777323.00 L 34280000.00 30657323.00 L 34600000.00 30657323.00 L 34600000.00 30777323.00  zM 34974173.00 30600000.00 L 34854173.00 30600000.00 L 34854173.00 30280000.00 L 34974173.00 30280000.00 L 34974173.00 30600000.00  zM 35564724.00 30600000.00 L 35444724.00 30600000.00 L 35444724.00 30280000.00 L 35564724.00 30280000.00 L 35564724.00 30600000.00  zM 35761575.00 30600000.00 L 35641575.00 30600000.00 L 35641575.00 30280000.00 L 35761575.00 30280000.00 L 35761575.00 30600000.00  zM 34600000.00 31367874.00 L 34280000.00 31367874.00 L 34280000.00 31247874.00 L 34600000.00 31247874.00 L 34600000.00 31367874.00  zM 34600000.00 31564724.00 L 34280000.00 31564724.00 L 34280000.00 31444724.00 L 34600000.00 31444724.00 L 34600000.00 31564724.00  zM 34600000.00 31958425.00 L 34280000.00 31958425.00 L 34280000.00 31838425.00 L 34600000.00 31838425.00 L 34600000.00 31958425.00  zM 34600000.00 32155276.00 L 34280000.00 32155276.00 L 34280000.00 32035276.00 L 34600000.00 32035276.00 L 34600000.00 32155276.00  zM 34600000.00 32548976.00 L 34280000.00 32548976.00 L 34280000.00 32428976.00 L 34600000.00 32428976.00 L 34600000.00 32548976.00  zM 34600000.00 31171024.00 L 34280000.00 31171024.00 L 34280000.00 31051024.00 L 34600000.00 31051024.00 L 34600000.00 31171024.00  zM 34600000.00 31761575.00 L 34280000.00 31761575.00 L 34280000.00 31641575.00 L 34600000.00 31641575.00 L 34600000.00 31761575.00  zM 34600000.00 32745827.00 L 34280000.00 32745827.00 L 34280000.00 32625827.00 L 34600000.00 32625827.00 L 34600000.00 32745827.00  zM 34600000.00 32352126.00 L 34280000.00 32352126.00 L 34280000.00 32232126.00 L 34600000.00 32232126.00 L 34600000.00 32352126.00  zM 36920000.00 32920000.00 L 34680000.00 32920000.00 L 34680000.00 30680000.00 L 36920000.00 30680000.00 L 36920000.00 32920000.00  zM 34600000.00 32942677.00 L 34280000.00 32942677.00 L 34280000.00 32822677.00 L 34600000.00 32822677.00 L 34600000.00 32942677.00  zM 34777323.00 33320000.00 L 34657323.00 33320000.00 L 34657323.00 33000000.00 L 34777323.00 33000000.00 L 34777323.00 33320000.00  zM 34974173.00 33320000.00 L 34854173.00 33320000.00 L 34854173.00 33000000.00 L 34974173.00 33000000.00 L 34974173.00 33320000.00  zM 33999238.00 34902392.00 L 33600762.00 34902392.00 L 33600762.00 34446432.00 L 33999238.00 34446432.00 L 33999238.00 34902392.00  zM 34928107.73 33800006.78 m -161201.22 0 a 161201.22 161201.22 0 1 1 322402.43 0a 161201.22 161201.22 0 1 1 -322402.43 0M 35171024.00 33320000.00 L 35051024.00 33320000.00 L 35051024.00 33000000.00 L 35171024.00 33000000.00 L 35171024.00 33320000.00  zM 35367874.00 33320000.00 L 35247874.00 33320000.00 L 35247874.00 33000000.00 L 35367874.00 33000000.00 L 35367874.00 33320000.00  zM 35761575.00 33320000.00 L 35641575.00 33320000.00 L 35641575.00 33000000.00 L 35761575.00 33000000.00 L 35761575.00 33320000.00  zM 35564724.00 33320000.00 L 35444724.00 33320000.00 L 35444724.00 33000000.00 L 35564724.00 33000000.00 L 35564724.00 33320000.00  zM 35699997.73 34200006.78 m -161201.22 0 a 161201.22 161201.22 0 1 1 322402.43 0a 161201.22 161201.22 0 1 1 -322402.43 0M 33999238.00 35553568.00 L 33600762.00 35553568.00 L 33600762.00 35097608.00 L 33999238.00 35097608.00 L 33999238.00 35553568.00  zM 34899238.00 34902392.00 L 34500762.00 34902392.00 L 34500762.00 34446432.00 L 34899238.00 34446432.00 L 34899238.00 34902392.00  zM 34899238.00 35553568.00 L 34500762.00 35553568.00 L 34500762.00 35097608.00 L 34899238.00 35097608.00 L 34899238.00 35553568.00  zM 35717165.00 35152205.00 L 35282835.00 35152205.00 L 35282835.00 34796615.00 L 35717165.00 34796615.00 L 35717165.00 35152205.00  zM 35717165.00 35703386.00 L 35282835.00 35703386.00 L 35282835.00 35347796.00 L 35717165.00 35347796.00 L 35717165.00 35703386.00  zM 33899997.73 36148116.78 m -161201.22 0 a 161201.22 161201.22 0 1 1 322402.43 0a 161201.22 161201.22 0 1 1 -322402.43 0M 34663017.73 35988116.78 m -161201.22 0 a 161201.22 161201.22 0 1 1 322402.43 0a 161201.22 161201.22 0 1 1 -322402.43 0M 35674432.73 36074441.78 m -161201.22 0 a 161201.22 161201.22 0 1 1 322402.43 0a 161201.22 161201.22 0 1 1 -322402.43 0M 34749999.04 38000000.73 m -342933.27 0 a 342933.27 342933.27 0 1 1 685866.54 0a 342933.27 342933.27 0 1 1 -685866.54 0M 36090000.00 38340000.00 L 35410000.00 38340000.00 L 35410000.00 37660000.00 L 36090000.00 37660000.00 L 36090000.00 38340000.00  zM 37102205.00 27432126.00 L 36707245.00 27432126.00 L 36707245.00 26958426.00 L 37102205.00 26958426.00 L 37102205.00 27432126.00  zM 37449238.00 28802392.00 L 37050762.00 28802392.00 L 37050762.00 28346432.00 L 37134559.10 28346432.00 L 37086009.00 28313991.00 A 161201.22 161201.22 0 1 1 37313991.00 28313991.00 L 37265440.90 28346432.00 L 37449238.00 28346432.00 L 37449238.00 28802392.00  zM 36549238.00 28802392.00 L 36150762.00 28802392.00 L 36150762.00 28346432.00 L 36549238.00 28346432.00 L 36549238.00 28547483.12 L 36551063.00 28538308.00 A 161217.26 161217.26 0 1 1 36551063.00 28661692.00 L 36549238.00 28652516.88 L 36549238.00 28802392.00  zM 35899997.73 28700006.78 m -161201.22 0 a 161201.22 161201.22 0 1 1 322402.43 0a 161201.22 161201.22 0 1 1 -322402.43 0M 36799997.73 29200006.78 m -161201.22 0 a 161201.22 161201.22 0 1 1 322402.43 0a 161201.22 161201.22 0 1 1 -322402.43 0M 37449238.00 29453568.00 L 37050762.00 29453568.00 L 37050762.00 28997608.00 L 37449238.00 28997608.00 L 37449238.00 29453568.00  zM 36549238.00 29453568.00 L 36150762.00 29453568.00 L 36150762.00 28997608.00 L 36549238.00 28997608.00 L 36549238.00 29453568.00  zM 36942677.00 30600000.00 L 36822677.00 30600000.00 L 36822677.00 30280000.00 L 36942677.00 30280000.00 L 36942677.00 30600000.00  zM 36548976.00 30600000.00 L 36428976.00 30600000.00 L 36428976.00 30280000.00 L 36548976.00 30280000.00 L 36548976.00 30600000.00  zM 35958425.00 30600000.00 L 35838425.00 30600000.00 L 35838425.00 30280000.00 L 35958425.00 30280000.00 L 35958425.00 30600000.00  zM 36352126.00 30600000.00 L 36232126.00 30600000.00 L 36232126.00 30280000.00 L 36352126.00 30280000.00 L 36352126.00 30600000.00  zM 37692756.00 27432126.00 L 37297796.00 27432126.00 L 37297796.00 26958426.00 L 37692756.00 26958426.00 L 37692756.00 27432126.00  zM 37999997.73 27200006.78 m -161201.22 0 a 161201.22 161201.22 0 1 1 322402.43 0a 161201.22 161201.22 0 1 1 -322402.43 0M 37899997.73 28500006.78 m -161201.22 0 a 161201.22 161201.22 0 1 1 322402.43 0a 161201.22 161201.22 0 1 1 -322402.43 0M 38102205.00 30536850.00 L 37707245.00 30536850.00 L 37707245.00 30063150.00 L 38102205.00 30063150.00 L 38102205.00 30536850.00  zM 38692756.00 30536850.00 L 38297796.00 30536850.00 L 38297796.00 30063150.00 L 38692756.00 30063150.00 L 38692756.00 30536850.00  zM 39336850.00 27297480.00 L 38863150.00 27297480.00 L 38863150.00 26902520.00 L 39336850.00 26902520.00 L 39336850.00 27297480.00  zM 39336850.00 27888031.00 L 38863150.00 27888031.00 L 38863150.00 27493071.00 L 39336850.00 27493071.00 L 39336850.00 27888031.00  zM 40399997.73 29600006.78 m -161201.22 0 a 161201.22 161201.22 0 1 1 322402.43 0a 161201.22 161201.22 0 1 1 -322402.43 0M 39889449.00 30620000.00 L 39329449.00 30620000.00 L 39329449.00 29980000.00 L 39889449.00 29980000.00 L 39889449.00 30620000.00  zM 41080000.00 30620000.00 L 40520000.00 30620000.00 L 40520000.00 29980000.00 L 41080000.00 29980000.00 L 41080000.00 30620000.00  zM 36155276.00 30600000.00 L 36035276.00 30600000.00 L 36035276.00 30280000.00 L 36155276.00 30280000.00 L 36155276.00 30600000.00  zM 36745827.00 30600000.00 L 36625827.00 30600000.00 L 36625827.00 30280000.00 L 36745827.00 30280000.00 L 36745827.00 30600000.00  zM 37320000.00 31171024.00 L 37000000.00 31171024.00 L 37000000.00 31051024.00 L 37320000.00 31051024.00 L 37320000.00 31171024.00  zM 37320000.00 30777323.00 L 37000000.00 30777323.00 L 37000000.00 30657323.00 L 37320000.00 30657323.00 L 37320000.00 30777323.00  zM 37320000.00 31367874.00 L 37000000.00 31367874.00 L 37000000.00 31247874.00 L 37320000.00 31247874.00 L 37320000.00 31367874.00  zM 37320000.00 31564724.00 L 37000000.00 31564724.00 L 37000000.00 31444724.00 L 37320000.00 31444724.00 L 37320000.00 31564724.00  zM 37320000.00 31761575.00 L 37000000.00 31761575.00 L 37000000.00 31641575.00 L 37320000.00 31641575.00 L 37320000.00 31761575.00  zM 37320000.00 31958425.00 L 37000000.00 31958425.00 L 37000000.00 31838425.00 L 37320000.00 31838425.00 L 37320000.00 31958425.00  zM 37320000.00 32155276.00 L 37000000.00 32155276.00 L 37000000.00 32035276.00 L 37320000.00 32035276.00 L 37320000.00 32155276.00  zM 37320000.00 32352126.00 L 37000000.00 32352126.00 L 37000000.00 32232126.00 L 37320000.00 32232126.00 L 37320000.00 32352126.00  zM 37320000.00 32942677.00 L 37000000.00 32942677.00 L 37000000.00 32822677.00 L 37320000.00 32822677.00 L 37320000.00 32942677.00  zM 37320000.00 30974173.00 L 37000000.00 30974173.00 L 37000000.00 30854173.00 L 37320000.00 30854173.00 L 37320000.00 30974173.00  zM 38102205.00 31236850.00 L 37707245.00 31236850.00 L 37707245.00 30763150.00 L 38102205.00 30763150.00 L 38102205.00 31236850.00  zM 37320000.00 32548976.00 L 37000000.00 32548976.00 L 37000000.00 32428976.00 L 37320000.00 32428976.00 L 37320000.00 32548976.00  zM 37320000.00 32745827.00 L 37000000.00 32745827.00 L 37000000.00 32625827.00 L 37320000.00 32625827.00 L 37320000.00 32745827.00  zM 37799997.73 32800006.78 m -161201.22 0 a 161201.22 161201.22 0 1 1 322402.43 0a 161201.22 161201.22 0 1 1 -322402.43 0M 38692756.00 31236850.00 L 38297796.00 31236850.00 L 38297796.00 30763150.00 L 38692756.00 30763150.00 L 38692756.00 31236850.00  zM 38699997.73 31500006.78 m -161201.22 0 a 161201.22 161201.22 0 1 1 322402.43 0a 161201.22 161201.22 0 1 1 -322402.43 0M 39889449.00 31820000.00 L 39329449.00 31820000.00 L 39329449.00 31180000.00 L 39889449.00 31180000.00 L 39889449.00 31820000.00  zM 41080000.00 31820000.00 L 40520000.00 31820000.00 L 40520000.00 31180000.00 L 41080000.00 31180000.00 L 41080000.00 31820000.00  zM 40599997.73 32300006.78 m -161201.22 0 a 161201.22 161201.22 0 1 1 322402.43 0a 161201.22 161201.22 0 1 1 -322402.43 0M 35958425.00 33320000.00 L 35838425.00 33320000.00 L 35838425.00 33000000.00 L 35958425.00 33000000.00 L 35958425.00 33320000.00  zM 36352126.00 33320000.00 L 36232126.00 33320000.00 L 36232126.00 33000000.00 L 36352126.00 33000000.00 L 36352126.00 33320000.00  zM 36548976.00 33320000.00 L 36428976.00 33320000.00 L 36428976.00 33000000.00 L 36548976.00 33000000.00 L 36548976.00 33320000.00  zM 36155276.00 33320000.00 L 36035276.00 33320000.00 L 36035276.00 33000000.00 L 36155276.00 33000000.00 L 36155276.00 33320000.00  zM 36745827.00 33320000.00 L 36625827.00 33320000.00 L 36625827.00 33000000.00 L 36745827.00 33000000.00 L 36745827.00 33320000.00  zM 36270863.73 33800006.78 m -161201.22 0 a 161201.22 161201.22 0 1 1 322402.43 0a 161201.22 161201.22 0 1 1 -322402.43 0M 36942677.00 33320000.00 L 36822677.00 33320000.00 L 36822677.00 33000000.00 L 36942677.00 33000000.00 L 36942677.00 33320000.00  zM 37400000.44 35199998.65 m -180637.35 0 a 180637.35 180637.35 0 1 1 361274.69 0a 180637.35 180637.35 0 1 1 -361274.69 0M 37900000.43 35350000.13 m -201348.87 0 a 201348.87 201348.87 0 1 1 402697.73 0a 201348.87 201348.87 0 1 1 -402697.73 0M 36799997.73 35600006.78 m -161201.22 0 a 161201.22 161201.22 0 1 1 322402.43 0a 161201.22 161201.22 0 1 1 -322402.43 0M 38400000.43 35350000.13 m -201348.87 0 a 201348.87 201348.87 0 1 1 402697.73 0a 201348.87 201348.87 0 1 1 -402697.73 0M 36899997.73 36500006.78 m -161201.22 0 a 161201.22 161201.22 0 1 1 322402.43 0a 161201.22 161201.22 0 1 1 -322402.43 0M 37400000.44 35999998.65 m -180637.35 0 a 180637.35 180637.35 0 1 1 361274.69 0a 180637.35 180637.35 0 1 1 -361274.69 0M 37900000.43 35850000.13 m -201348.87 0 a 201348.87 201348.87 0 1 1 402697.73 0a 201348.87 201348.87 0 1 1 -402697.73 0M 38400000.43 35850000.13 m -201348.87 0 a 201348.87 201348.87 0 1 1 402697.73 0a 201348.87 201348.87 0 1 1 -402697.73 0M 38617165.00 37302204.00 L 38182835.00 37302204.00 L 38182835.00 36946614.00 L 38617165.00 36946614.00 L 38617165.00 37302204.00  zM 37395275.00 38029744.00 L 36804725.00 38029744.00 A 80926.42 80926.42 0 0 1 36723800.00 37948819.00 L 36723800.00 37712599.00 A 80926.42 80926.42 0 0 1 36804725.00 37631674.00 L 37395275.00 37631674.00 A 80926.42 80926.42 0 0 1 37476200.00 37712599.00 L 37476200.00 37948819.00 A 80926.42 80926.42 0 0 1 37395275.00 38029744.00  zM 37099999.05 38500002.89 m -170598.11 0 a 170598.11 170598.11 0 1 1 341196.22 0a 170598.11 170598.11 0 1 1 -341196.22 0M 37395275.00 39368326.00 L 36804725.00 39368326.00 A 80926.42 80926.42 0 0 1 36723800.00 39287401.00 L 36723800.00 39051181.00 A 80926.42 80926.42 0 0 1 36804725.00 38970256.00 L 37395275.00 38970256.00 A 80926.42 80926.42 0 0 1 37476200.00 39051181.00 L 37476200.00 39287401.00 A 80926.42 80926.42 0 0 1 37395275.00 39368326.00  zM 38617165.00 37853385.00 L 38182835.00 37853385.00 L 38182835.00 37497795.00 L 38617165.00 37497795.00 L 38617165.00 37853385.00  zM 38302205.00 38736850.00 L 37907245.00 38736850.00 L 37907245.00 38263150.00 L 38302205.00 38263150.00 L 38302205.00 38736850.00  zM 38752392.00 33249238.00 L 38296432.00 33249238.00 L 38296432.00 32850762.00 L 38447483.12 32850762.00 L 38438308.00 32848937.00 A 161217.26 161217.26 0 1 1 38561692.00 32848937.00 L 38552516.88 32850762.00 L 38752392.00 32850762.00 L 38752392.00 33249238.00  zM 39403568.00 33249238.00 L 38947608.00 33249238.00 L 38947608.00 32850762.00 L 39403568.00 32850762.00 L 39403568.00 33249238.00  zM 39099997.73 33700006.78 m -161201.22 0 a 161201.22 161201.22 0 1 1 322402.43 0a 161201.22 161201.22 0 1 1 -322402.43 0M 40399997.73 33200006.78 m -161201.22 0 a 161201.22 161201.22 0 1 1 322402.43 0a 161201.22 161201.22 0 1 1 -322402.43 0M 40699997.73 34100006.78 m -161201.22 0 a 161201.22 161201.22 0 1 1 322402.43 0a 161201.22 161201.22 0 1 1 -322402.43 0M 38799997.73 34400006.78 m -161201.22 0 a 161201.22 161201.22 0 1 1 322402.43 0a 161201.22 161201.22 0 1 1 -322402.43 0M 38900000.43 35350000.13 m -201348.87 0 a 201348.87 201348.87 0 1 1 402697.73 0a 201348.87 201348.87 0 1 1 -402697.73 0M 39799997.73 35200006.78 m -161201.22 0 a 161201.22 161201.22 0 1 1 322402.43 0a 161201.22 161201.22 0 1 1 -322402.43 0M 38900000.43 35850000.13 m -201348.87 0 a 201348.87 201348.87 0 1 1 402697.73 0a 201348.87 201348.87 0 1 1 -402697.73 0M 39400000.44 35599998.65 m -180637.35 0 a 180637.35 180637.35 0 1 1 361274.69 0a 180637.35 180637.35 0 1 1 -361274.69 0M 38892756.00 38736850.00 L 38497796.00 38736850.00 L 38497796.00 38263150.00 L 38892756.00 38263150.00 L 38892756.00 38736850.00  zM 39199997.73 38500006.78 m -161201.22 0 a 161201.22 161201.22 0 1 1 322402.43 0a 161201.22 161201.22 0 1 1 -322402.43 0M 39799997.73 38100006.78 m -161201.22 0 a 161201.22 161201.22 0 1 1 322402.43 0a 161201.22 161201.22 0 1 1 -322402.43 0M 40502204.00 38336850.00 L 40107244.00 38336850.00 L 40107244.00 37863150.00 L 40502204.00 37863150.00 L 40502204.00 38336850.00  zM 41092755.00 38336850.00 L 40697795.00 38336850.00 L 40697795.00 37863150.00 L 41092755.00 37863150.00 L 41092755.00 38336850.00  zM 40899997.73 37600006.78 m -161201.22 0 a 161201.22 161201.22 0 1 1 322402.43 0a 161201.22 161201.22 0 1 1 -322402.43 0M 42099999.05 37500002.89 m -170598.11 0 a 170598.11 170598.11 0 1 1 341196.22 0a 170598.11 170598.11 0 1 1 -341196.22 0M 42395275.00 37029744.00 L 41804725.00 37029744.00 A 80926.42 80926.42 0 0 1 41723800.00 36948819.00 L 41723800.00 36712599.00 A 80926.42 80926.42 0 0 1 41804725.00 36631674.00 L 42395275.00 36631674.00 A 80926.42 80926.42 0 0 1 42476200.00 36712599.00 L 42476200.00 36948819.00 A 80926.42 80926.42 0 0 1 42395275.00 37029744.00  zM 42395275.00 38368326.00 L 41804725.00 38368326.00 A 80926.42 80926.42 0 0 1 41723800.00 38287401.00 L 41723800.00 38051181.00 A 80926.42 80926.42 0 0 1 41804725.00 37970256.00 L 42395275.00 37970256.00 A 80926.42 80926.42 0 0 1 42476200.00 38051181.00 L 42476200.00 38287401.00 A 80926.42 80926.42 0 0 1 42395275.00 38368326.00  zM 43600000.77 39399995.85 m -643101.15 0 a 643101.15 643101.15 0 1 1 1286202.30 0a 643101.15 643101.15 0 1 1 -1286202.30 0"/>
</g>
</svg>
