**ABCDEFGHIJKLMNOPQRSTUVWXYZabcdefghijklmnopqrstuvwxyz**************************
**PARASOLID !"#$%&'()*+,-./:;<=>?@[\]^_`{|}~0123456789**************************
**PART1;
MC=AMD64;
MC_MODEL=Intel64 Family 6 Model 158 Stepping 13, GenuineIntel;
MC_ID=unknown;
OS=Windows_NT;
OS_RELEASE=unknown;
FRU=CAD Exchanger 3.6.1 (cadexchanger.com);
APPL=unknown;
SITE=unknown;
USER=unknown;
FORMAT=text;
GUISE=transmit;
KEY=CAPC3225X20N_CMP-001-00083-2;
FILE=CAPC3225X20N_CMP-001-00083-2.x_t;
DATE=Wed Sep 30 21:50:37 2020;
**PART2;
SCH=SCH_1200000_12006;
USFLD_SIZE=0;
**PART3;
**END_OF_HEADER*****************************************************************
T51 : TRANSMIT FILE created by modeller version 120000017 SCH_1200000_120060 74
 3 1 3 0 2 105 206 12 2 68 0 3 0 0 0 0 1000 1e-008 0 0 0 1 0 1 1 39 7 13 11 36 1
2 10 70 3 0 2 0 0 4 1 20 0 4 4 1 T74 20 4 1 0 5 0 0 0 0 0 0 0 0 0 0 0 0 0 0 0 0
 0 0 0 81 1 5 7 33 6 0 0 42 0 35 14 6 5 5 1e-008 40 0 8 39 7 -0 0 40 0 37 50 7 6
 0 6 41 0 0 +0.00120000014 0.00134999984 0 1 -6.123233995736766e-017 0 -6.123233
995736766e-017 -1 0 15 8 8 0 9 6 0 17 9 0 8 17 29 10 14 12 0 50 +18 10 9 0 22 0
 15 11 ?2 29 11 10 0 10 16 0 0.00120000014 -0.00134999984 0 16 12 11 0 ?9 0 20 1
3 0 0 2 30 13 12 0 12 21 0 0 +0.00120000014 0.00134999984 0 -6.123233995736766e-
017 -1 0 17 14 0 99 90 50 15 9 12 0 87 -18 15 13 0 29 10 18 16 ?2 29 16 14 0 15
 19 11 0.00120000014 0.00134999984 0 17 17 0 8 23 9 18 22 20 0 57 +18 18 15 0 28
 15 24 19 ?2 29 19 16 0 18 25 16 0.00120000014 -0.00134999984 0.00200000108 16 2
0 17 0 ?17 12 26 21 0 0 2 30 21 18 0 20 27 13 0 +0.00120000014 -0.00134999984 0
 0 0 1 17 22 0 44 45 57 10 17 20 0 9 -17 23 0 8 29 17 24 28 26 0 94 -18 24 19 0
 32 18 46 25 ?2 29 25 20 0 24 47 19 0.00120000014 0.00134999984 0.00200000108 16
 26 21 0 ?28 20 30 27 0 0 2 30 27 22 0 26 31 21 0 +0.00120000014 0.00134999984 0
.00200000108 -6.123233995736766e-017 -1 0 17 28 0 104 60 94 18 23 26 0 17 +17 29
 0 8 9 23 15 32 30 0 14 -16 30 23 0 ?32 26 48 31 0 0 2 30 31 24 0 30 49 27 0 +0.
00120000014 0.00134999984 0 0 0 1 17 32 0 86 91 87 24 29 30 0 23 +80 1 33 0 34 8
001 0 0 0 0 3 5 0 0 FFFFTFTFFFFFFF2 79 15 34 SDL/TYSA_COLOUR83 3 35 0.7529411911
964417 0.7529411911964417 0.7529411911964417 19 36 1 0 2 38 0 37 V13 37 2 0 2 0
 0 0 0 36 6 19 38 3 0 2 0 36 39 S13 39 4 0 2 0 6 0 0 38 0 14 40 25 42 1e-008 61
 6 44 39 41 -0 0 61 6 37 50 41 26 0 40 62 7 0 +0.00120000014 -0.00134999984 0 6.
123233995736766e-017 1 0 1 -6.123233995736766e-017 0 81 1 42 27 33 40 0 0 63 5 4
3 83 3 43 0.7529411911964417 0.7529411911964417 0.7529411911964417 15 44 28 0 45
 40 0 17 45 0 44 51 22 46 50 48 0 56 +18 46 29 0 45 24 52 47 ?2 29 47 30 0 46 53
 25 0.00169999914 -0.00134999984 0 16 48 31 0 ?45 30 54 49 0 0 2 30 49 32 0 48 5
5 31 0 +0.00120000014 -0.00134999984 0 1 -6.123233995736766e-017 0 17 50 0 99 14
 71 10 45 48 0 0 -17 51 0 44 57 45 52 56 54 0 78 +18 52 33 0 60 46 67 53 ?2 29 5
3 34 0 52 68 47 0.00169999914 -0.00134999984 0.00200000108 16 54 35 0 ?51 48 58
 55 0 0 2 30 55 36 0 54 59 49 0 +0.00169999914 -0.00134999984 0 0 0 1 17 56 0 65
 66 78 46 51 54 0 71 -17 57 0 44 22 51 18 60 58 0 0 -16 58 37 0 ?60 54 69 59 0 0
 2 30 59 38 0 58 70 55 0 +0.00120000014 -0.00134999984 0.00200000108 1 -6.123233
995736766e-017 0 17 60 0 104 81 28 52 57 58 0 51 +14 61 39 63 1e-008 82 40 65 39
 62 -0 0 82 40 37 50 62 40 0 61 83 41 0 +0.00169999914 -0.00134999984 0 -1 6.123
233995736766e-017 0 6.123233995736766e-017 1 0 81 1 63 41 33 61 0 0 84 42 64 83
 3 64 0.7529411911964417 0.7529411911964417 0.7529411911964417 15 65 42 0 66 61
 0 17 66 0 65 72 56 67 71 69 0 77 +18 67 43 0 66 52 73 68 ?2 29 68 44 0 67 74 53
 0.00169999914 0.00134999984 0 16 69 45 0 ?66 58 75 70 0 0 2 30 70 46 0 69 76 59
 0 +0.00169999914 -0.00134999984 0 6.123233995736766e-017 1 0 17 71 0 99 50 90 4
6 66 69 0 0 -17 72 0 65 78 66 73 77 75 0 81 +18 73 47 0 72 67 0 74 ?2 29 74 48 0
 73 0 68 0.00169999914 0.00134999984 0.00200000108 16 75 49 0 ?72 69 79 76 0 0 2
 30 76 50 0 75 80 70 0 +0.00169999914 0.00134999984 0 0 0 1 17 77 0 86 87 91 67
 72 75 0 90 -17 78 0 65 56 72 52 81 79 0 0 -16 79 51 0 ?81 75 88 80 0 0 2 30 80
 52 0 79 89 76 0 +0.00169999914 -0.00134999984 0.00200000108 6.123233995736766e-
017 1 0 17 81 0 104 94 60 73 78 79 0 91 +14 82 53 84 1e-008 95 61 86 39 83 -0 0
 95 61 37 50 83 54 0 82 96 62 0 +0.00169999914 0.00134999984 0 -6.12323399573676
6e-017 -1 0 -1 6.123233995736766e-017 0 81 1 84 55 33 82 0 0 97 63 85 83 3 85 0.
7529411911964417 0.7529411911964417 0.7529411911964417 15 86 56 0 87 82 0 17 87
 0 86 32 77 15 90 88 0 0 +16 88 57 0 ?87 79 92 89 0 0 2 30 89 58 0 88 93 80 0 +0
.00169999914 0.00134999984 0 -1 6.123233995736766e-017 0 17 90 0 99 71 14 67 87
 88 0 0 -17 91 0 86 77 32 73 94 92 0 0 -16 92 59 0 ?94 88 0 93 0 0 2 30 93 60 0
 92 0 89 0 +0.00169999914 0.00134999984 0.00200000108 -1 6.123233995736766e-017
 0 17 94 0 104 28 81 24 91 92 0 0 +14 95 61 97 1e-008 100 82 99 39 96 +0 0 100 8
2 37 50 96 62 0 95 101 83 0 +0.00120000014 0.00134999984 0 -0 0 -1 -6.1232339957
36766e-017 -1 0 81 1 97 63 33 95 0 0 102 84 98 83 3 98 0.7529411911964417 0.7529
411911964417 0.7529411911964417 15 99 64 0 90 95 0 14 100 65 102 1e-008 0 95 104
 39 101 -0 0 0 95 37 50 101 66 0 100 0 96 0 +0.00120000014 0.00134999984 0.00200
000108 -0 0 -1 -6.123233995736766e-017 -1 0 81 1 102 67 33 100 0 0 0 97 103 83 3
 103 0.7529411911964417 0.7529411911964417 0.7529411911964417 15 104 68 0 28 100
 0 12 105 68 0 106 0 0 0 0 1000 1e-008 0 0 0 1 0 1 1 140 110 116 114 137 115 113
 70 106 0 105 0 0 4 1 20 0 107 107 1 T74 20 107 1 0 108 0 0 0 0 0 0 0 0 0 0 0 0
 0 0 0 0 0 0 0 81 1 108 7 33 109 0 0 143 0 136 14 109 5 108 1e-008 141 0 111 140
 110 -0 0 141 0 138 50 110 6 0 109 142 0 0 +-0.00169999914 0.00134999984 0 1 -6.
123233995736766e-017 0 -6.123233995736766e-017 -1 0 15 111 8 0 112 109 0 17 112
 0 111 120 132 113 117 115 0 151 +18 113 9 0 112 0 118 114 ?105 29 114 10 0 113
 119 0 -0.00169999914 -0.00134999984 0 16 115 11 0 ?112 0 123 116 0 0 105 30 116
 12 0 115 124 0 0 +-0.00169999914 0.00134999984 0 -6.123233995736766e-017 -1 0 1
7 117 0 200 191 151 118 112 115 0 188 -18 118 13 0 132 113 121 119 ?105 29 119 1
4 0 118 122 114 -0.00169999914 0.00134999984 0 17 120 0 111 126 112 121 125 123
 0 158 +18 121 15 0 131 118 127 122 ?105 29 122 16 0 121 128 119 -0.00169999914
 -0.00134999984 0.00200000108 16 123 17 0 ?120 115 129 124 0 0 105 30 124 18 0 1
23 130 116 0 +-0.00169999914 -0.00134999984 0 0 0 1 17 125 0 145 146 158 113 120
 123 0 0 -17 126 0 111 132 120 127 131 129 0 0 -18 127 19 0 135 121 147 128 ?105
 29 128 20 0 127 148 122 -0.00169999914 0.00134999984 0.00200000108 16 129 21 0
 ?131 123 133 130 0 0 105 30 130 22 0 129 134 124 0 +-0.00169999914 0.0013499998
4 0.00200000108 -6.123233995736766e-017 -1 0 17 131 0 205 161 195 121 126 129 0
 120 +17 132 0 111 112 126 118 135 133 0 117 -16 133 23 0 ?135 129 149 134 0 0 1
05 30 134 24 0 133 150 130 0 +-0.00169999914 0.00134999984 0 0 0 1 17 135 0 187
 192 188 127 132 133 0 195 +83 3 136 0.7529411911964417 0.7529411911964417 0.752
9411911964417 19 137 1 0 105 139 0 138 V13 138 2 0 105 0 0 0 0 137 109 19 139 3
 0 105 0 137 140 S13 140 4 0 105 0 109 0 0 139 0 14 141 25 143 1e-008 162 109 14
5 140 142 -0 0 162 109 138 50 142 26 0 141 163 110 0 +-0.00169999914 -0.00134999
984 0 6.123233995736766e-017 1 0 1 -6.123233995736766e-017 0 81 1 143 27 33 141
 0 0 164 108 144 83 3 144 0.7529411911964417 0.7529411911964417 0.75294119119644
17 15 145 28 0 146 141 0 17 146 0 145 152 125 147 151 149 0 172 +18 147 29 0 146
 127 153 148 ?105 29 148 30 0 147 154 128 -0.00120000014 -0.00134999984 0 16 149
 31 0 ?146 133 155 150 0 0 105 30 150 32 0 149 156 134 0 +-0.00169999914 -0.0013
4999984 0 1 -6.123233995736766e-017 0 17 151 0 200 117 172 113 146 149 0 125 -17
 152 0 145 158 146 153 157 155 0 179 +18 153 33 0 161 147 168 154 ?105 29 154 34
 0 153 169 148 -0.00120000014 -0.00134999984 0.00200000108 16 155 35 0 ?152 149
 159 156 0 0 105 30 156 36 0 155 160 150 0 +-0.00120000014 -0.00134999984 0 0 0
 1 17 157 0 166 167 179 147 152 155 0 0 -17 158 0 145 125 152 121 161 159 0 0 -1
6 159 37 0 ?161 155 170 160 0 0 105 30 160 38 0 159 171 156 0 +-0.00169999914 -0
.00134999984 0.00200000108 1 -6.123233995736766e-017 0 17 161 0 205 182 131 153
 158 159 0 152 +14 162 39 164 1e-008 183 141 166 140 163 -0 0 183 141 138 50 163
 40 0 162 184 142 0 +-0.00120000014 -0.00134999984 0 -1 6.123233995736766e-017 0
 6.123233995736766e-017 1 0 81 1 164 41 33 162 0 0 185 143 165 83 3 165 0.752941
1911964417 0.7529411911964417 0.7529411911964417 15 166 42 0 167 162 0 17 167 0
 166 173 157 168 172 170 0 191 +18 168 43 0 167 153 174 169 ?105 29 169 44 0 168
 175 154 -0.00120000014 0.00134999984 0 16 170 45 0 ?167 159 176 171 0 0 105 30
 171 46 0 170 177 160 0 +-0.00120000014 -0.00134999984 0 6.123233995736766e-017
 1 0 17 172 0 200 151 191 147 167 170 0 157 -17 173 0 166 179 167 174 178 176 0
 0 +18 174 47 0 192 168 0 175 ?105 29 175 48 0 174 0 169 -0.00120000014 0.001349
99984 0.00200000108 16 176 49 0 ?173 170 180 177 0 0 105 30 177 50 0 176 181 171
 0 +-0.00120000014 0.00134999984 0 0 0 1 17 178 0 187 188 192 168 173 176 0 0 -1
7 179 0 166 157 173 153 182 180 0 0 -16 180 51 0 ?182 176 189 181 0 0 105 30 181
 52 0 180 190 177 0 +-0.00120000014 -0.00134999984 0.00200000108 6.1232339957367
66e-017 1 0 17 182 0 205 195 161 174 179 180 0 173 +14 183 53 185 1e-008 196 162
 187 140 184 -0 0 196 162 138 50 184 54 0 183 197 163 0 +-0.00120000014 0.001349
99984 0 -6.123233995736766e-017 -1 0 -1 6.123233995736766e-017 0 81 1 185 55 33
 183 0 0 198 164 186 83 3 186 0.7529411911964417 0.7529411911964417 0.7529411911
964417 15 187 56 0 188 183 0 17 188 0 187 135 178 118 191 189 0 0 +16 189 57 0 ?
188 180 193 190 0 0 105 30 190 58 0 189 194 181 0 +-0.00120000014 0.00134999984
 0 -1 6.123233995736766e-017 0 17 191 0 200 172 117 168 188 189 0 178 -17 192 0
 187 178 135 174 195 193 0 182 -16 193 59 0 ?195 189 0 194 0 0 105 30 194 60 0 1
93 0 190 0 +-0.00120000014 0.00134999984 0.00200000108 -1 6.123233995736766e-017
 0 17 195 0 205 131 182 127 192 193 0 126 +14 196 61 198 1e-008 201 183 200 140
 197 +0 0 201 183 138 50 197 62 0 196 202 184 0 +-0.00169999914 0.00134999984 0
 -0 0 -1 -6.123233995736766e-017 -1 0 81 1 198 63 33 196 0 0 203 185 199 83 3 19
9 0.7529411911964417 0.7529411911964417 0.7529411911964417 15 200 64 0 191 196 0
 14 201 65 203 1e-008 0 196 205 140 202 -0 0 0 196 138 50 202 66 0 201 0 197 0 +
-0.00169999914 0.00134999984 0.00200000108 -0 0 -1 -6.123233995736766e-017 -1 0
 81 1 203 67 33 201 0 0 0 198 204 83 3 204 0.7529411911964417 0.7529411911964417
 0.7529411911964417 15 205 68 0 131 201 0 12 206 68 0 207 0 0 0 0 1000 1e-008 0
 0 0 1 0 1 1 241 211 217 215 238 216 214 70 207 0 206 0 0 4 1 20 0 208 208 1 T74
 20 208 1 0 209 0 0 0 0 0 0 0 0 0 0 0 0 0 0 0 0 0 0 0 81 1 209 7 33 210 0 0 244
 0 237 14 210 5 209 1e-008 242 0 212 241 211 -0 0 242 0 239 50 211 6 0 210 243 0
 0 +-0.00120000014 0.00134999984 0 1 -6.123233995736766e-017 0 -6.12323399573676
6e-017 -1 0 15 212 8 0 213 210 0 17 213 0 212 221 233 214 218 216 0 252 +18 214
 9 0 213 0 219 215 ?206 29 215 10 0 214 220 0 -0.00120000014 -0.00134999984 0 16
 216 11 0 ?213 0 224 217 0 0 206 30 217 12 0 216 225 0 0 +-0.00120000014 0.00134
999984 0 -6.123233995736766e-017 -1 0 17 218 0 301 292 252 219 213 216 0 289 -18
 219 13 0 233 214 222 220 ?206 29 220 14 0 219 223 215 -0.00120000014 0.00134999
984 0 17 221 0 212 227 213 222 226 224 0 0 +18 222 15 0 232 219 228 223 ?206 29
 223 16 0 222 229 220 -0.00120000014 -0.00134999984 0.00200000108 16 224 17 0 ?2
21 216 230 225 0 0 206 30 225 18 0 224 231 217 0 +-0.00120000014 -0.00134999984
 0 0 0 1 17 226 0 246 247 259 214 221 224 0 0 -17 227 0 212 233 221 228 232 230
 0 296 -18 228 19 0 236 222 248 229 ?206 29 229 20 0 228 249 223 -0.00120000014
 0.00134999984 0.00200000108 16 230 21 0 ?232 224 234 231 0 0 206 30 231 22 0 23
0 235 225 0 +-0.00120000014 0.00134999984 0.00200000108 -6.123233995736766e-017
 -1 0 17 232 0 306 262 296 222 227 230 0 259 +17 233 0 212 213 227 219 236 234 0
 218 -16 234 23 0 ?236 230 250 235 0 0 206 30 235 24 0 234 251 231 0 +-0.0012000
0014 0.00134999984 0 0 0 1 17 236 0 288 293 289 228 233 234 0 227 +83 3 237 0.81
17647171020508 0.7882353067398071 0.7098039388656616 19 238 1 0 206 240 0 239 V1
3 239 2 0 206 0 0 0 0 238 210 19 240 3 0 206 0 238 241 S13 241 4 0 206 0 210 0 0
 240 0 14 242 25 244 1e-008 263 210 246 241 243 -0 0 263 210 239 50 243 26 0 242
 264 211 0 +-0.00120000014 -0.00134999984 0 6.123233995736766e-017 1 0 1 -6.1232
33995736766e-017 0 81 1 244 27 33 242 0 0 265 209 245 83 3 245 0.811764717102050
8 0.7882353067398071 0.7098039388656616 15 246 28 0 247 242 0 17 247 0 246 253 2
26 248 252 250 0 258 +18 248 29 0 247 228 254 249 ?206 29 249 30 0 248 255 229 0
.00120000014 -0.00134999984 0 16 250 31 0 ?247 234 256 251 0 0 206 30 251 32 0 2
50 257 235 0 +-0.00120000014 -0.00134999984 0 1 -6.123233995736766e-017 0 17 252
 0 301 218 273 214 247 250 0 226 -17 253 0 246 259 247 254 258 256 0 262 +18 254
 33 0 253 248 269 255 ?206 29 255 34 0 254 270 249 0.00120000014 -0.00134999984
 0.00200000108 16 256 35 0 ?253 250 260 257 0 0 206 30 257 36 0 256 261 251 0 +0
.00120000014 -0.00134999984 0 0 0 1 17 258 0 267 268 280 248 253 256 0 273 -17 2
59 0 246 226 253 222 262 260 0 221 -16 260 37 0 ?262 256 271 261 0 0 206 30 261
 38 0 260 272 257 0 +-0.00120000014 -0.00134999984 0.00200000108 1 -6.1232339957
36766e-017 0 17 262 0 306 283 232 254 259 260 0 280 +14 263 39 265 1e-008 284 24
2 267 241 264 -0 0 284 242 239 50 264 40 0 263 285 243 0 +0.00120000014 -0.00134
999984 0 -1 6.123233995736766e-017 0 6.123233995736766e-017 1 0 81 1 265 41 33 2
63 0 0 286 244 266 83 3 266 0.8117647171020508 0.7882353067398071 0.709803938865
6616 15 267 42 0 268 263 0 17 268 0 267 274 258 269 273 271 0 279 +18 269 43 0 2
68 254 275 270 ?206 29 270 44 0 269 276 255 0.00120000014 0.00134999984 0 16 271
 45 0 ?268 260 277 272 0 0 206 30 272 46 0 271 278 261 0 +0.00120000014 -0.00134
999984 0 6.123233995736766e-017 1 0 17 273 0 301 252 292 248 268 271 0 0 -17 274
 0 267 280 268 275 279 277 0 293 +18 275 47 0 283 269 0 276 ?206 29 276 48 0 275
 0 270 0.00120000014 0.00134999984 0.00200000108 16 277 49 0 ?274 271 281 278 0
 0 206 30 278 50 0 277 282 272 0 +0.00120000014 0.00134999984 0 0 0 1 17 279 0 2
88 289 293 269 274 277 0 292 -17 280 0 267 258 274 254 283 281 0 0 -16 281 51 0
 ?283 277 290 282 0 0 206 30 282 52 0 281 291 278 0 +0.00120000014 -0.0013499998
4 0.00200000108 6.123233995736766e-017 1 0 17 283 0 306 296 262 275 280 281 0 27
4 +14 284 53 286 1e-008 297 263 288 241 285 -0 0 297 263 239 50 285 54 0 284 298
 264 0 +0.00120000014 0.00134999984 0 -6.123233995736766e-017 -1 0 -1 6.12323399
5736766e-017 0 81 1 286 55 33 284 0 0 299 265 287 83 3 287 0.8117647171020508 0.
7882353067398071 0.7098039388656616 15 288 56 0 289 284 0 17 289 0 288 236 279 2
19 292 290 0 0 +16 290 57 0 ?289 281 294 291 0 0 206 30 291 58 0 290 295 282 0 +
0.00120000014 0.00134999984 0 -1 6.123233995736766e-017 0 17 292 0 301 273 218 2
69 289 290 0 0 -17 293 0 288 279 236 275 296 294 0 0 -16 294 59 0 ?296 290 0 295
 0 0 206 30 295 60 0 294 0 291 0 +0.00120000014 0.00134999984 0.00200000108 -1 6
.123233995736766e-017 0 17 296 0 306 232 283 228 293 294 0 0 +14 297 61 299 1e-0
08 302 284 301 241 298 +0 0 302 284 239 50 298 62 0 297 303 285 0 +-0.0012000001
4 0.00134999984 0 -0 0 -1 -6.123233995736766e-017 -1 0 81 1 299 63 33 297 0 0 30
4 286 300 83 3 300 0.8117647171020508 0.7882353067398071 0.7098039388656616 15 3
01 64 0 292 297 0 14 302 65 304 1e-008 0 297 306 241 303 -0 0 0 297 239 50 303 6
6 0 302 0 298 0 +-0.00120000014 0.00134999984 0.00200000108 -0 0 -1 -6.123233995
736766e-017 -1 0 81 1 304 67 33 302 0 0 0 299 305 83 3 305 0.8117647171020508 0.
7882353067398071 0.7098039388656616 15 306 68 0 232 302 0 1 0 
