**ABCDEFGHIJKLMNOPQRSTUVWXYZabcdefghijklmnopqrstuvwxyz**************************
**PARASOLID !"#$%&'()*+,-./:;<=>?@[\]^_`{|}~0123456789**************************
**PART1;
MC=AMD64;
MC_MODEL=Intel64 Family 6 Model 58 Stepping 0, GenuineIntel;
MC_ID=unknown;
OS=Windows_NT;
OS_RELEASE=unknown;
FRU=Parasolid Version 31.1, build 284, 10- 9-2019;
APPL=SOLIDWORKS 2020-2019357;
SITE=;
USER=unknown;
FORMAT=text;
GUISE=transmit;
KEY=36F89071-094B-4627-8F90-568BF422DD5D;
FILE=36F89071-094B-4627-8F90-568BF422DD5D.x_t;
DATE=Thu Oct  8 15:44:06 2020;
**PART2;
SCH=SCH_3101284_31100;
USFLD_SIZE=0;
**PART3;
**END_OF_HEADER*****************************************************************
T51 : TRANSMIT FILE created by modeller version 310128423 SCH_3101284_31100_1300
6222 0 12 34 CCCCCCI4 mesh1006 0 I8 polyline1008 0 CCCCCCCDI5 owner1040 0 CCCCCC
I13 boundary_mesh1006 0 I17 boundary_polyline1008 0 CCCA16 index_map_offset0 0 1
 dA9 index_map82 0 A17 node_id_index_map82 0 A20 schema_embedding_map82 0 A5 chi
ld12 0 A14 lowest_node_id0 0 1 dA16 mesh_offset_data206 0 Z1 795 2 3 0 0 0 0 0 0
 1e3 1e-8 0 4 0 1 0 1 1 5 6 7 8 0 0 9 10 11 0 0 0 0 0 0 0 81 255 2 2 770 12 1 13
 0 0 0 0 14 70 11 CI9 list_type0 0 1 uI10 notransmit0 0 1 lCCCDCCDI12 finger_ind
ex0 0 1 dI12 finger_block1012 0 CZ3 0 4 T1 0 0 7 20 1 15 15 13 255 5 94 0 1 0 16
 0 0 17 0 50 255 6 93 0 18 19 0 0 +-.0016 9e-4 -.00125 1 0 -173472347597681e-30
 -173472347597681e-30 0 -1 133 255 7 322 0 20 21 0 0 +22 .00155 0 .00125 .0016 0
 .00125 -500000000000066e-19 0 29 255 8 539 0 11 23 0 -.00155 0 -.00125 19 8 CCC
CCCCA5 owner12 0 Z9 28 0 1 17 0 24 V0 16 255 10 131 0 ?25 0 26 27 0 0 1 18 255 1
1 537 0 28 0 29 8 ?1 17 255 28 0 30 31 32 11 33 34 0 35 +18 29 429 0 36 11 37 23
 ?1 17 36 0 30 38 39 29 40 41 0 42 +18 37 324 0 43 29 44 45 ?1 29 23 431 0 29 45
 8 65e-5 0 -.00125 29 45 326 0 37 46 23 .00155 0 45e-5 29 46 191 0 44 47 45 -65e
-5 0 45e-5 18 44 189 0 48 37 49 46 ?1 29 47 185 0 49 50 46 -.00155 0 85e-5 18 49
 183 0 51 44 52 47 ?1 29 50 182 0 52 53 47 -65e-5 0 .00125 18 52 179 0 54 49 55
 50 1e-8 1 29 53 176 0 55 56 50 -.00155 0 .00125 18 55 174 0 57 52 58 53 1e-8 1
 29 56 70 0 59 60 53 -.0016 0 -.00125 18 59 61 0 31 61 62 56 ?1 29 60 71 0 62 63
 56 .0016 0 -.00125 18 62 62 0 64 59 65 60 ?1 29 63 72 0 65 66 60 .0016 0 .00125
 18 65 63 0 67 62 68 63 ?1 29 66 73 0 68 69 63 -.0016 0 .00125 18 68 64 0 70 65
 71 66 ?1 29 69 27 0 58 72 66 -.0016 9e-4 -.00125 18 58 25 0 73 55 74 69 ?1 29 7
2 24 0 74 75 69 .0016 9e-4 -.00125 18 74 22 0 76 58 77 72 ?1 29 75 21 0 77 78 72
 .0016 9e-4 .00125 18 77 19 0 79 74 61 75 ?1 29 78 18 0 61 80 75 -.0016 9e-4 .00
125 18 61 16 0 81 77 59 78 ?1 29 80 298 0 82 83 78 -.0011 0 45e-5 18 82 235 0 84
 85 86 80 ?1 29 83 300 0 71 87 80 -.00155 -1e-5 .00125 18 71 243 0 88 68 89 83 ?
1 29 87 301 0 89 90 83 -65e-5 -1e-5 .00125 18 89 242 0 91 71 92 87 ?1 29 90 302
 0 92 93 87 -65e-5 -1e-5 45e-5 18 92 241 0 94 89 95 90 ?1 29 93 303 0 95 96 90 -
.0011 -1e-5 45e-5 18 95 240 0 97 92 85 93 ?1 29 96 304 0 85 98 93 -.00155 -1e-5
 85e-5 18 85 236 0 99 95 82 96 ?1 29 98 416 0 100 101 96 .00155 0 .00125 18 100
 369 0 102 103 104 98 ?1 29 101 418 0 104 105 98 65e-5 0 45e-5 18 104 366 0 106
 100 107 101 ?1 29 105 419 0 107 108 101 65e-5 0 .00125 18 107 373 0 109 104 110
 105 ?1 29 108 420 0 86 111 105 .00155 -1e-5 .00125 18 86 372 0 112 82 113 108 ?
1 29 111 421 0 113 114 108 .00155 -1e-5 45e-5 18 113 371 0 115 86 116 111 ?1 29
 114 422 0 116 117 111 65e-5 -1e-5 45e-5 18 116 370 0 118 113 103 114 ?1 29 117
 423 0 103 119 114 65e-5 -1e-5 .00125 18 103 367 0 120 116 100 117 ?1 29 119 524
 0 121 122 117 .00155 0 -.00125 18 121 477 0 123 124 125 119 ?1 29 122 526 0 125
 126 119 65e-5 0 -45e-5 18 125 474 0 127 121 128 122 ?1 29 126 527 0 128 129 122
 .00155 0 -45e-5 18 128 481 0 130 125 131 126 ?1 29 129 528 0 110 132 126 .00155
 -1e-5 -.00125 18 110 480 0 133 107 134 129 ?1 29 132 529 0 134 135 129 65e-5 -1
e-5 -.00125 18 134 479 0 136 110 137 132 ?1 29 135 530 0 137 138 132 65e-5 -1e-5
 -45e-5 18 137 478 0 139 134 124 135 ?1 29 138 531 0 124 140 135 .00155 -1e-5 -4
5e-5 18 124 475 0 141 137 121 138 ?1 29 140 633 0 142 143 138 -.00155 0 -45e-5 1
8 142 584 0 144 145 146 140 ?1 29 143 634 0 146 147 140 -65e-5 0 -45e-5 18 146 5
82 0 148 142 149 143 ?1 29 147 635 0 149 150 143 -65e-5 0 -.00125 18 149 589 0 1
51 146 0 147 ?1 29 150 636 0 131 152 147 -.00155 -1e-5 -.00125 18 131 588 0 153
 128 154 150 ?1 29 152 637 0 154 155 150 -.00155 -1e-5 -45e-5 18 154 587 0 156 1
31 157 152 ?1 29 155 638 0 157 158 152 -65e-5 -1e-5 -45e-5 18 157 586 0 159 154
 145 155 ?1 29 158 639 0 145 0 155 -65e-5 -1e-5 -.00125 18 145 583 0 160 157 142
 158 ?1 17 160 0 161 151 162 145 159 163 0 164 -15 255 161 597 0 148 165 0 17 15
1 0 161 148 160 149 166 167 0 168 +17 162 0 161 160 148 157 169 170 0 171 -17 15
9 0 172 156 164 157 160 163 0 162 +16 163 573 0 ?159 173 174 175 0 0 1 17 164 0
 172 159 153 145 32 174 0 166 +15 172 608 0 164 176 0 17 153 0 172 164 156 131 1
77 178 0 33 +17 32 0 30 28 166 131 164 174 0 0 -16 174 570 0 ?164 163 179 180 0
 0 1 17 166 0 30 32 38 145 151 167 0 0 -15 30 78 0 181 182 0 17 38 0 30 166 36 1
49 183 184 0 0 +16 167 561 0 ?151 185 170 186 0 0 1 16 185 446 0 ?187 188 167 18
9 0 0 1 16 170 565 0 ?169 167 190 191 0 0 1 30 255 186 620 0 167 191 192 0 +-65e
-5 -1e-5 -.00125 0 1 0 30 191 621 0 170 193 186 0 +-65e-5 -1e-5 -45e-5 0 1 0 30
 192 523 0 194 186 195 0 +.00155 -1e-5 -.00125 0 0 1 16 194 462 0 ?196 197 198 1
92 0 0 1 30 195 522 0 197 192 199 0 +.00155 -1e-5 -45e-5 -1 0 602334540269725e-3
1 16 197 465 0 ?139 200 194 195 0 0 1 30 199 521 0 200 195 201 0 +65e-5 -1e-5 -.
00125 271050543121376e-30 0 -1 16 200 468 0 ?136 202 197 199 0 0 1 30 201 520 0
 202 199 189 0 +.00155 -1e-5 -.00125 1 0 -24093381610789e-29 16 202 471 0 ?133 2
03 200 201 0 0 1 30 189 519 0 185 201 204 0 +.00155 0 -.00125 0 0 1 30 204 518 0
 188 189 205 0 +.00155 0 -45e-5 -1 0 602334540269725e-31 16 188 450 0 ?127 198 1
85 204 0 0 1 30 205 517 0 198 204 206 0 +65e-5 0 -.00125 271050543121376e-30 0 -
1 16 198 454 0 ?42 194 188 205 0 0 1 30 206 515 0 203 205 207 0 +.00155 -1e-5 -.
00125 0 1 0 16 203 449 0 ?123 41 202 206 0 0 1 30 207 514 0 41 206 208 0 +65e-5
 -1e-5 -.00125 0 1 0 16 41 461 0 ?36 209 203 207 0 0 1 30 208 513 0 209 207 210
 0 +65e-5 -1e-5 -45e-5 0 1 0 16 209 457 0 ?211 212 41 208 0 0 1 30 210 512 0 212
 208 213 0 +.00155 -1e-5 -45e-5 0 1 0 16 212 453 0 ?130 214 209 210 0 0 1 30 213
 415 0 215 210 216 0 +.00155 -1e-5 .00125 -1 0 -24093381610789e-29 16 215 354 0
 ?217 218 219 213 0 0 1 30 216 414 0 218 213 220 0 +65e-5 -1e-5 .00125 -27105054
3121376e-30 0 -1 16 218 357 0 ?118 221 215 216 0 0 1 30 220 413 0 221 216 222 0
 +.00155 -1e-5 45e-5 1 0 602334540269725e-31 16 221 360 0 ?115 223 218 220 0 0 1
 30 222 412 0 223 220 224 0 +.00155 -1e-5 .00125 0 0 1 16 223 363 0 ?112 225 221
 222 0 0 1 30 224 410 0 214 222 226 0 +65e-5 0 .00125 -271050543121376e-30 0 -1
 16 214 342 0 ?106 227 212 224 0 0 1 30 226 409 0 227 224 228 0 +.00155 0 45e-5
 1 0 602334540269725e-31 16 227 346 0 ?229 219 214 226 0 0 1 30 228 408 0 219 22
6 230 0 +.00155 0 .00125 0 0 1 16 219 350 0 ?102 215 227 228 0 0 1 30 230 407 0
 225 228 231 0 +.00155 -1e-5 .00125 0 1 0 16 225 341 0 ?232 233 223 230 0 0 1 30
 231 406 0 233 230 234 0 +.00155 -1e-5 45e-5 0 1 0 16 233 353 0 ?43 235 225 231
 0 0 1 30 234 405 0 235 231 236 0 +65e-5 -1e-5 45e-5 0 1 0 16 235 349 0 ?237 238
 233 234 0 0 1 30 236 404 0 238 234 239 0 +65e-5 -1e-5 .00125 0 1 0 16 238 345 0
 ?109 240 235 236 0 0 1 30 239 294 0 241 236 242 0 +-.00155 -1e-5 .00125 0 0 -1
 16 241 220 0 ?243 244 245 239 0 0 1 30 242 293 0 244 239 246 0 +-.00155 -1e-5 8
5e-5 .74740931868366 0 -.66436383882992 16 244 223 0 ?97 247 241 242 0 0 1 30 24
6 292 0 247 242 248 0 +-.0011 -1e-5 45e-5 1 0 -120466908053945e-30 16 247 226 0
 ?94 249 244 246 0 0 1 30 248 291 0 249 246 250 0 +-65e-5 -1e-5 .00125 -27105054
3121376e-30 0 1 16 249 229 0 ?91 251 247 248 0 0 1 30 250 290 0 251 248 252 0 +-
.00155 -1e-5 .00125 -1 0 24093381610789e-29 16 251 232 0 ?88 253 249 250 0 0 1 3
0 252 288 0 254 250 255 0 +-.00155 0 85e-5 .74740931868366 0 -.66436383882992 16
 254 204 0 ?256 257 240 252 0 0 1 30 255 287 0 257 252 258 0 +-.0011 0 45e-5 1 0
 -120466908053945e-30 16 257 208 0 ?259 245 254 255 0 0 1 30 258 286 0 1 255 260
 261 +-65e-5 0 .00125 -271050543121376e-30 0 1 30 260 282 0 262 258 263 0 +-65e-
5 -1e-5 45e-5 0 1 0 141 255 261 264 261 261 258 133 264 312 0 245 265 266 0 +258
 -65e-5 0 45e-5 -65e-5 0 .00125 -8e-4 0 16 245 212 0 ?267 241 257 264 0 0 1 30 2
65 311 0 1 268 264 269 +-.00155 -1e-5 .00125 0 1 0 133 266 313 0 270 264 21 0 +2
1 -65e-5 -1e-5 .00125 -65e-5 -33881317890172e-34 .00125 0 1e-5 16 270 219 0 ?271
 262 253 266 0 0 1 30 21 314 0 1 266 7 272 +-65e-5 -1e-5 .00125 0 1 0 141 272 26
6 272 272 21 17 271 0 273 274 275 52 276 270 0 0 +16 262 215 0 ?277 278 270 260
 0 0 1 16 253 203 0 ?279 270 251 268 0 0 1 17 279 0 280 281 282 55 283 253 0 0 +
133 268 310 0 253 284 265 0 +265 -.00155 -1e-5 .00125 -.00155 -33881317890172e-3
4 .00125 0 1e-5 30 284 307 0 1 285 268 286 +-.00155 0 .00125 0 0 -1 133 285 306
 0 240 287 284 0 +284 -.00155 0 .00125 -.00155 0 85e-5 216840434497101e-33 4e-4
 141 286 285 286 286 284 16 240 200 0 ?281 254 238 285 0 0 1 133 287 181 0 288 2
89 285 0 +22 -65e-5 0 .00125 65e-5 0 .00125 -.00225 -95e-5 16 288 180 0 ?274 290
 20 287 0 0 1 133 289 178 0 290 27 287 0 +22 -.0016 0 .00125 -.00155 0 .00125 -.
0032 -.00315 30 22 68 0 1 291 292 293 +.0016 0 .00125 1 0 0 30 291 69 0 294 295
 22 0 +-.0016 0 -.00125 173472347597681e-30 0 1 30 292 67 0 296 22 297 0 +.0016
 0 -.00125 -867361737988404e-31 0 -1 141 293 287 298 299 22 141 298 7 299 293 22
 141 299 289 293 298 22 16 296 49 0 ?64 300 290 292 0 0 1 30 297 66 0 301 292 30
2 0 +.0016 0 -.00125 -1 0 542101086242752e-30 16 301 45 0 ?181 303 184 297 300 1
84 1 30 302 86 0 304 297 305 0 +-.0016 9e-4 -.00125 0 -1 0 16 304 74 0 ?306 307
 308 302 0 0 1 30 305 87 0 307 302 309 0 +.0016 9e-4 -.00125 0 -1 0 16 307 75 0
 ?310 311 304 305 0 0 1 30 309 88 0 311 305 312 0 +.0016 9e-4 .00125 0 -1 0 16 3
11 76 0 ?313 26 307 309 0 0 1 30 312 89 0 26 309 27 0 +-.0016 9e-4 .00125 0 -1 0
 16 26 77 0 ?314 10 311 312 0 0 1 31 255 27 134 0 10 312 289 0 --.00126044127654
268 9e-4 .000906689402384586 0 -1 0 0 0 -1 .000137986424036285 17 314 0 273 315
 81 68 316 26 0 317 +15 273 82 0 315 318 0 17 315 0 273 283 314 55 70 290 0 279
 +17 81 0 273 314 319 61 79 320 0 321 -17 316 0 322 323 317 61 314 26 0 0 -17 31
7 0 322 316 306 68 324 294 0 0 +15 322 84 0 317 18 0 17 306 0 322 317 323 59 325
 304 0 324 +17 324 0 326 327 70 59 317 294 0 0 -16 294 57 0 ?317 20 328 291 0 0
 1 16 20 321 0 ?67 288 294 7 0 0 1 16 328 141 0 ?329 294 330 331 0 0 1 17 329 0
 332 329 329 0 333 328 0 0 +16 330 207 0 ?334 328 278 335 0 0 1 31 331 161 0 328
 335 336 0 +-.00126044127654268 91e-5 .000906689402384586 0 1 0 0 0 1 .000137986
424036285 30 335 280 0 330 263 331 0 +-.00155 -1e-5 85e-5 0 1 0 30 336 5 0 303 3
31 337 0 +-.0016 9e-4 -.00125 173472347597681e-30 0 1 16 303 4 0 ?321 320 301 33
6 0 0 1 30 337 8 0 320 336 338 0 +.0016 9e-4 .00125 1 0 0 16 320 7 0 ?79 339 303
 337 0 0 1 30 338 11 0 339 337 295 0 +.0016 9e-4 -.00125 -867361737988404e-31 0
 -1 16 339 10 0 ?76 308 320 338 0 0 1 30 295 14 0 308 338 291 0 +.0016 9e-4 -.00
125 -1 0 542101086242752e-30 16 308 13 0 ?73 304 339 295 0 0 1 17 73 0 340 321 7
6 58 341 308 0 325 +15 340 3 0 321 342 343 17 321 0 340 79 73 61 323 303 0 316 +
17 76 0 340 73 79 74 344 339 0 345 +17 341 0 30 310 325 74 73 308 0 0 -17 325 0
 30 341 31 58 306 304 0 323 -17 31 0 30 325 28 59 327 300 0 306 +17 323 0 322 30
6 316 58 321 303 0 0 -17 327 0 326 346 324 11 31 300 0 0 -16 300 538 0 ?31 184 2
96 297 184 301 1 16 184 430 0 ?38 301 300 297 301 300 1 15 326 195 0 347 16 0 17
 346 0 326 347 327 142 35 179 0 0 -17 347 0 326 168 346 146 144 348 0 0 -17 35 0
 349 33 350 11 346 179 0 327 +16 179 566 0 ?35 174 348 351 0 0 1 16 348 562 0 ?1
44 179 352 353 0 0 1 30 351 624 0 179 353 354 0 +-.00155 0 -.00125 0 0 -1 30 353
 625 0 348 355 351 0 +-.00155 0 -45e-5 -1 0 -602334540269725e-31 30 354 623 0 34
 351 193 0 +-.00155 -1e-5 -.00125 0 1 0 16 34 557 0 ?28 190 178 354 0 0 1 30 193
 622 0 190 354 191 0 +-.00155 -1e-5 -45e-5 0 1 0 16 190 569 0 ?350 170 34 193 0
 0 1 17 350 0 349 35 177 142 356 190 0 346 +15 349 605 0 35 357 0 17 177 0 349 3
50 33 154 153 178 0 0 -17 356 0 358 171 144 154 350 190 0 177 -15 358 601 0 144
 359 0 17 171 0 358 169 356 157 156 173 0 0 -17 144 0 358 356 169 142 347 348 0
 350 +17 169 0 358 144 171 146 162 170 0 347 +17 156 0 172 153 159 154 171 173 0
 356 +16 173 576 0 ?156 178 163 360 0 0 1 16 178 579 0 ?153 34 173 361 0 0 1 30
 360 629 0 173 175 361 0 +-.00155 -1e-5 -45e-5 -1 0 -602334540269725e-31 30 175
 630 0 163 180 360 0 +-65e-5 -1e-5 -.00125 271050543121376e-30 0 1 30 361 628 0
 178 360 355 0 +-.00155 -1e-5 -.00125 0 0 -1 30 355 626 0 352 361 353 0 +-65e-5
 0 -.00125 271050543121376e-30 0 1 16 352 558 0 ?148 348 0 355 0 0 1 17 148 0 16
1 162 151 146 168 352 0 169 +17 168 0 326 183 347 149 148 352 0 38 -17 183 0 326
 362 168 29 38 184 0 0 -17 362 0 326 363 183 125 42 198 0 0 -17 363 0 326 364 36
2 128 127 188 0 0 -17 42 0 365 40 211 29 362 198 0 183 +15 365 493 0 42 366 0 17
 40 0 365 367 42 134 36 41 0 39 -17 211 0 365 42 367 125 368 209 0 362 +17 367 0
 365 211 40 137 136 200 0 0 -17 368 0 369 141 127 137 211 209 0 367 -15 369 489
 0 127 370 0 17 141 0 369 130 368 124 139 197 0 196 -17 127 0 369 368 130 125 36
3 188 0 211 +17 130 0 369 127 141 128 371 212 0 187 +17 371 0 372 373 187 124 13
0 212 0 0 -17 187 0 372 371 123 128 364 185 0 363 +15 372 485 0 187 374 0 17 123
 0 372 187 373 121 375 203 0 364 +17 364 0 326 376 363 121 187 185 0 181 -17 376
 0 326 377 364 62 181 301 0 0 -17 181 0 30 375 310 121 376 301 0 0 +17 375 0 30
 39 181 110 123 203 0 373 -17 310 0 30 181 341 62 345 307 0 376 +17 345 0 378 34
4 64 74 310 307 0 341 -15 378 80 0 64 379 0 17 344 0 378 313 345 77 76 339 0 0 -
17 64 0 378 345 313 62 377 296 0 310 +17 313 0 378 64 344 65 319 311 0 377 +17 3
77 0 326 380 376 65 64 296 0 0 -17 380 0 326 381 377 100 67 20 0 0 -17 381 0 326
 382 380 37 102 219 0 0 -17 67 0 273 319 232 65 380 20 0 313 +17 319 0 273 81 67
 77 313 311 0 344 -17 232 0 273 67 383 100 384 225 0 380 +17 383 0 273 232 385 8
6 217 215 0 0 -17 384 0 386 387 102 86 232 225 0 383 -15 386 389 0 102 388 0 17
 387 0 386 43 384 113 112 223 0 0 -17 102 0 386 384 43 100 381 219 0 232 +17 43
 0 386 102 387 37 389 233 0 229 +17 389 0 390 391 229 113 43 233 0 387 -17 229 0
 390 389 237 37 382 227 0 381 +15 390 385 0 229 392 0 17 237 0 390 229 391 104 3
93 235 0 382 +17 382 0 326 394 381 104 229 227 0 0 -17 394 0 326 54 382 107 106
 214 0 274 -17 54 0 326 48 394 52 274 288 0 267 -17 106 0 395 393 109 104 394 21
4 0 237 +17 274 0 273 385 271 107 54 288 0 0 +17 385 0 273 383 274 103 109 238 0
 0 -17 109 0 395 106 120 107 385 238 0 394 +15 395 381 0 106 396 0 17 120 0 395
 109 393 103 118 218 0 217 -17 393 0 395 120 106 116 237 235 0 391 -17 118 0 397
 115 217 116 120 218 0 393 +17 217 0 397 118 112 103 383 215 0 385 +15 397 392 0
 217 398 0 17 112 0 397 217 115 86 387 223 0 384 +17 115 0 397 112 118 113 391 2
21 0 389 +17 391 0 390 237 389 116 115 221 0 0 -14 255 398 390 399 ?374 388 397
 5 400 +0 0 374 388 24 81 1 399 771 401 398 402 0 0 403 404 14 374 482 403 ?370
 398 372 5 405 -0 0 370 398 24 14 388 386 406 ?398 392 386 5 407 -0 0 398 392 24
 50 400 403 0 398 405 407 0 +65e-5 -1e-5 .00125 0 -1 0 0 0 -1 13 24 29 0 0 0 0 0
 0 9 16 14 16 551 408 ?342 0 326 5 409 +0 0 342 0 24 81 1 408 774 401 16 410 0 4
06 411 412 14 342 135 411 ?18 16 340 5 413 -0 0 18 16 24 50 409 65 0 16 413 414
 0 +-.0016 0 .00125 0 -1 0 0 0 -1 50 413 2 0 342 415 409 0 +-.0016 9e-4 .00125 0
 -1 0 0 0 -1 50 414 90 0 182 409 416 0 +.0016 9e-4 -.00125 542101086242752e-30 0
 1 1 0 -542101086242752e-30 14 182 79 417 ?418 379 30 5 414 -0 0 418 379 24 50 4
16 91 0 379 414 19 0 +.0016 9e-4 -.00125 -1 0 867361737988403e-31 86736173798840
3e-31 0 1 14 379 81 419 ?182 318 378 5 416 -0 0 182 318 24 50 19 92 0 318 416 6
 0 +.0016 9e-4 .00125 0 0 -1 -1 0 0 14 318 83 420 ?379 18 273 5 19 -0 0 379 18 2
4 81 1 420 778 401 318 421 0 419 422 423 14 18 85 422 ?318 342 322 5 6 -0 0 318
 342 24 81 1 422 779 401 18 424 0 420 425 426 80 255 1 401 427 428 9000 1 1 1 1
 1 1 1 1 0 FFFFTFTFFFFFFF1 81 1 424 689 429 18 0 422 430 421 431 81 1 425 780 40
1 418 432 0 422 433 434 82 255 1 426 -1944518552 14 418 144 425 ?435 182 436 5 4
15 -0 0 435 182 24 81 1 432 693 429 418 0 425 437 438 439 81 1 433 781 401 435 4
38 0 425 440 441 82 1 434 -231931795 14 435 149 433 ?442 418 332 5 443 +0 0 442
 418 24 81 1 438 694 429 435 0 433 432 444 445 81 1 440 782 401 442 444 0 433 44
6 447 82 1 441 -233897875 14 442 245 440 ?448 435 280 5 449 -0 0 448 435 24 81 1
 444 695 429 442 0 440 438 450 451 81 1 446 783 401 448 450 0 440 452 453 82 1 4
47 -1752563596 14 448 249 446 ?454 442 455 5 456 -0 0 454 442 24 81 1 450 696 42
9 448 0 446 444 457 458 81 1 452 784 401 454 457 0 446 459 460 82 1 453 -1752825
740 14 454 253 452 ?461 448 462 5 463 -0 0 461 448 24 81 1 457 697 429 454 0 452
 450 464 465 81 1 459 785 401 461 464 0 452 466 467 82 1 460 -1753087884 14 461
 257 459 ?468 454 469 5 470 -0 0 468 454 24 81 1 464 698 429 461 0 459 457 471 4
72 81 1 466 786 401 468 471 0 459 473 474 82 1 467 -1753350028 14 468 265 466 ?3
96 461 475 5 476 +0 0 396 461 24 81 1 471 699 429 468 0 466 464 477 478 81 1 473
 787 401 396 477 0 466 479 480 82 1 474 -1761542028 14 396 378 473 ?392 468 395
 5 481 -0 0 392 468 24 81 1 477 700 429 396 0 473 471 482 483 81 1 479 788 401 3
92 482 0 473 484 485 82 1 480 -1740832652 14 392 382 479 ?388 396 390 5 486 -0 0
 388 396 24 81 1 482 701 429 392 0 479 477 487 488 81 1 484 789 401 370 489 0 47
9 490 491 82 1 485 -1741094796 14 370 486 484 ?366 374 369 5 492 -0 0 366 374 24
 81 1 489 705 429 370 0 484 493 494 495 81 1 490 790 401 366 494 0 484 496 497 8
2 1 491 -1729167244 14 366 490 490 ?498 370 365 5 499 -0 0 498 370 24 81 1 494 7
06 429 366 0 490 489 500 501 81 1 496 791 401 498 500 0 490 502 503 82 1 497 -17
29429388 14 498 498 496 ?165 366 504 5 505 +0 0 165 366 24 81 1 500 707 429 498
 0 496 494 506 507 81 1 502 792 401 165 506 0 496 508 509 82 1 503 -1736245132 1
4 165 594 502 ?359 498 161 5 510 -0 0 359 498 24 81 1 506 708 429 165 0 502 500
 511 512 81 1 508 793 401 359 511 0 502 513 514 82 1 509 -1717501836 14 359 598
 508 ?357 165 358 5 515 -0 0 357 165 24 81 1 511 709 429 359 0 508 506 516 517 8
1 1 513 794 401 357 516 0 508 518 519 82 1 514 -1717763980 14 357 602 513 ?176 3
59 349 5 520 -0 0 176 359 24 81 1 516 710 429 357 0 513 511 521 522 81 1 518 795
 401 176 521 0 513 0 523 82 1 519 -1718026124 14 176 606 518 ?0 357 172 5 524 +0
 0 0 357 24 81 1 521 711 429 176 0 518 516 0 525 82 1 523 -1724579724 80 1 429 0
 526 8001 0 0 0 0 3 5 0 0 0 FFFFTFTFFFFFFF2 83 255 3 525 .752941176470588 .75294
1176470588 .752941176470588 79 255 15 526 SDL/TYSA_COLOUR50 524 619 0 176 0 520
 0 +-65e-5 -1e-5 -.00125 0 -1 0 0 0 -1 50 520 617 0 357 524 515 0 +-.00155 -1e-5
 -.00125 1 0 0 0 0 -1 50 515 616 0 359 520 510 0 +-.00155 -1e-5 -45e-5 602334540
269725e-31 0 -1 -1 0 -602334540269725e-31 50 510 615 0 165 515 505 0 +-65e-5 -1e
-5 -.00125 -1 0 271050543121376e-30 271050543121376e-30 0 1 50 505 511 0 498 510
 499 0 +.00155 -1e-5 -45e-5 0 -1 0 0 0 -1 50 499 508 0 366 505 492 0 +65e-5 -1e-
5 -.00125 1 0 271050543121376e-30 271050543121376e-30 0 -1 50 492 507 0 370 499
 405 0 +.00155 -1e-5 -45e-5 -602334540269725e-31 0 -1 -1 0 602334540269725e-31 5
0 405 506 0 374 492 400 0 +.00155 -1e-5 -.00125 -1 0 0 0 0 1 83 3 522 .752941176
470588 .752941176470588 .752941176470588 83 3 517 .752941176470588 .752941176470
588 .752941176470588 83 3 512 .752941176470588 .752941176470588 .752941176470588
 83 3 507 .752941176470588 .752941176470588 .752941176470588 15 504 500 0 196 49
8 0 17 196 0 504 139 133 124 373 194 0 371 +17 139 0 504 136 196 137 141 197 0 3
68 +17 133 0 504 196 136 110 39 202 0 375 +17 373 0 372 123 371 110 196 194 0 0
 -17 136 0 504 133 139 134 367 200 0 40 +17 39 0 30 36 375 134 133 202 0 0 -83 3
 501 .752941176470588 .752941176470588 .752941176470588 81 1 493 704 429 374 0 4
03 402 489 527 83 3 495 .752941176470588 .752941176470588 .752941176470588 81 1
 403 772 401 374 493 0 399 406 528 81 1 402 703 429 398 0 399 487 493 529 83 3 5
27 .752941176470588 .752941176470588 .752941176470588 81 1 487 702 429 388 0 406
 482 402 530 83 3 529 .752941176470588 .752941176470588 .752941176470588 81 1 40
6 773 401 388 487 0 403 408 531 83 3 530 .752941176470588 .752941176470588 .7529
41176470588 82 1 531 -1741356940 82 1 528 -1728905100 83 3 488 .752941176470588
 .752941176470588 .752941176470588 50 486 400 0 392 407 481 0 +.00155 -1e-5 45e-
5 -602334540269725e-31 0 1 1 0 602334540269725e-31 50 407 401 0 388 400 486 0 +.
00155 -1e-5 .00125 -1 0 0 0 0 1 50 481 399 0 396 486 476 0 +65e-5 -1e-5 .00125 1
 0 -271050543121376e-30 -271050543121376e-30 0 -1 50 476 279 0 468 481 470 0 +-.
00155 -1e-5 45e-5 0 -1 0 0 0 -1 50 470 276 0 461 476 463 0 +-65e-5 -1e-5 .00125
 -1 0 -271050543121376e-30 -271050543121376e-30 0 1 50 463 275 0 454 470 456 0 +
-.0011 -1e-5 45e-5 120466908053945e-30 0 1 1 0 -120466908053945e-30 50 456 274 0
 448 463 449 0 +-.00155 -1e-5 85e-5 .66436383882992 0 .74740931868366 .747409318
68366 0 -.66436383882992 50 449 273 0 442 456 443 0 +-.00155 -1e-5 .00125 1 0 0
 0 0 -1 50 443 159 0 435 449 415 0 +-.00126044127654268 91e-5 .00090668940238458
6 0 1 0 0 0 1 51 255 415 157 0 418 443 413 0 --.00126044127654268 91e-5 .0009066
89402384586 0 -1 0 .000137986424036285 0 0 -1 83 3 483 .752941176470588 .7529411
76470588 .752941176470588 83 3 478 .752941176470588 .752941176470588 .7529411764
70588 15 475 267 0 243 468 0 17 243 0 475 97 88 85 282 241 0 532 +17 97 0 475 94
 243 95 99 244 0 533 +17 88 0 475 243 91 71 275 251 0 283 +17 282 0 280 279 532
 71 243 241 0 0 -17 532 0 280 282 281 85 334 330 0 0 -15 280 248 0 281 442 0 17
 281 0 280 532 279 49 57 240 0 0 +17 334 0 455 256 99 49 532 330 0 281 +15 455 2
52 0 256 448 0 17 256 0 455 533 334 82 51 254 0 534 +17 99 0 455 334 533 85 97 2
44 0 243 -17 533 0 455 99 256 95 534 278 0 535 -17 534 0 462 259 535 82 533 278
 0 0 +16 278 211 0 ?534 330 262 263 0 0 1 17 535 0 462 534 536 95 94 247 0 0 -15
 462 256 0 259 454 0 17 536 0 462 535 259 92 277 262 0 537 -17 94 0 475 91 97 92
 535 247 0 536 +17 91 0 475 88 94 89 537 249 0 276 +17 537 0 469 277 276 92 91 2
49 0 0 -17 276 0 469 537 267 89 271 270 0 275 -15 469 260 0 267 461 0 17 267 0 4
69 276 277 52 48 245 0 271 +17 275 0 273 271 283 89 88 251 0 0 -17 283 0 273 275
 315 71 279 253 0 282 -17 277 0 469 267 537 44 536 262 0 0 +17 48 0 326 84 54 44
 267 245 0 259 -17 84 0 326 51 48 82 259 257 0 256 -17 259 0 462 536 534 44 84 2
57 0 277 +17 51 0 326 57 84 49 256 254 0 334 -17 57 0 326 70 51 55 281 240 0 315
 -17 70 0 326 324 57 68 315 290 0 314 -16 290 53 0 ?315 296 288 289 0 0 1 30 263
 281 0 278 260 335 0 +-.0011 -1e-5 45e-5 0 1 0 83 3 472 .752941176470588 .752941
176470588 .752941176470588 83 3 465 .752941176470588 .752941176470588 .752941176
470588 83 3 458 .752941176470588 .752941176470588 .752941176470588 83 3 451 .752
941176470588 .752941176470588 .752941176470588 83 3 445 1 1 1 15 332 151 0 329 4
35 0 81 1 437 692 429 182 0 417 538 432 539 83 3 439 .792156862745098 .819607843
137255 .933333333333333 81 1 417 776 401 182 437 0 411 419 540 81 1 538 691 429
 379 0 419 421 437 541 83 3 539 .250980392156863 .250980392156863 .2509803921568
63 81 1 419 777 401 379 538 0 417 420 542 81 1 421 690 429 318 0 420 424 538 543
 83 3 541 .250980392156863 .250980392156863 .250980392156863 83 3 543 .250980392
156863 .250980392156863 .250980392156863 82 1 542 -1945042840 81 1 411 775 401 3
42 430 0 408 417 544 82 1 540 -1945304972 81 1 430 688 429 342 0 411 410 424 545
 82 1 544 -229506963 81 1 410 687 429 16 0 408 0 430 546 83 3 545 .2509803921568
63 .250980392156863 .250980392156863 83 3 546 .250980392156863 .250980392156863
 .250980392156863 15 436 147 0 333 418 547 17 333 0 436 333 333 0 329 328 0 0 -1
5 547 148 0 25 418 0 17 25 0 547 25 25 0 548 10 0 0 +17 548 0 343 548 548 0 25 1
0 0 0 -15 343 133 0 548 342 0 83 3 431 .250980392156863 .250980392156863 .250980
392156863 79 14 428 SWEntUnchanged82 1 423 -1944780684 82 1 412 -1702166412 82 1
 404 -1747910540 30 180 631 0 174 0 175 0 +-.00155 -1e-5 -.00125 1 0 24093381610
789e-29 17 33 0 349 177 35 131 28 34 0 32 -17 79 0 340 76 321 77 81 320 0 319 +1
41 269 268 269 269 265 19 17 95 0 1 0 9 5 S0 74 4 CI16 index_map_offset0 0 1 dCC
Z20 15 7 0 0 518 549 550 521 551 13 2 0 0 0 0 0 0 0 0 0 0 0 0 0 81 2 549 642 552
 1 0 550 0 0 0 553 81 1 550 685 554 1 549 551 0 0 555 81 2 551 712 556 1 550 13
 0 0 0 557 81 2 13 713 558 1 551 2 0 0 0 0 80 2 558 559 560 9000 0 0 0 0 3 5 0 0
 0 FFTFFFFFFFFFFF9 1 79 16 560 BODY_RECIPE_200180 2 556 561 562 9000 0 0 0 0 3 5
 0 0 0 FFTFFFFFFFFFFF9 1 82 1 557 1 79 24 562 BODY_IN_LIGHTWEIGHT_PERM80 1 554 5
63 564 9000 1 1 1 1 1 1 1 1 0 FFTFFFFFFFFFFF1 82 1 555 35750 79 10 564 BODY_MATC
H80 2 552 565 566 9000 0 0 0 0 3 5 0 0 0 FFTFFFFFFFFFFT9 1 82 1 553 107 79 19 56
6 ENT_TIME_STAMP_200180 2 12 567 568 9000 0 0 0 0 3 5 0 0 0 FFTFFFFFFFFFFF9 1 82
 1 14 103 79 12 568 ATOM_ID_20011 0 
