**ABCDEFGHIJKLMNOPQRSTUVWXYZabcdefghijklmnopqrstuvwxyz**************************
**PARASOLID !"#$%&'()*+,-./:;<=>?@[\]^_`{|}~0123456789**************************
**PART1;
MC=AMD64;
MC_MODEL=Intel64 Family 6 Model 158 Stepping 13, GenuineIntel;
MC_ID=unknown;
OS=Windows_NT;
OS_RELEASE=unknown;
FRU=CAD Exchanger 3.9.0 (cadexchanger.com);
APPL=unknown;
SITE=unknown;
USER=unknown;
FORMAT=text;
GUISE=transmit;
KEY=RESC1608-IPC-ML_CMP-009-00183-2;
FILE=RESC1608-IPC-ML_CMP-009-00183-2.x_t;
DATE=Sun Jan 17 19:07:05 2021;
**PART2;
SCH=SCH_1200000_12006;
USFLD_SIZE=0;
**PART3;
**END_OF_HEADER*****************************************************************
T51 : TRANSMIT FILE created by modeller version 120000017 SCH_1200000_120060 74
 4 1 4 0 2 105 206 475 12 2 68 0 3 0 0 0 0 1000 1e-008 0 0 0 1 0 1 1 12 14 20 18
 9 19 17 70 3 0 2 0 0 4 1 20 0 4 4 1 T74 20 4 1 0 5 0 0 0 0 0 0 0 0 0 0 0 0 0 0
 0 0 0 0 0 81 1 5 7 6 13 0 0 42 0 8 80 1 6 0 7 8001 0 0 0 0 3 5 0 0 FFFFTFTFFFFF
FF2 79 15 7 SDL/TYSA_COLOUR83 3 8 0.843137264251709 0.8156862854957581 0.7529411
911964417 19 9 1 0 2 11 0 10 V13 10 2 0 2 0 0 0 0 9 13 19 11 3 0 2 0 9 12 S13 12
 4 0 2 0 13 0 0 11 0 14 13 5 5 1e-008 40 0 15 12 14 -0 0 40 0 10 50 14 6 0 13 41
 0 0 +-0.0007499187199999998 0.0004000406400000003 0.0004 1 -2.449293598294706e-
016 0 2.449293598294706e-016 1 -6.123233995736766e-017 15 15 8 0 16 13 0 17 16 0
 15 24 36 17 21 19 0 29 +18 17 9 0 16 0 22 18 ?2 29 18 10 0 17 23 0 -0.000749918
7199999998 0.0004000406400000002 5e-005 16 19 11 0 ?16 0 27 20 0 0 2 30 20 12 0
 19 28 0 0 +-0.0007499187199999998 0.0004000406400000002 0.0004 -1.4997597826618
58e-032 -6.123233995736766e-017 -1 17 21 0 86 91 87 22 16 19 0 36 -18 22 13 0 21
 17 25 23 ?2 29 23 14 0 22 26 18 -0.0007499187199999998 0.0004000406400000002 0.
0004 17 24 0 15 30 16 25 29 27 0 35 +18 25 15 0 50 22 31 26 ?2 29 26 16 0 25 32
 23 -0.00074991872 -0.0003999593599999999 5.000000000000003e-005 16 27 17 0 ?24
 19 33 28 0 0 2 30 28 18 0 27 34 20 0 +-0.0007499187199999998 0.0004000406400000
003 4.999999999999998e-005 -2.449293598294706e-016 -1 6.123233995736766e-017 17
 29 0 104 90 50 17 24 27 0 87 -17 30 0 15 36 24 31 35 33 0 0 -18 31 19 0 57 25 4
6 32 ?2 29 32 20 0 31 47 26 -0.00074991872 -0.0003999593599999999 0.0004 16 33 2
1 0 ?35 27 37 34 0 0 2 30 34 22 0 33 38 28 0 +-0.00074991872 -0.0003999593599999
999 0.0004 -1.499759782661858e-032 -6.123233995736766e-017 -1 17 35 0 44 45 57 2
5 30 33 0 0 +17 36 0 15 16 30 22 39 37 0 94 -16 37 23 0 ?39 33 48 38 0 0 2 30 38
 24 0 37 49 34 0 +-0.0007499187199999998 0.0004000406400000002 0.0004 -2.4492935
98294706e-016 -1 6.123233995736766e-017 17 39 0 99 60 94 31 36 37 0 30 +14 40 25
 42 1e-008 61 13 44 12 41 -0 0 61 13 10 50 41 26 0 40 62 14 0 +0.000750081280000
0001 -0.0003999593600000002 0.0004 1.003690701647367e-016 1 -6.123233995736766e-
017 -1 1.003690701647367e-016 8.85176480108653e-033 81 1 42 27 6 40 0 0 63 5 43
 83 3 43 0.843137264251709 0.8156862854957581 0.7529411911964417 15 44 28 0 35 4
0 0 17 45 0 44 51 35 46 50 48 0 56 -18 46 29 0 45 31 52 47 ?2 29 47 30 0 46 53 3
2 0.0007500812800000001 -0.0003999593600000002 5.000000000000003e-005 16 48 31 0
 ?50 37 54 49 0 0 2 30 49 32 0 48 55 38 0 +-0.00074991872 -0.0003999593599999999
 5.000000000000003e-005 -1 2.449293598294706e-016 -0 17 50 0 104 29 71 25 45 48
 0 24 +17 51 0 44 57 45 52 56 54 0 78 -18 52 33 0 60 46 67 53 ?2 29 53 34 0 52 6
8 47 0.0007500812800000001 -0.0003999593600000002 0.0004 16 54 35 0 ?56 48 58 55
 0 0 2 30 55 36 0 54 59 49 0 +0.0007500812800000001 -0.0003999593600000002 0.000
4 -1.499759782661858e-032 -6.123233995736766e-017 -1 17 56 0 65 66 78 46 51 54 0
 71 +17 57 0 44 35 51 31 60 58 0 39 -16 58 37 0 ?60 54 69 59 0 0 2 30 59 38 0 58
 70 55 0 +0.0007500812800000001 -0.0003999593600000002 0.0004 1 -1.0036907016473
67e-016 -8.85176480108653e-033 17 60 0 99 81 39 52 57 58 0 51 +14 61 39 63 1e-00
8 82 40 65 12 62 -0 0 82 40 10 50 62 40 0 61 83 41 0 +0.0007500812800000002 0.00
04000406399999999 0.0004 -1 1.094040882687826e-016 8.298529501018624e-033 -1.094
040882687826e-016 -1 6.123233995736766e-017 81 1 63 41 6 61 0 0 84 42 64 83 3 64
 0.843137264251709 0.8156862854957581 0.7529411911964417 15 65 42 0 56 61 0 17 6
6 0 65 72 56 67 71 69 0 77 -18 67 43 0 66 52 73 68 ?2 29 68 44 0 67 74 53 0.0007
500812800000003 0.0004000406399999999 4.999999999999998e-005 16 69 45 0 ?71 58 7
5 70 0 0 2 30 70 46 0 69 76 59 0 +0.0007500812800000003 0.0004000406399999999 4.
999999999999998e-005 -2.449293598294706e-016 -1 6.123233995736766e-017 17 71 0 1
04 50 90 46 66 69 0 0 +17 72 0 65 78 66 73 77 75 0 91 -18 73 47 0 81 67 0 74 ?2
 29 74 48 0 73 0 68 0.0007500812800000002 0.0004000406399999999 0.0004 16 75 49
 0 ?77 69 79 76 0 0 2 30 76 50 0 75 80 70 0 +0.0007500812800000002 0.00040004063
99999999 0.0004 -1.499759782661858e-032 -6.123233995736766e-017 -1 17 77 0 86 87
 91 67 72 75 0 90 +17 78 0 65 56 72 52 81 79 0 0 -16 79 51 0 ?81 75 88 80 0 0 2
 30 80 52 0 79 89 76 0 +0.0007500812800000002 0.0004000406399999999 0.0004 1.094
040882687826e-016 1 -6.123233995736766e-017 17 81 0 99 94 60 73 78 79 0 72 +14 8
2 53 84 1e-008 95 61 86 12 83 -0 0 95 61 10 50 83 54 0 82 96 62 0 +0.00075008128
00000002 0.0004000406399999999 0.0004 -1.365091425809202e-016 -1 6.1232339957367
66e-017 1 -1.365091425809202e-016 -6.638823600814897e-033 81 1 84 55 6 82 0 0 97
 63 85 83 3 85 0.843137264251709 0.8156862854957581 0.7529411911964417 15 86 56
 0 77 82 0 17 87 0 86 21 77 17 90 88 0 0 +16 88 57 0 ?87 79 92 89 0 0 2 30 89 58
 0 88 93 80 0 +-0.0007499187199999998 0.0004000406400000003 4.999999999999998e-0
05 -1 2.449293598294706e-016 -0 17 90 0 104 71 29 67 87 88 0 0 -17 91 0 86 77 21
 73 94 92 0 0 -16 92 59 0 ?94 88 0 93 0 0 2 30 93 60 0 92 0 89 0 +0.000750081280
0000002 0.0004000406399999999 0.0004 -1 1.365091425809202e-016 6.638823600814897
e-033 17 94 0 99 39 81 22 91 92 0 0 +14 95 61 97 1e-008 100 82 99 12 96 -0 0 100
 82 10 50 96 62 0 95 101 83 0 +-0.00074991872 -0.0003999593599999999 0.0004 -1.4
99759782661858e-032 -6.123233995736766e-017 -1 2.449293598294706e-016 1 -6.12323
3995736766e-017 81 1 97 63 6 95 0 0 102 84 98 83 3 98 0.843137264251709 0.815686
2854957581 0.7529411911964417 15 99 64 0 60 95 0 14 100 65 102 1e-008 0 95 104 1
2 101 -0 0 0 95 10 50 101 66 0 100 0 96 0 +-0.0007499187199999998 0.000400040640
0000003 4.999999999999998e-005 1.499759782661858e-032 6.123233995736766e-017 1 -
2.449293598294706e-016 -1 6.123233995736766e-017 81 1 102 67 6 100 0 0 0 97 103
 83 3 103 0.843137264251709 0.8156862854957581 0.7529411911964417 15 104 68 0 50
 100 0 12 105 68 0 106 0 0 0 0 1000 1e-008 0 0 0 1 0 1 1 113 115 121 119 110 120
 118 70 106 0 105 0 0 4 1 20 0 107 107 1 T74 20 107 1 0 108 0 0 0 0 0 0 0 0 0 0
 0 0 0 0 0 0 0 0 0 81 1 108 7 6 114 0 0 143 0 109 83 3 109 0.09803921729326248 0
.09803921729326248 0.09803921729326248 19 110 1 0 105 112 0 111 V13 111 2 0 105
 0 0 0 0 110 114 19 112 3 0 105 0 110 113 S13 113 4 0 105 0 114 0 0 112 0 14 114
 5 108 1e-008 141 0 116 113 115 -0 0 141 0 111 50 115 6 0 114 142 0 0 +0.0013016
4225709407 -0.0003999593600000006 0.000450000000000004 3.804546313901587e-016 1
 -6.123233995736737e-017 -1 3.804546313901587e-016 -8.298529501018623e-033 15 11
6 8 0 117 114 0 17 117 0 116 125 137 118 122 120 0 130 -18 118 9 0 117 0 123 119
 ?105 29 119 10 0 118 124 0 0.0005000812799999998 -0.0003999593600000004 0.00045
00000000000022 16 120 11 0 ?122 0 128 121 0 0 105 30 121 12 0 120 129 0 0 +0.000
5000812799999998 -0.0003999593600000003 0.0004500000000000057 -2.168404344971003
e-015 -6.123233995736654e-017 -1 17 122 0 205 149 191 123 117 120 0 146 +18 123
 13 0 122 118 126 124 ?105 29 124 14 0 123 127 119 0.0005000812799999997 -0.0003
999593600000003 0.0004000000000000022 17 125 0 116 131 117 126 130 128 0 192 +18
 126 15 0 125 123 132 127 ?105 29 127 16 0 126 133 124 -0.0004999187200000001 -0
.0003999593599999999 0.00045 16 128 17 0 ?125 120 134 129 0 0 105 30 129 18 0 12
8 135 121 0 +0.00130164225709407 -0.0003999593600000006 0.000450000000000004 -1
 3.804546313901586e-016 -2.168404344971003e-015 17 130 0 187 188 192 118 125 128
 0 191 -17 131 0 116 137 125 132 136 134 0 157 +18 132 19 0 140 126 150 133 ?105
 29 133 20 0 132 151 127 -0.00049991872 -0.0003999593599999999 0.0004 16 134 21
 0 ?131 128 138 135 0 0 105 30 135 22 0 134 139 129 0 +-0.0004999187200000001 -0
.0003999593599999999 0.00045 2.168404344971008e-015 -6.123233995736819e-017 -1 1
7 136 0 200 195 157 126 131 134 0 0 -17 137 0 116 117 131 123 140 138 0 0 -16 13
8 23 0 ?140 134 147 139 0 0 105 30 139 24 0 138 148 135 0 +0.00130164225709407 -
0.0003999593600000006 0.0004000000000000039 -1 3.804546313901586e-016 -2.1684043
44971003e-015 17 140 0 145 152 146 132 137 138 0 131 +14 141 25 143 1e-008 162 1
14 145 113 142 -0 0 162 114 111 50 142 26 0 141 163 115 0 +0.00130164225709407 -
0.0003999593600000006 0.0004000000000000039 -2.168404344971003e-015 6.1232339957
36849e-017 1 -1 2.449293598294705e-016 -2.168404344971003e-015 81 1 143 27 6 141
 0 0 164 108 144 83 3 144 0.09803921729326248 0.09803921729326248 0.098039217293
26248 15 145 28 0 146 141 0 17 146 0 145 140 158 123 149 147 0 137 -16 147 29 0
 ?149 138 155 148 0 0 105 30 148 30 0 147 156 139 0 +0.0005000812799999998 -0.00
03999593600000008 0.0004000000000000022 -1.797164910606853e-016 1 -6.12323399573
6888e-017 17 149 0 205 170 122 150 146 147 0 158 +18 150 31 0 149 132 153 151 ?1
05 29 151 32 0 150 154 133 0.0005000812799999997 0.0004000406399999999 0.0004000
000000000022 17 152 0 145 158 140 153 157 155 0 0 +18 153 33 0 161 150 171 154 ?
105 29 154 34 0 153 172 151 -0.0004999187199999998 0.0004000406400000003 0.0004
 16 155 35 0 ?152 147 159 156 0 0 105 30 156 36 0 155 160 148 0 +-0.00049991872
 -0.0003999593599999999 0.0004 3.804546313901587e-016 1 -6.123233995736766e-017
 17 157 0 200 136 178 132 152 155 0 0 -17 158 0 145 146 152 150 161 159 0 167 -1
6 159 37 0 ?161 155 168 160 0 0 105 30 160 38 0 159 169 156 0 +0.001301642257094
07 0.0004000406399999997 0.0004000000000000039 -1 3.804546313901586e-016 -2.1684
04344971003e-015 17 161 0 166 173 167 153 158 159 0 178 +14 162 39 164 1e-008 18
3 141 166 113 163 -0 0 183 141 111 50 163 40 0 162 184 142 0 +0.0013016422570940
7 0.0004000406399999997 0.000450000000000004 -3.804546313901587e-016 -1 6.123233
995736766e-017 1 -3.804546313901587e-016 8.298529501018623e-033 81 1 164 41 6 16
2 0 0 185 143 165 83 3 165 0.09803921729326248 0.09803921729326248 0.09803921729
326248 15 166 42 0 167 162 0 17 167 0 166 161 179 150 170 168 0 0 -16 168 43 0 ?
170 159 176 169 0 0 105 30 169 44 0 168 177 160 0 +0.0005000812799999998 0.00040
00406399999999 0.0004500000000000057 2.168404344971003e-015 6.123233995736684e-0
17 1 17 170 0 205 191 149 171 167 168 0 179 +18 171 45 0 170 153 174 172 ?105 29
 172 46 0 171 175 154 0.00050008128 0.0004000406399999999 0.0004500000000000022
 17 173 0 166 179 161 174 178 176 0 182 +18 174 47 0 173 171 0 175 ?105 29 175 4
8 0 174 0 172 -0.0004999187199999998 0.0004000406400000003 0.00045 16 176 49 0 ?
173 168 180 177 0 0 105 30 177 50 0 176 181 169 0 +-0.0004999187199999998 0.0004
000406400000003 0.00045 1.499759782661858e-032 6.123233995736766e-017 1 17 178 0
 200 157 195 153 173 176 0 152 -17 179 0 166 167 173 171 182 180 0 188 -16 180 5
1 0 ?182 176 189 181 0 0 105 30 181 52 0 180 190 177 0 +0.00130164225709407 0.00
04000406399999997 0.000450000000000004 -1 3.804546313901586e-016 -2.168404344971
003e-015 17 182 0 187 192 188 174 179 180 0 195 +14 183 53 185 1e-008 196 162 18
7 113 184 -0 0 196 162 111 50 184 54 0 183 197 163 0 +0.00130164225709407 -0.000
3999593600000006 0.000450000000000004 2.168404344971003e-015 -6.123233995736878e
-017 -1 1 -2.449293598294705e-016 2.168404344971003e-015 81 1 185 55 6 183 0 0 1
98 164 186 83 3 186 0.09803921729326248 0.09803921729326248 0.09803921729326248
 15 187 56 0 188 183 0 17 188 0 187 182 130 171 191 189 0 0 -16 189 57 0 ?191 18
0 193 190 0 0 105 30 190 58 0 189 194 181 0 +0.0005000812799999998 -0.0003999593
600000008 0.0004500000000000022 1.797164910606853e-016 -1 6.123233995736916e-017
 17 191 0 205 122 170 118 188 189 0 0 +17 192 0 187 130 182 126 195 193 0 136 +1
6 193 59 0 ?192 189 0 194 0 0 105 30 194 60 0 193 0 190 0 +-0.000499918720000000
1 -0.0003999593599999999 0.00045 -5.159799029508466e-016 -1 6.123233995736766e-0
17 17 195 0 200 178 136 174 192 193 0 0 -14 196 61 198 1e-008 201 183 200 113 19
7 -0 0 201 183 111 50 197 62 0 196 202 184 0 +-0.00049991872 -0.0003999593599999
999 0.0004 1 -3.804546313901586e-016 2.168404344971008e-015 -2.168404344971008e-
015 6.123233995736819e-017 1 81 1 198 63 6 196 0 0 203 185 199 83 3 199 0.098039
21729326248 0.09803921729326248 0.09803921729326248 15 200 64 0 178 196 0 14 201
 65 203 1e-008 0 196 205 113 202 +0 0 0 196 111 50 202 66 0 201 0 197 0 +0.00050
00812799999998 -0.0003999593600000001 0.0004500000000000001 1 1.797164910606851e
-016 -2.168404344971003e-015 -2.168404344971003e-015 -6.123233995736776e-017 -1
 81 1 203 67 6 201 0 0 0 198 204 83 3 204 0.09803921729326248 0.0980392172932624
8 0.09803921729326248 15 205 68 0 191 201 0 12 206 180 0 207 0 0 0 0 1000 1e-008
 0 0 0 1 0 1 1 214 216 222 220 211 221 219 70 207 0 206 0 0 4 1 20 0 208 208 1 T
74 20 208 1 0 209 0 0 0 0 0 0 0 0 0 0 0 0 0 0 0 0 0 0 0 81 1 209 7 6 215 0 0 244
 0 210 83 3 210 0.8980392217636108 0.9176470637321472 0.929411768913269 19 211 1
 0 206 213 0 212 V13 212 2 0 206 0 0 0 0 211 215 19 213 3 0 206 0 211 214 S13 21
4 4 0 206 0 215 0 0 213 0 14 215 5 209 1e-008 242 0 217 214 216 -0 0 242 0 212 5
0 216 6 0 215 243 0 0 +-0.0007499187200000001 0.0004000406400000004 4.9999999999
99984e-005 1.242314989306306e-016 -1.967576115180558e-016 -1 2.449293598294706e-
016 1 -1.967576115180557e-016 15 217 8 0 218 215 0 17 218 0 217 226 238 219 223
 221 0 376 -18 219 9 0 218 0 224 220 ?206 29 220 10 0 219 225 0 -0.0004999187199
999999 0.0004000406400000003 5.000000000000029e-005 16 221 11 0 ?223 0 229 222 0
 0 206 30 222 12 0 221 230 0 0 +-0.0004999187199999999 0.0004000406400000003 4.9
99999999999987e-005 -2.449293598294706e-016 -1 1.967576115180557e-016 17 223 0 4
46 428 376 224 218 221 0 425 +18 224 13 0 223 219 227 225 ?206 29 225 14 0 224 2
28 220 -0.00049991872 -0.0003999593599999999 5.000000000000003e-005 17 226 0 217
 232 218 227 231 229 0 237 -18 227 15 0 287 224 233 228 ?206 29 228 16 0 227 234
 225 -0.00074991872 0.0004000406400000003 5.000000000000016e-005 16 229 17 0 ?23
1 221 235 230 0 0 206 30 230 18 0 229 236 222 0 +-0.00074991872 0.00040004064000
00003 5.000000000000016e-005 1 -2.449293598294706e-016 1.242314989306307e-016 17
 231 0 362 373 287 219 226 229 0 0 +17 232 0 217 238 226 233 237 235 0 241 -18 2
33 19 0 232 227 248 234 ?206 29 234 20 0 233 249 228 -0.0007499187200000001 -0.0
003999593599999999 5.000000000000028e-005 16 235 21 0 ?237 229 239 236 0 0 206 3
0 236 22 0 235 240 230 0 +-0.0007499187200000001 0.0004000406400000004 4.9999999
99999983e-005 1.094040882687825e-016 1 -1.967576115180558e-016 17 237 0 275 282
 276 227 232 235 0 0 +17 238 0 217 218 232 224 241 239 0 0 +16 239 23 0 ?238 235
 250 240 0 0 206 30 240 24 0 239 251 236 0 +-0.0007499187200000001 -0.0003999593
599999999 5.000000000000028e-005 1 -2.449293598294706e-016 1.242314989306307e-01
6 17 241 0 420 279 425 233 238 239 0 276 -14 242 25 244 1e-008 271 215 246 214 2
43 -0 0 271 215 212 50 243 26 0 242 272 216 0 +-0.0007999187200000002 -0.0003999
593599999998 -1.381373898898786e-019 -1.242314989306307e-016 6.123233995736769e-
017 1 -1 2.449293598294706e-016 -1.242314989306307e-016 81 1 244 27 6 242 0 0 27
3 209 245 83 3 245 0.8980392217636108 0.9176470637321472 0.929411768913269 15 24
6 28 0 247 242 0 17 247 0 246 255 267 248 252 250 0 260 -18 248 29 0 428 233 253
 249 ?206 29 249 30 0 248 254 234 -0.00049991872 -0.0003999593599999999 -7.37628
8589855173e-020 16 250 31 0 ?252 239 258 251 0 0 206 30 251 32 0 250 259 240 0 +
-0.00049991872 -0.0003999593599999999 -1.008679402106894e-019 2.449293598294706e
-016 1 -6.123233995736766e-017 17 252 0 446 376 428 253 247 250 0 267 +18 253 33
 0 373 248 256 254 ?206 29 254 34 0 253 257 249 -0.0004999187199999999 0.0004000
406400000001 -1.498538121765835e-019 17 255 0 246 261 247 256 260 258 0 0 -18 25
6 35 0 266 253 262 257 ?206 29 257 36 0 256 263 254 -0.0007999187200000004 -0.00
03999593599999998 -1.11032335577741e-019 16 258 37 0 ?260 250 264 259 0 0 206 30
 259 38 0 258 265 251 0 +-0.0007999187200000004 -0.0003999593599999998 -1.110323
35577741e-019 1 -2.449293598294706e-016 1.242314989306307e-016 17 260 0 420 425
 308 248 255 258 0 0 +17 261 0 246 267 255 262 266 264 0 270 -18 262 39 0 297 25
6 280 263 ?206 29 263 40 0 262 281 257 -0.00079991872 0.0004000406400000003 -1.8
71232618557727e-019 16 264 41 0 ?266 258 268 265 0 0 206 30 265 42 0 264 269 259
 0 +-0.0007999187200000002 -0.0003999593599999998 -1.381373898898786e-019 -2.449
293598294706e-016 -1 6.123233995736766e-017 17 266 0 296 303 297 256 261 264 0 3
08 +17 267 0 246 247 261 253 270 268 0 0 +16 268 43 0 ?267 264 277 269 0 0 206 3
0 269 44 0 268 278 265 0 +-0.00079991872 0.0004000406400000003 -1.87123261855772
7e-019 1 -2.449293598294706e-016 1.242314989306307e-016 17 270 0 362 300 373 262
 267 268 0 0 -14 271 45 273 1e-008 292 242 275 214 272 +0 0 292 242 212 50 272 4
6 0 271 293 243 0 +-0.00074991872 0.0004000406400000005 0.0004 1 -1.094040882687
826e-016 -2.409338161078899e-016 2.409338161078899e-016 6.12323399573676e-017 1
 81 1 273 47 6 271 0 0 294 244 274 83 3 274 0.8980392217636108 0.917647063732147
2 0.929411768913269 15 275 48 0 276 271 0 17 276 0 275 237 288 233 279 277 0 0 +
16 277 49 0 ?276 268 285 278 0 0 206 30 278 50 0 277 286 269 0 +-0.00074991872 -
0.0003999593599999998 0.0004 -2.409338161078899e-016 -6.12323399573676e-017 -1 1
7 279 0 420 341 241 280 276 277 0 0 -18 280 51 0 288 262 283 281 ?206 29 281 52
 0 280 284 263 -0.00074991872 -0.0003999593599999998 0.0004 17 282 0 275 288 237
 283 287 285 0 291 -18 283 53 0 347 280 301 284 ?206 29 284 54 0 283 302 281 -0.
00074991872 0.0004000406400000004 0.0004000000000000001 16 285 55 0 ?287 277 289
 286 0 0 206 30 286 56 0 285 290 278 0 +-0.00074991872 0.0004000406400000004 0.0
004000000000000001 -2.409338161078899e-016 -6.12323399573676e-017 -1 17 287 0 36
2 231 347 227 282 285 0 226 +17 288 0 275 276 282 280 291 289 0 338 +16 289 57 0
 ?288 285 298 290 0 0 206 30 290 58 0 289 299 286 0 +-0.00074991872 0.0004000406
400000005 0.0004 -1.094040882687826e-016 -1 -7.429293160332039e-017 17 291 0 317
 342 338 283 288 289 0 0 -14 292 59 294 1e-008 313 271 296 214 293 +0 0 313 271
 212 50 293 60 0 292 314 272 0 +-0.0007999187200000002 -0.0003999593599999998 0.
0004500000000000001 -1 2.449293598294706e-016 2.409338161078899e-016 -2.40933816
1078899e-016 -6.12323399573676e-017 -1 81 1 294 61 6 292 0 0 315 273 295 83 3 29
5 0.8980392217636108 0.9176470637321472 0.929411768913269 15 296 62 0 297 292 0
 17 297 0 296 266 309 262 300 298 0 261 +16 298 63 0 ?297 289 306 299 0 0 206 30
 299 64 0 298 307 290 0 +-0.00079991872 0.0004000406400000003 0.00045 -2.4093381
61078899e-016 -6.12323399573676e-017 -1 17 300 0 362 363 270 301 297 298 0 0 -18
 301 65 0 368 283 304 302 ?206 29 302 66 0 301 305 284 -0.00079991872 0.00040004
06400000003 0.00045 17 303 0 296 309 266 304 308 306 0 0 -18 304 67 0 415 301 31
9 305 ?206 29 305 68 0 304 320 302 -0.0007999187200000002 -0.0003999593599999998
 0.00045 16 306 69 0 ?308 298 310 307 0 0 206 30 307 70 0 306 311 299 0 +-0.0007
999187200000002 -0.0003999593599999998 0.00045 -2.409338161078899e-016 -6.123233
99573676e-017 -1 17 308 0 420 260 415 256 303 306 0 255 +17 309 0 296 297 303 30
1 312 310 0 300 +16 310 71 0 ?309 306 321 311 0 0 206 30 311 72 0 310 322 307 0
 +-0.0007999187200000002 -0.0003999593599999998 0.00045 2.449293598294706e-016 1
 -6.123233995736766e-017 17 312 0 381 412 368 304 309 310 0 303 -14 313 73 315 1
e-008 358 292 317 214 314 -0 0 358 292 212 50 314 74 0 313 359 293 0 +-0.0015764
7969709407 0.0004000406400000006 0.0004 -1.819652017745592e-032 -7.4292931603320
39e-017 1 -2.449293598294706e-016 -1 -7.429293160332039e-017 81 1 315 75 6 313 0
 0 360 294 316 83 3 316 0.8980392217636108 0.9176470637321472 0.929411768913269
 15 317 76 0 318 313 0 17 318 0 317 326 354 319 323 321 0 434 +18 319 77 0 331 3
04 324 320 ?206 29 320 78 0 319 325 305 -0.0004999187199999999 -0.00029995935999
99999 0.0004 16 321 79 0 ?318 310 329 322 0 0 206 30 322 80 0 321 330 311 0 +-0.
0004999187199999999 0.0004000406400000003 0.0004 -1.094040882687826e-016 -1 -7.4
29293160332039e-017 17 323 0 433 438 434 324 318 321 0 0 -18 324 81 0 354 319 32
7 325 ?206 29 325 82 0 324 328 320 -0.0004999187199999998 0.0003000406400000004
 0.0004 17 326 0 317 332 318 327 331 329 0 337 -18 327 83 0 326 324 333 328 ?206
 29 328 84 0 327 334 325 -0.0006799187200000001 -0.0002999593599999999 0.0004 16
 329 85 0 ?331 321 335 330 0 0 206 30 330 86 0 329 336 322 0 +-0.00049991872 -0.
0002999593599999999 0.0004 1 -2.449293598294706e-016 0 17 331 0 465 437 466 319
 326 329 0 318 +17 332 0 317 338 326 333 337 335 0 341 -18 333 87 0 424 327 343
 334 ?206 29 334 88 0 333 344 328 -0.0006799187200000001 -0.0003999593599999999
 0.0004 16 335 89 0 ?337 329 339 336 0 0 206 30 336 90 0 335 340 330 0 +-0.00067
99187200000001 -0.0003999593599999999 0.0004 2.449293598294706e-016 1 7.42929316
0332039e-017 17 337 0 474 469 424 327 332 335 0 466 +17 338 0 317 291 332 280 34
1 339 0 279 -16 339 91 0 ?341 335 345 340 0 0 206 30 340 92 0 339 346 336 0 +-0.
001576479697094069 -0.0003999593599999997 0.0004 1 -2.449293598294706e-016 0 17
 341 0 420 421 279 333 338 339 0 0 +17 342 0 317 348 291 343 347 345 0 369 +18 3
43 93 0 342 333 349 344 ?206 29 344 94 0 343 350 334 -0.0006799187199999997 0.00
04000406400000003 0.0004 16 345 95 0 ?342 339 351 346 0 0 206 30 346 96 0 345 35
2 340 0 +-0.00157647969709407 0.0004000406400000005 0.0004 1 -2.449293598294706e
-016 0 17 347 0 362 287 369 283 342 345 0 282 -17 348 0 317 354 342 349 353 351
 0 452 -18 349 97 0 357 343 364 350 ?206 29 350 98 0 349 365 344 -0.000679918719
9999997 0.0003000406400000005 0.0004 16 351 99 0 ?353 345 355 352 0 0 206 30 352
 100 0 351 356 346 0 +-0.0006799187199999997 0.0004000406400000004 0.0004 2.4492
93598294706e-016 1 7.429293160332039e-017 17 353 0 451 372 452 343 348 351 0 0 +
17 354 0 317 318 348 324 357 355 0 441 -16 355 101 0 ?357 351 366 356 0 0 206 30
 356 102 0 355 367 352 0 +-0.0004999187199999998 0.0003000406400000004 0.0004 -1
 8.472639000991955e-016 4.47491988025761e-032 17 357 0 460 455 441 349 354 355 0
 348 +14 358 103 360 1e-008 377 313 362 214 359 -0 0 377 313 212 50 359 104 0 35
8 378 314 0 +-0.001576479697094069 0.0004000406400000006 0.0004500000000000001 -
2.449293598294706e-016 -1 6.123233995736766e-017 1 -2.449293598294706e-016 0 81
 1 360 105 6 358 0 0 379 315 361 83 3 361 0.8980392217636108 0.9176470637321472
 0.929411768913269 15 362 106 0 363 358 0 17 363 0 362 369 300 364 368 366 0 408
 +18 364 107 0 372 349 383 365 ?206 29 365 108 0 364 384 350 -0.0006799187199999
997 0.0004000406400000005 0.00045 16 366 109 0 ?363 355 370 367 0 0 206 30 367 1
10 0 366 371 356 0 +-0.001576479697094069 0.0004000406400000005 0.00045 1 -2.449
293598294706e-016 0 17 368 0 381 312 408 301 363 366 0 309 -17 369 0 362 347 363
 343 372 370 0 353 -16 370 111 0 ?372 366 374 371 0 0 206 30 371 112 0 370 375 3
67 0 +-0.0006799187199999997 0.0004000406400000005 -1.000000000000212e-006 1.499
759782661858e-032 6.123233995736766e-017 1 17 372 0 451 411 353 364 369 370 0 36
3 +17 373 0 362 270 231 253 376 374 0 252 -16 374 113 0 ?376 370 385 375 0 0 206
 30 375 114 0 374 386 371 0 +-0.0004999187199999999 0.0004000406400000003 0.0002
250000000000001 -1.242314989306307e-016 6.123233995736769e-017 1 17 376 0 446 22
3 252 219 373 374 0 231 +14 377 115 379 1e-008 416 358 381 214 378 -0 0 416 358
 212 50 378 116 0 377 417 359 0 +-0.00157647969709407 -0.0003999593599999997 0.0
004500000000000001 -1.499759782661858e-032 -6.123233995736766e-017 -1 2.44929359
8294706e-016 1 -6.123233995736766e-017 81 1 379 117 6 377 0 0 418 360 380 83 3 3
80 0.8980392217636108 0.9176470637321472 0.929411768913269 15 381 118 0 382 377
 0 17 382 0 381 390 412 383 387 385 0 395 -18 383 119 0 382 364 388 384 ?206 29
 384 120 0 383 389 365 -0.0006799187200000001 -0.0002999593599999999 0.00045 16
 385 121 0 ?387 374 393 386 0 0 206 30 386 122 0 385 394 375 0 +-0.0006799187200
000001 -0.0003999593599999999 0.00045 -2.449293598294706e-016 -1 6.1232339957367
66e-017 17 387 0 474 424 469 388 382 385 0 412 +18 388 123 0 387 383 391 389 ?20
6 29 389 124 0 388 392 384 -0.0006799187200000001 -0.0003999593599999999 0.00045
 17 390 0 381 396 382 391 395 393 0 401 -18 391 125 0 390 388 397 392 ?206 29 39
2 126 0 391 398 389 -0.00049991872 -0.0002999593599999999 0.00045 16 393 127 0 ?
395 385 399 394 0 0 206 30 394 128 0 393 400 386 0 +-0.00049991872 -0.0002999593
599999999 0.00045 -1 2.449293598294706e-016 0 17 395 0 465 466 437 383 390 393 0
 469 +17 396 0 381 402 390 397 401 399 0 438 +18 397 129 0 407 391 403 398 ?206
 29 398 130 0 397 404 392 -0.0004999187199999998 0.0003000406400000005 0.00045 1
6 399 131 0 ?396 393 405 400 0 0 206 30 400 132 0 399 406 394 0 +-0.00049991872
 -0.0003999593599999999 0.00045 3.804546313901587e-016 1 -6.123233995736766e-017
 17 401 0 433 434 438 391 396 399 0 437 -17 402 0 381 408 396 403 407 405 0 411
 -18 403 133 0 402 397 0 404 ?206 29 404 134 0 403 0 398 -0.0006799187199999997
 0.0003000406400000005 0.00045 16 405 135 0 ?407 399 409 406 0 0 206 30 406 136
 0 405 410 400 0 +-0.0004999187199999998 0.0003000406400000004 0.00045 1 -8.4726
39000991955e-016 3.688235333786056e-032 17 407 0 460 441 455 397 402 405 0 396 +
17 408 0 381 368 402 364 411 409 0 0 -16 409 137 0 ?411 405 413 410 0 0 206 30 4
10 138 0 409 414 406 0 +-0.0006799187199999997 0.0004000406400000005 0.00045 -2.
449293598294706e-016 -1 6.123233995736766e-017 17 411 0 451 452 372 403 408 409
 0 455 +17 412 0 381 382 312 388 415 413 0 421 +16 413 139 0 ?412 409 422 414 0
 0 206 30 414 140 0 413 423 410 0 +-0.00157647969709407 -0.0003999593599999997 0
.00045 1 -2.449293598294706e-016 0 17 415 0 420 308 421 304 412 413 0 312 -14 41
6 141 418 1e-008 429 377 420 214 417 -0 0 429 377 212 50 417 142 0 416 430 378 0
 +-0.001576479697094069 -0.0003999593599999997 0.0004 2.449293598294706e-016 1 1
.022969832528134e-015 -2.505553462059766e-031 -1.022969832528134e-015 1 81 1 418
 143 6 416 0 0 431 379 419 83 3 419 0.8980392217636108 0.9176470637321472 0.9294
11768913269 15 420 144 0 341 416 0 17 421 0 420 415 341 388 424 422 0 0 +16 422
 145 0 ?421 413 426 423 0 0 206 30 423 146 0 422 427 414 0 +-0.00067991872000000
01 -0.0003999593599999999 -1.000000000000162e-006 1.499759782661858e-032 6.12323
3995736766e-017 1 17 424 0 474 337 387 333 421 422 0 332 -17 425 0 420 241 260 2
24 428 426 0 238 -16 426 147 0 ?428 422 435 427 0 0 206 30 427 148 0 426 436 423
 0 +-0.00049991872 -0.0003999593599999997 0.0002250000000000002 1.24231498930630
4e-016 -1.145434512442869e-015 -1 17 428 0 446 252 223 248 425 426 0 247 +14 429
 149 431 1e-008 442 416 433 214 430 -0 0 442 416 212 50 430 150 0 429 443 417 0
 +-0.00049991872 -0.0003999593599999999 0.0004500000000000001 -1 3.8045463139015
86e-016 -2.168404344971003e-015 2.168404344971003e-015 -6.123233995736819e-017 -
1 81 1 431 151 6 429 0 0 444 418 432 83 3 432 0.8980392217636108 0.9176470637321
472 0.929411768913269 15 433 152 0 401 429 0 17 434 0 433 323 401 319 437 435 0
 0 -16 435 153 0 ?437 426 439 436 0 0 206 30 436 154 0 435 440 427 0 +-0.0004999
1872 -0.00029995936 -1.000000000000169e-006 1.499759782661858e-032 6.12323399573
6766e-017 1 17 437 0 465 395 331 391 434 435 0 0 +17 438 0 433 401 323 397 441 4
39 0 0 +16 439 155 0 ?438 435 453 440 0 0 206 30 440 156 0 439 454 436 0 +-0.000
4999187199999998 0.0003000406400000004 -1.000000000000205e-006 1.499759782661858
e-032 6.123233995736766e-017 1 17 441 0 460 357 407 324 438 439 0 323 -14 442 15
7 444 1e-008 447 429 446 214 443 +0 0 447 429 212 50 443 158 0 442 448 430 0 +-0
.00049991872 4.064000000023242e-008 2.500000000000008e-005 1 -2.449293598294706e
-016 1.242314989306307e-016 -1.242314989306307e-016 6.123233995736769e-017 1 81
 1 444 159 6 442 0 0 449 431 445 83 3 445 0.8980392217636108 0.9176470637321472
 0.929411768913269 15 446 160 0 428 442 0 14 447 161 449 1e-008 456 442 451 214
 448 -0 0 456 442 212 50 448 162 0 447 457 443 0 +-0.0006799187199999997 0.00040
00406400000005 -1.000000000000212e-006 -1 2.449293598294706e-016 0 -2.4492935982
94706e-016 -1 6.123233995736766e-017 81 1 449 163 6 447 0 0 458 444 450 83 3 450
 0.8980392217636108 0.9176470637321472 0.929411768913269 15 451 164 0 353 447 0
 17 452 0 451 353 411 349 455 453 0 0 -16 453 165 0 ?455 439 467 454 0 0 206 30
 454 166 0 453 468 440 0 +-0.0006799187199999997 0.0003000406400000005 -1.000000
000000205e-006 1.499759782661858e-032 6.123233995736766e-017 1 17 455 0 460 407
 357 403 452 453 0 0 +14 456 167 458 1e-008 461 447 460 214 457 -0 0 461 447 212
 50 457 168 0 456 462 448 0 +-0.0004999187199999998 0.0003000406400000004 -1.000
000000000205e-006 -8.472639000991955e-016 -1 6.123233995736766e-017 1 -8.4726390
00991955e-016 3.688235333786056e-032 81 1 458 169 6 456 0 0 463 449 459 83 3 459
 0.8980392217636108 0.9176470637321472 0.929411768913269 15 460 170 0 357 456 0
 14 461 171 463 1e-008 470 456 465 214 462 -0 0 470 456 212 50 462 172 0 461 471
 457 0 +-0.00049991872 -0.00029995936 -1.000000000000169e-006 2.449293598294706e
-016 1 -6.123233995736766e-017 -1 2.449293598294706e-016 0 81 1 463 173 6 461 0
 0 472 458 464 83 3 464 0.8980392217636108 0.9176470637321472 0.929411768913269
 15 465 174 0 331 461 0 17 466 0 465 331 395 327 469 467 0 0 -16 467 175 0 ?469
 453 0 468 0 0 206 30 468 176 0 467 0 454 0 +-0.0006799187200000001 -0.000299959
3599999999 -1.000000000000169e-006 1.499759782661858e-032 6.123233995736766e-017
 1 17 469 0 474 387 337 383 466 467 0 0 +14 470 177 472 1e-008 0 461 474 214 471
 -0 0 0 461 212 50 471 178 0 470 0 462 0 +-0.0006799187200000001 -0.000399959359
9999999 -1.000000000000162e-006 -1 2.449293598294706e-016 0 -2.449293598294706e-
016 -1 6.123233995736766e-017 81 1 472 179 6 470 0 0 0 463 473 83 3 473 0.898039
2217636108 0.9176470637321472 0.929411768913269 15 474 180 0 337 470 0 12 475 18
0 0 476 0 0 0 0 1000 1e-008 0 0 0 1 0 1 1 483 485 491 489 480 490 488 70 476 0 4
75 0 0 4 1 20 0 477 477 1 T74 20 477 1 0 478 0 0 0 0 0 0 0 0 0 0 0 0 0 0 0 0 0 0
 0 81 1 478 7 6 484 0 0 513 0 479 83 3 479 0.8980392217636108 0.9176470637321472
 0.929411768913269 19 480 1 0 475 482 0 481 V13 481 2 0 475 0 0 0 0 480 484 19 4
82 3 0 475 0 480 483 S13 483 4 0 475 0 484 0 0 482 0 14 484 5 478 1e-008 511 0 4
86 483 485 -0 0 511 0 481 50 485 6 0 484 512 0 0 +0.0007500812800000001 0.000400
0406400000003 4.999999999999984e-005 -1.242314989306307e-016 -1.967576115180557e
-016 -1 -4.419121949999729e-017 1 -1.967576115180557e-016 15 486 8 0 487 484 0 1
7 487 0 486 495 507 488 492 490 0 500 +18 488 9 0 487 0 493 489 ?475 29 489 10 0
 488 494 0 0.0005000812799999998 -0.0003999593599999999 5.000000000000003e-005 1
6 490 11 0 ?487 0 498 491 0 0 475 30 491 12 0 490 499 0 0 +0.00050008128 0.00040
00406400000003 4.999999999999987e-005 4.419121949999729e-017 -1 1.96757611518055
7e-016 17 492 0 715 645 697 493 487 490 0 642 -18 493 13 0 492 488 496 494 ?475
 29 494 14 0 493 497 489 0.00050008128 0.0004000406400000002 5.000000000000029e-
005 17 495 0 486 501 487 496 500 498 0 506 -18 496 15 0 495 493 502 497 ?475 29
 497 16 0 496 503 494 0.0007500812799999999 -0.00039995936 5.000000000000028e-00
5 16 498 17 0 ?500 490 504 499 0 0 475 30 499 18 0 498 505 491 0 +0.000750081279
9999999 -0.00039995936 5.000000000000028e-005 -1 -4.419121949999729e-017 1.24231
4989306307e-016 17 500 0 689 694 550 488 495 498 0 697 +17 501 0 486 507 495 502
 506 504 0 510 +18 502 19 0 557 496 517 503 ?475 29 503 20 0 502 518 497 0.00075
008128 0.0004000406400000002 5.000000000000016e-005 16 504 21 0 ?501 498 508 505
 0 0 475 30 505 22 0 504 509 499 0 +0.0007500812800000001 0.0004000406400000003
 4.999999999999983e-005 9.133405206069091e-017 1 -1.967576115180558e-016 17 506
 0 544 545 557 496 501 504 0 550 -17 507 0 486 487 501 493 510 508 0 0 +16 508 2
3 0 ?507 504 519 509 0 0 475 30 509 24 0 508 520 505 0 +0.00075008128 0.00040004
06400000002 5.000000000000016e-005 -1 -4.419121949999729e-017 1.242314989306307e
-016 17 510 0 631 560 642 502 507 508 0 0 -14 511 25 513 1e-008 540 484 515 483
 512 -0 0 540 484 481 50 512 26 0 511 541 485 0 +0.00080008128 -0.00039995936000
00001 -1.381373898898786e-019 1.242314989306307e-016 6.123233995736767e-017 1 1
 4.419121949999729e-017 -1.242314989306307e-016 81 1 513 27 6 511 0 0 542 478 51
4 83 3 514 0.8980392217636108 0.9176470637321472 0.929411768913269 15 515 28 0 5
16 511 0 17 516 0 515 524 536 517 521 519 0 645 +18 517 29 0 529 502 522 518 ?47
5 29 518 30 0 517 523 503 0.00050008128 0.00040004064 -1.498538121765835e-019 16
 519 31 0 ?516 508 527 520 0 0 475 30 520 32 0 519 528 509 0 +0.0005000812799999
998 -0.0003999593600000001 -1.008679402106894e-019 -4.419121949999729e-017 1 -6.
123233995736766e-017 17 521 0 715 697 645 522 516 519 0 536 -18 522 33 0 521 517
 525 523 ?475 29 523 34 0 522 526 518 0.0005000812799999998 -0.00039995936 -7.37
6288589855173e-020 17 524 0 515 530 516 525 529 527 0 535 -18 525 35 0 524 522 5
31 526 ?475 29 526 36 0 525 532 523 0.0008000812800000001 0.0004000406400000001
 -1.871232618557727e-019 16 527 37 0 ?529 519 533 528 0 0 475 30 528 38 0 527 53
4 520 0 +0.0008000812800000001 0.0004000406400000001 -1.871232618557727e-019 -1
 -4.419121949999729e-017 1.242314989306307e-016 17 529 0 631 642 571 517 524 527
 0 516 +17 530 0 515 536 524 531 535 533 0 578 +18 531 39 0 530 525 546 532 ?475
 29 532 40 0 531 547 526 0.0008000812800000002 -0.0003999593600000001 -1.1103233
5577741e-019 16 533 41 0 ?530 527 537 534 0 0 475 30 534 42 0 533 538 528 0 +0.0
0080008128 -0.0003999593600000001 -1.381373898898786e-019 4.419121949999729e-017
 -1 6.123233995736766e-017 17 535 0 565 566 578 525 530 533 0 571 -17 536 0 515
 516 530 522 539 537 0 694 +16 537 43 0 ?536 533 548 538 0 0 475 30 538 44 0 537
 549 534 0 +0.0008000812800000002 -0.0003999593600000001 -1.11032335577741e-019
 -1 -4.419121949999729e-017 1.242314989306307e-016 17 539 0 689 581 694 531 536
 537 0 0 -14 540 45 542 1e-008 561 511 544 483 541 +0 0 561 511 481 50 541 46 0
 540 562 512 0 +0.00075008128 0.0004000406400000004 0.0004 -1 9.133405206069086e
-017 -2.409338161078899e-016 -2.409338161078899e-016 6.123233995736765e-017 1 81
 1 542 47 6 540 0 0 563 513 543 83 3 543 0.8980392217636108 0.9176470637321472 0
.929411768913269 15 544 48 0 545 540 0 17 545 0 544 551 506 546 550 548 0 0 -18
 546 49 0 556 531 552 547 ?475 29 547 50 0 546 553 532 0.0007500812799999997 -0.
00039995936 0.0004 16 548 51 0 ?550 537 554 549 0 0 475 30 549 52 0 548 555 538
 0 +0.0007500812799999997 -0.00039995936 0.0004 2.409338161078899e-016 -6.123233
995736765e-017 -1 17 550 0 689 500 592 496 545 548 0 0 +17 551 0 544 557 545 552
 556 554 0 623 -18 552 53 0 551 546 567 553 ?475 29 553 54 0 552 568 547 0.00075
008128 0.0004000406400000002 0.0004000000000000001 16 554 55 0 ?556 548 558 555
 0 0 475 30 555 56 0 554 559 549 0 +0.00075008128 0.0004000406400000003 0.0004 -
9.133405206069081e-017 -1 -7.429293160332039e-017 17 556 0 586 587 623 546 551 5
54 0 592 +17 557 0 544 506 551 502 560 558 0 501 +16 558 57 0 ?557 554 569 559 0
 0 475 30 559 58 0 558 570 555 0 +0.00075008128 0.0004000406400000002 0.00040000
00000000001 2.409338161078899e-016 -6.123233995736765e-017 -1 17 560 0 631 626 5
10 552 557 558 0 0 -14 561 59 563 1e-008 582 540 565 483 562 +0 0 582 540 481 50
 562 60 0 561 583 541 0 +0.0008000812799999999 -0.0003999593600000001 0.00045000
00000000001 1 4.419121949999729e-017 2.409338161078899e-016 2.409338161078899e-0
16 -6.123233995736765e-017 -1 81 1 563 61 6 561 0 0 584 542 564 83 3 564 0.89803
92217636108 0.9176470637321472 0.929411768913269 15 565 62 0 566 561 0 17 566 0
 565 572 535 567 571 569 0 577 -18 567 63 0 638 552 573 568 ?475 29 568 64 0 567
 574 553 0.00080008128 0.0004000406400000002 0.00045 16 569 65 0 ?571 558 575 57
0 0 0 475 30 570 66 0 569 576 559 0 +0.00080008128 0.0004000406400000002 0.00045
 2.409338161078899e-016 -6.123233995736765e-017 -1 17 571 0 631 529 638 525 566
 569 0 0 +17 572 0 565 578 566 573 577 575 0 665 -18 573 67 0 581 567 588 574 ?4
75 29 574 68 0 573 589 568 0.0008000812799999999 -0.0003999593600000001 0.00045
 16 575 69 0 ?577 569 579 576 0 0 475 30 576 70 0 575 580 570 0 +0.0008000812799
999999 -0.0003999593600000001 0.00045 -4.419121949999729e-017 1 -6.1232339957367
66e-017 17 577 0 650 641 665 567 572 575 0 0 +17 578 0 565 535 572 531 581 579 0
 539 +16 579 71 0 ?578 575 590 580 0 0 475 30 580 72 0 579 591 576 0 +0.00080008
12799999999 -0.0003999593600000001 0.00045 2.409338161078899e-016 -6.12323399573
6765e-017 -1 17 581 0 689 668 539 573 578 579 0 572 -14 582 73 584 1e-008 627 56
1 586 483 583 -0 0 627 561 481 50 583 74 0 582 628 562 0 +0.001576642257094069 0
.0004000406400000003 0.0004 2.098662484995367e-032 -7.429293160332039e-017 1 4.4
19121949999729e-017 -1 -7.429293160332039e-017 81 1 584 75 6 582 0 0 629 563 585
 83 3 585 0.8980392217636108 0.9176470637321472 0.929411768913269 15 586 76 0 58
7 582 0 17 587 0 586 593 556 588 592 590 0 690 +18 588 77 0 598 573 594 589 ?475
 29 589 78 0 588 595 574 0.0006800812799999998 -0.0003999593600000001 0.0004 16
 590 79 0 ?587 579 596 591 0 0 475 30 591 80 0 590 597 580 0 +0.0015766422570940
7 -0.0003999593599999999 0.0004 -1 -4.419121949999729e-017 1.770352960217307e-03
2 17 592 0 689 550 690 546 587 590 0 545 -17 593 0 586 599 587 594 598 596 0 604
 -18 594 81 0 593 588 600 595 ?475 29 595 82 0 594 601 589 0.0006800812799999998
 -0.0002999593600000002 0.0004 16 596 83 0 ?598 590 602 597 0 0 475 30 597 84 0
 596 603 591 0 +0.0006800812799999998 -0.0003999593600000003 0.0004 -2.449293598
294706e-016 -1 -7.429293160332039e-017 17 598 0 734 693 735 588 593 596 0 587 +1
7 599 0 586 605 593 600 604 602 0 610 -18 600 85 0 599 594 606 601 ?475 29 601 8
6 0 600 607 595 0.0005000812799999998 -0.0002999593600000002 0.0004 16 602 87 0
 ?604 596 608 603 0 0 475 30 603 88 0 602 609 597 0 +0.0005000812799999998 -0.00
02999593600000002 0.0004 1 -2.449293598294706e-016 -3.918314502740958e-032 17 60
4 0 743 738 706 594 599 602 0 735 +17 605 0 586 611 599 606 610 608 0 707 -18 60
6 89 0 616 600 612 607 ?475 29 607 90 0 606 613 601 0.0005000812799999998 0.0003
000406399999996 0.0004 16 608 91 0 ?610 602 614 609 0 0 475 30 609 92 0 608 615
 603 0 +0.00050008128 0.0004000406400000002 0.0004 -9.133405206069086e-017 -1 -7
.429293160332039e-017 17 610 0 702 703 707 600 605 608 0 706 +17 611 0 586 617 6
05 612 616 614 0 622 -18 612 93 0 611 606 618 613 ?475 29 613 94 0 612 619 607 0
.00068008128 0.0003000406399999995 0.0004 16 614 95 0 ?616 608 620 615 0 0 475 3
0 615 96 0 614 621 609 0 +0.00050008128 0.0003000406399999996 0.0004 -1 8.472639
000991955e-016 8.393234382998564e-032 17 616 0 720 710 721 606 611 614 0 605 +17
 617 0 586 623 611 618 622 620 0 0 -18 618 97 0 626 612 633 619 ?475 29 619 98 0
 618 634 613 0.0006800812800000003 0.0004000406399999994 0.0004000000000000001 1
6 620 99 0 ?622 614 624 621 0 0 475 30 621 100 0 620 625 615 0 +0.00068008128000
00003 0.0004000406399999993 0.0004 -4.58173804977149e-015 -1 -7.429293160332039e
-017 17 622 0 729 724 637 612 617 620 0 721 +17 623 0 586 556 617 552 626 624 0
 560 -16 624 101 0 ?626 620 635 625 0 0 475 30 625 102 0 624 636 621 0 +0.001576
642257094069 0.0004000406400000003 0.0004 -1 -4.419121949999729e-017 1.770352960
217307e-032 17 626 0 631 632 560 618 623 624 0 637 +14 627 103 629 1e-008 646 58
2 631 483 628 -0 0 646 582 481 50 628 104 0 627 647 583 0 +0.001576642257094069
 0.0004000406400000004 0.0004500000000000001 4.419121949999729e-017 -1 6.1232339
95736766e-017 -1 -4.419121949999729e-017 1.770352960217307e-032 81 1 629 105 6 6
27 0 0 648 584 630 83 3 630 0.8980392217636108 0.9176470637321472 0.929411768913
269 15 631 106 0 626 627 0 17 632 0 631 638 626 633 637 635 0 0 +18 633 107 0 64
1 618 652 634 ?475 29 634 108 0 633 653 619 0.0006800812800000003 0.000400040639
9999994 0.00045 16 635 109 0 ?632 624 639 636 0 0 475 30 636 110 0 635 640 625 0
 +0.0006800812800000003 0.0004000406399999994 -1.000000000000212e-006 1.49975978
2661858e-032 6.123233995736766e-017 1 17 637 0 729 622 674 618 632 635 0 617 -17
 638 0 631 571 632 567 641 639 0 566 -16 639 111 0 ?641 635 643 640 0 0 475 30 6
40 112 0 639 644 636 0 +0.001576642257094069 0.0004000406400000003 0.00045 -1 -4
.419121949999729e-017 1.770352960217307e-032 17 641 0 650 669 577 633 638 639 0
 674 +17 642 0 631 510 529 493 645 643 0 507 +16 643 113 0 ?642 639 654 644 0 0
 475 30 644 114 0 643 655 640 0 +0.00050008128 0.0004000406400000002 0.000225000
0000000001 1.242314989306307e-016 6.123233995736767e-017 1 17 645 0 715 521 492
 517 642 643 0 0 -14 646 115 648 1e-008 685 627 650 483 647 -0 0 685 627 481 50
 647 116 0 646 686 628 0 +0.00157664225709407 -0.0003999593599999999 0.000450000
0000000001 -1.499759782661858e-032 -6.123233995736766e-017 -1 -4.419121949999729
e-017 1 -6.123233995736766e-017 81 1 648 117 6 646 0 0 687 629 649 83 3 649 0.89
80392217636108 0.9176470637321472 0.929411768913269 15 650 118 0 651 646 0 17 65
1 0 650 659 681 652 656 654 0 738 -18 652 119 0 664 633 657 653 ?475 29 653 120
 0 652 658 634 0.0006800812799999998 -0.0002999593600000002 0.00045 16 654 121 0
 ?656 643 662 655 0 0 475 30 655 122 0 654 663 644 0 +0.0005000812799999998 -0.0
002999593600000002 0.00045 -1 2.449293598294706e-016 -0 17 656 0 743 706 738 657
 651 654 0 681 +18 657 123 0 656 652 660 658 ?475 29 658 124 0 657 661 653 0.000
50008128 -0.0002999593600000002 0.00045 17 659 0 650 665 651 660 664 662 0 668 -
18 660 125 0 659 657 670 661 ?475 29 661 126 0 660 671 658 0.0006800812799999998
 -0.0003999593600000002 0.00045 16 662 127 0 ?664 654 666 663 0 0 475 30 663 128
 0 662 667 655 0 +0.0006800812799999998 -0.0003999593600000002 0.00045 2.4492935
98294706e-016 1 -6.123233995736766e-017 17 664 0 734 735 693 652 659 662 0 651 +
17 665 0 650 577 659 573 668 666 0 0 -16 666 129 0 ?668 662 672 667 0 0 475 30 6
67 130 0 666 673 663 0 +0.00157664225709407 -0.0003999593599999999 0.00045 -1 -4
.419121949999729e-017 1.770352960217307e-032 17 668 0 689 690 581 660 665 666 0
 693 +17 669 0 650 675 641 670 674 672 0 680 -18 670 131 0 669 660 676 671 ?475
 29 671 132 0 670 677 661 0.00068008128 0.0003000406399999995 0.00045 16 672 133
 0 ?674 666 678 673 0 0 475 30 673 134 0 672 679 667 0 +0.0006800812800000003 0.
0004000406399999994 0.00045 4.58173804977149e-015 1 -6.123233995736766e-017 17 6
74 0 729 637 724 633 669 672 0 632 +17 675 0 650 681 669 676 680 678 0 684 -18 6
76 135 0 675 670 0 677 ?475 29 677 136 0 676 0 671 0.00050008128 0.0003000406399
999996 0.00045 16 678 137 0 ?680 672 682 679 0 0 475 30 679 138 0 678 683 673 0
 +0.00050008128 0.0003000406399999996 0.00045 1 -8.472639000991955e-016 3.688235
333786056e-032 17 680 0 720 721 710 670 675 678 0 724 +17 681 0 650 651 675 657
 684 682 0 703 -16 682 139 0 ?684 678 691 683 0 0 475 30 683 140 0 682 692 679 0
 +0.0005000812799999998 -0.0003999593600000001 0.00045 -1.797164910606853e-016 1
 -6.123233995736766e-017 17 684 0 702 707 703 676 681 682 0 710 +14 685 141 687
 1e-008 698 646 689 483 686 -0 0 698 646 481 50 686 142 0 685 699 647 0 +0.00157
664225709407 -0.0003999593599999999 0.0004 -4.419121949999729e-017 1 1.022969832
528134e-015 6.290981401329918e-032 -1.022969832528134e-015 1 81 1 687 143 6 685
 0 0 700 648 688 83 3 688 0.8980392217636108 0.9176470637321472 0.92941176891326
9 15 689 144 0 668 685 0 17 690 0 689 592 668 588 693 691 0 0 -16 691 145 0 ?693
 682 695 692 0 0 475 30 692 146 0 691 696 683 0 +0.0006800812799999998 -0.000399
9593600000002 -1.000000000000162e-006 1.499759782661858e-032 6.123233995736766e-
017 1 17 693 0 734 664 598 660 690 691 0 0 +17 694 0 689 539 500 522 697 695 0 0
 +16 695 147 0 ?694 691 704 696 0 0 475 30 696 148 0 695 705 692 0 +0.0005000812
799999998 -0.0003999593599999997 0.0002250000000000002 -1.242314989306307e-016 -
1.145434512442869e-015 -1 17 697 0 715 492 521 488 694 695 0 0 -14 698 149 700 1
e-008 711 685 702 483 699 -0 0 711 685 481 50 699 150 0 698 712 686 0 +0.0005000
812799999998 -0.0003999593600000001 0.0004500000000000001 1 1.797164910606851e-0
16 -2.168404344971003e-015 -2.168404344971003e-015 -6.123233995736776e-017 -1 81
 1 700 151 6 698 0 0 713 687 701 83 3 701 0.8980392217636108 0.9176470637321472
 0.929411768913269 15 702 152 0 610 698 0 17 703 0 702 684 610 657 706 704 0 0 +
16 704 153 0 ?703 695 708 705 0 0 475 30 705 154 0 704 709 696 0 +0.000500081279
9999998 -0.0002999593600000002 -1.000000000000169e-006 1.499759782661858e-032 6.
123233995736766e-017 1 17 706 0 743 604 656 600 703 704 0 0 -17 707 0 702 610 68
4 606 710 708 0 0 -16 708 155 0 ?710 704 722 709 0 0 475 30 709 156 0 708 723 70
5 0 +0.00050008128 0.0003000406399999996 -1.000000000000205e-006 1.4997597826618
58e-032 6.123233995736766e-017 1 17 710 0 720 680 616 676 707 708 0 0 +14 711 15
7 713 1e-008 716 698 715 483 712 +0 0 716 698 481 50 712 158 0 711 717 699 0 +0.
00050008128 4.064000000013205e-008 2.500000000000008e-005 -1 -4.419121949999729e
-017 1.242314989306307e-016 1.242314989306307e-016 6.123233995736767e-017 1 81 1
 713 159 6 711 0 0 718 700 714 83 3 714 0.8980392217636108 0.9176470637321472 0.
929411768913269 15 715 160 0 697 711 0 14 716 161 718 1e-008 725 711 720 483 717
 -0 0 725 711 481 50 717 162 0 716 726 712 0 +0.00050008128 0.000300040639999999
6 -1.000000000000205e-006 -8.472639000991955e-016 -1 6.123233995736766e-017 1 -8
.472639000991955e-016 3.688235333786056e-032 81 1 718 163 6 716 0 0 727 713 719
 83 3 719 0.8980392217636108 0.9176470637321472 0.929411768913269 15 720 164 0 6
16 716 0 17 721 0 720 616 680 612 724 722 0 0 -16 722 165 0 ?724 708 736 723 0 0
 475 30 723 166 0 722 737 709 0 +0.00068008128 0.0003000406399999995 -1.00000000
0000205e-006 1.499759782661858e-032 6.123233995736766e-017 1 17 724 0 729 674 62
2 670 721 722 0 0 +14 725 167 727 1e-008 730 716 729 483 726 -0 0 730 716 481 50
 726 168 0 725 731 717 0 +0.0006800812800000003 0.0004000406399999994 -1.0000000
00000212e-006 1 -4.58173804977149e-015 2.65552944032596e-031 4.58173804977149e-0
15 1 -6.123233995736766e-017 81 1 727 169 6 725 0 0 732 718 728 83 3 728 0.89803
92217636108 0.9176470637321472 0.929411768913269 15 729 170 0 622 725 0 14 730 1
71 732 1e-008 739 725 734 483 731 -0 0 739 725 481 50 731 172 0 730 740 726 0 +0
.0006800812799999998 -0.0003999593600000002 -1.000000000000162e-006 1 -2.4492935
98294706e-016 0 2.449293598294706e-016 1 -6.123233995736766e-017 81 1 732 173 6
 730 0 0 741 727 733 83 3 733 0.8980392217636108 0.9176470637321472 0.9294117689
13269 15 734 174 0 598 730 0 17 735 0 734 598 664 594 738 736 0 0 -16 736 175 0
 ?738 722 0 737 0 0 475 30 737 176 0 736 0 723 0 +0.0006800812799999998 -0.00029
99593600000002 -1.000000000000169e-006 1.499759782661858e-032 6.123233995736766e
-017 1 17 738 0 743 656 604 652 735 736 0 0 +14 739 177 741 1e-008 0 730 743 483
 740 -0 0 0 730 481 50 740 178 0 739 0 731 0 +0.0005000812799999998 -0.000299959
3600000002 -1.000000000000169e-006 2.449293598294706e-016 1 -6.123233995736766e-
017 -1 2.449293598294706e-016 0 81 1 741 179 6 739 0 0 0 732 742 83 3 742 0.8980
392217636108 0.9176470637321472 0.929411768913269 15 743 180 0 604 739 0 1 0 
